%TF.GenerationSoftware,KiCad,Pcbnew,(5.1.10)-1*%
%TF.CreationDate,2023-09-30T19:16:06-07:00*%
%TF.ProjectId,PacmanClock_ESP32_SPI_v1_6,5061636d-616e-4436-9c6f-636b5f455350,1.6*%
%TF.SameCoordinates,Original*%
%TF.FileFunction,Soldermask,Bot*%
%TF.FilePolarity,Negative*%
%FSLAX46Y46*%
G04 Gerber Fmt 4.6, Leading zero omitted, Abs format (unit mm)*
G04 Created by KiCad (PCBNEW (5.1.10)-1) date 2023-09-30 19:16:06*
%MOMM*%
%LPD*%
G01*
G04 APERTURE LIST*
%ADD10R,2.000000X2.000000*%
%ADD11C,1.600000*%
%ADD12R,1.600000X1.600000*%
%ADD13C,1.200000*%
%ADD14R,1.200000X1.200000*%
%ADD15C,1.524000*%
%ADD16R,0.900000X1.200000*%
%ADD17C,1.498600*%
%ADD18O,2.000000X1.700000*%
%ADD19O,1.700000X2.000000*%
%ADD20O,1.700000X1.950000*%
%ADD21C,2.700000*%
%ADD22O,1.700000X1.700000*%
%ADD23R,1.700000X1.700000*%
G04 APERTURE END LIST*
D10*
%TO.C,BT1*%
X192000000Y-138700000D03*
X172000000Y-138700000D03*
%TD*%
%TO.C,C4*%
G36*
G01*
X174500000Y-133049998D02*
X174500000Y-134350002D01*
G75*
G02*
X174250002Y-134600000I-249998J0D01*
G01*
X173424998Y-134600000D01*
G75*
G02*
X173175000Y-134350002I0J249998D01*
G01*
X173175000Y-133049998D01*
G75*
G02*
X173424998Y-132800000I249998J0D01*
G01*
X174250002Y-132800000D01*
G75*
G02*
X174500000Y-133049998I0J-249998D01*
G01*
G37*
G36*
G01*
X177625000Y-133049998D02*
X177625000Y-134350002D01*
G75*
G02*
X177375002Y-134600000I-249998J0D01*
G01*
X176549998Y-134600000D01*
G75*
G02*
X176300000Y-134350002I0J249998D01*
G01*
X176300000Y-133049998D01*
G75*
G02*
X176549998Y-132800000I249998J0D01*
G01*
X177375002Y-132800000D01*
G75*
G02*
X177625000Y-133049998I0J-249998D01*
G01*
G37*
%TD*%
D11*
%TO.C,C3*%
X145400000Y-128300000D03*
D12*
X148900000Y-128300000D03*
%TD*%
D13*
%TO.C,C5*%
X147400000Y-114100000D03*
D14*
X147400000Y-112600000D03*
%TD*%
D15*
%TO.C,U2*%
X177700000Y-80900000D03*
X177700000Y-83440000D03*
X177700000Y-85980000D03*
X177700000Y-88520000D03*
X177700000Y-91060000D03*
X177700000Y-93600000D03*
X177700000Y-96140000D03*
X177700000Y-98680000D03*
X177700000Y-101220000D03*
X177700000Y-103760000D03*
X177700000Y-106300000D03*
X177700000Y-108840000D03*
X177700000Y-111380000D03*
X177700000Y-113920000D03*
X177700000Y-116460000D03*
X152300000Y-80900000D03*
X152300000Y-116460000D03*
X152300000Y-113920000D03*
X152300000Y-111380000D03*
X152300000Y-108840000D03*
X152300000Y-106300000D03*
X152300000Y-103760000D03*
X152300000Y-101220000D03*
X152300000Y-98680000D03*
X152300000Y-96140000D03*
X152300000Y-93600000D03*
X152300000Y-91060000D03*
X152300000Y-88520000D03*
X152300000Y-85980000D03*
X152300000Y-83440000D03*
%TD*%
D16*
%TO.C,D1*%
X176950000Y-150100000D03*
X180250000Y-150100000D03*
%TD*%
%TO.C,C8*%
G36*
G01*
X174850000Y-129625000D02*
X174850000Y-130575000D01*
G75*
G02*
X174600000Y-130825000I-250000J0D01*
G01*
X173925000Y-130825000D01*
G75*
G02*
X173675000Y-130575000I0J250000D01*
G01*
X173675000Y-129625000D01*
G75*
G02*
X173925000Y-129375000I250000J0D01*
G01*
X174600000Y-129375000D01*
G75*
G02*
X174850000Y-129625000I0J-250000D01*
G01*
G37*
G36*
G01*
X176925000Y-129625000D02*
X176925000Y-130575000D01*
G75*
G02*
X176675000Y-130825000I-250000J0D01*
G01*
X176000000Y-130825000D01*
G75*
G02*
X175750000Y-130575000I0J250000D01*
G01*
X175750000Y-129625000D01*
G75*
G02*
X176000000Y-129375000I250000J0D01*
G01*
X176675000Y-129375000D01*
G75*
G02*
X176925000Y-129625000I0J-250000D01*
G01*
G37*
%TD*%
%TO.C,R12*%
G36*
G01*
X173100000Y-149749999D02*
X173100000Y-150650001D01*
G75*
G02*
X172850001Y-150900000I-249999J0D01*
G01*
X172149999Y-150900000D01*
G75*
G02*
X171900000Y-150650001I0J249999D01*
G01*
X171900000Y-149749999D01*
G75*
G02*
X172149999Y-149500000I249999J0D01*
G01*
X172850001Y-149500000D01*
G75*
G02*
X173100000Y-149749999I0J-249999D01*
G01*
G37*
G36*
G01*
X175100000Y-149749999D02*
X175100000Y-150650001D01*
G75*
G02*
X174850001Y-150900000I-249999J0D01*
G01*
X174149999Y-150900000D01*
G75*
G02*
X173900000Y-150650001I0J249999D01*
G01*
X173900000Y-149749999D01*
G75*
G02*
X174149999Y-149500000I249999J0D01*
G01*
X174850001Y-149500000D01*
G75*
G02*
X175100000Y-149749999I0J-249999D01*
G01*
G37*
%TD*%
%TO.C,U3*%
G36*
G01*
X177505000Y-145325000D02*
X177805000Y-145325000D01*
G75*
G02*
X177955000Y-145475000I0J-150000D01*
G01*
X177955000Y-147225000D01*
G75*
G02*
X177805000Y-147375000I-150000J0D01*
G01*
X177505000Y-147375000D01*
G75*
G02*
X177355000Y-147225000I0J150000D01*
G01*
X177355000Y-145475000D01*
G75*
G02*
X177505000Y-145325000I150000J0D01*
G01*
G37*
G36*
G01*
X178775000Y-145325000D02*
X179075000Y-145325000D01*
G75*
G02*
X179225000Y-145475000I0J-150000D01*
G01*
X179225000Y-147225000D01*
G75*
G02*
X179075000Y-147375000I-150000J0D01*
G01*
X178775000Y-147375000D01*
G75*
G02*
X178625000Y-147225000I0J150000D01*
G01*
X178625000Y-145475000D01*
G75*
G02*
X178775000Y-145325000I150000J0D01*
G01*
G37*
G36*
G01*
X180045000Y-145325000D02*
X180345000Y-145325000D01*
G75*
G02*
X180495000Y-145475000I0J-150000D01*
G01*
X180495000Y-147225000D01*
G75*
G02*
X180345000Y-147375000I-150000J0D01*
G01*
X180045000Y-147375000D01*
G75*
G02*
X179895000Y-147225000I0J150000D01*
G01*
X179895000Y-145475000D01*
G75*
G02*
X180045000Y-145325000I150000J0D01*
G01*
G37*
G36*
G01*
X181315000Y-145325000D02*
X181615000Y-145325000D01*
G75*
G02*
X181765000Y-145475000I0J-150000D01*
G01*
X181765000Y-147225000D01*
G75*
G02*
X181615000Y-147375000I-150000J0D01*
G01*
X181315000Y-147375000D01*
G75*
G02*
X181165000Y-147225000I0J150000D01*
G01*
X181165000Y-145475000D01*
G75*
G02*
X181315000Y-145325000I150000J0D01*
G01*
G37*
G36*
G01*
X182585000Y-145325000D02*
X182885000Y-145325000D01*
G75*
G02*
X183035000Y-145475000I0J-150000D01*
G01*
X183035000Y-147225000D01*
G75*
G02*
X182885000Y-147375000I-150000J0D01*
G01*
X182585000Y-147375000D01*
G75*
G02*
X182435000Y-147225000I0J150000D01*
G01*
X182435000Y-145475000D01*
G75*
G02*
X182585000Y-145325000I150000J0D01*
G01*
G37*
G36*
G01*
X183855000Y-145325000D02*
X184155000Y-145325000D01*
G75*
G02*
X184305000Y-145475000I0J-150000D01*
G01*
X184305000Y-147225000D01*
G75*
G02*
X184155000Y-147375000I-150000J0D01*
G01*
X183855000Y-147375000D01*
G75*
G02*
X183705000Y-147225000I0J150000D01*
G01*
X183705000Y-145475000D01*
G75*
G02*
X183855000Y-145325000I150000J0D01*
G01*
G37*
G36*
G01*
X185125000Y-145325000D02*
X185425000Y-145325000D01*
G75*
G02*
X185575000Y-145475000I0J-150000D01*
G01*
X185575000Y-147225000D01*
G75*
G02*
X185425000Y-147375000I-150000J0D01*
G01*
X185125000Y-147375000D01*
G75*
G02*
X184975000Y-147225000I0J150000D01*
G01*
X184975000Y-145475000D01*
G75*
G02*
X185125000Y-145325000I150000J0D01*
G01*
G37*
G36*
G01*
X186395000Y-145325000D02*
X186695000Y-145325000D01*
G75*
G02*
X186845000Y-145475000I0J-150000D01*
G01*
X186845000Y-147225000D01*
G75*
G02*
X186695000Y-147375000I-150000J0D01*
G01*
X186395000Y-147375000D01*
G75*
G02*
X186245000Y-147225000I0J150000D01*
G01*
X186245000Y-145475000D01*
G75*
G02*
X186395000Y-145325000I150000J0D01*
G01*
G37*
G36*
G01*
X186395000Y-136025000D02*
X186695000Y-136025000D01*
G75*
G02*
X186845000Y-136175000I0J-150000D01*
G01*
X186845000Y-137925000D01*
G75*
G02*
X186695000Y-138075000I-150000J0D01*
G01*
X186395000Y-138075000D01*
G75*
G02*
X186245000Y-137925000I0J150000D01*
G01*
X186245000Y-136175000D01*
G75*
G02*
X186395000Y-136025000I150000J0D01*
G01*
G37*
G36*
G01*
X185125000Y-136025000D02*
X185425000Y-136025000D01*
G75*
G02*
X185575000Y-136175000I0J-150000D01*
G01*
X185575000Y-137925000D01*
G75*
G02*
X185425000Y-138075000I-150000J0D01*
G01*
X185125000Y-138075000D01*
G75*
G02*
X184975000Y-137925000I0J150000D01*
G01*
X184975000Y-136175000D01*
G75*
G02*
X185125000Y-136025000I150000J0D01*
G01*
G37*
G36*
G01*
X183855000Y-136025000D02*
X184155000Y-136025000D01*
G75*
G02*
X184305000Y-136175000I0J-150000D01*
G01*
X184305000Y-137925000D01*
G75*
G02*
X184155000Y-138075000I-150000J0D01*
G01*
X183855000Y-138075000D01*
G75*
G02*
X183705000Y-137925000I0J150000D01*
G01*
X183705000Y-136175000D01*
G75*
G02*
X183855000Y-136025000I150000J0D01*
G01*
G37*
G36*
G01*
X182585000Y-136025000D02*
X182885000Y-136025000D01*
G75*
G02*
X183035000Y-136175000I0J-150000D01*
G01*
X183035000Y-137925000D01*
G75*
G02*
X182885000Y-138075000I-150000J0D01*
G01*
X182585000Y-138075000D01*
G75*
G02*
X182435000Y-137925000I0J150000D01*
G01*
X182435000Y-136175000D01*
G75*
G02*
X182585000Y-136025000I150000J0D01*
G01*
G37*
G36*
G01*
X181315000Y-136025000D02*
X181615000Y-136025000D01*
G75*
G02*
X181765000Y-136175000I0J-150000D01*
G01*
X181765000Y-137925000D01*
G75*
G02*
X181615000Y-138075000I-150000J0D01*
G01*
X181315000Y-138075000D01*
G75*
G02*
X181165000Y-137925000I0J150000D01*
G01*
X181165000Y-136175000D01*
G75*
G02*
X181315000Y-136025000I150000J0D01*
G01*
G37*
G36*
G01*
X180045000Y-136025000D02*
X180345000Y-136025000D01*
G75*
G02*
X180495000Y-136175000I0J-150000D01*
G01*
X180495000Y-137925000D01*
G75*
G02*
X180345000Y-138075000I-150000J0D01*
G01*
X180045000Y-138075000D01*
G75*
G02*
X179895000Y-137925000I0J150000D01*
G01*
X179895000Y-136175000D01*
G75*
G02*
X180045000Y-136025000I150000J0D01*
G01*
G37*
G36*
G01*
X178775000Y-136025000D02*
X179075000Y-136025000D01*
G75*
G02*
X179225000Y-136175000I0J-150000D01*
G01*
X179225000Y-137925000D01*
G75*
G02*
X179075000Y-138075000I-150000J0D01*
G01*
X178775000Y-138075000D01*
G75*
G02*
X178625000Y-137925000I0J150000D01*
G01*
X178625000Y-136175000D01*
G75*
G02*
X178775000Y-136025000I150000J0D01*
G01*
G37*
G36*
G01*
X177505000Y-136025000D02*
X177805000Y-136025000D01*
G75*
G02*
X177955000Y-136175000I0J-150000D01*
G01*
X177955000Y-137925000D01*
G75*
G02*
X177805000Y-138075000I-150000J0D01*
G01*
X177505000Y-138075000D01*
G75*
G02*
X177355000Y-137925000I0J150000D01*
G01*
X177355000Y-136175000D01*
G75*
G02*
X177505000Y-136025000I150000J0D01*
G01*
G37*
%TD*%
D17*
%TO.C,SW1*%
X144300000Y-89603800D03*
X144300000Y-84600000D03*
%TD*%
D18*
%TO.C,J4*%
X148500000Y-62600000D03*
G36*
G01*
X149250000Y-65950000D02*
X147750000Y-65950000D01*
G75*
G02*
X147500000Y-65700000I0J250000D01*
G01*
X147500000Y-64500000D01*
G75*
G02*
X147750000Y-64250000I250000J0D01*
G01*
X149250000Y-64250000D01*
G75*
G02*
X149500000Y-64500000I0J-250000D01*
G01*
X149500000Y-65700000D01*
G75*
G02*
X149250000Y-65950000I-250000J0D01*
G01*
G37*
%TD*%
D19*
%TO.C,J3*%
X140200000Y-119700000D03*
G36*
G01*
X143550000Y-118950000D02*
X143550000Y-120450000D01*
G75*
G02*
X143300000Y-120700000I-250000J0D01*
G01*
X142100000Y-120700000D01*
G75*
G02*
X141850000Y-120450000I0J250000D01*
G01*
X141850000Y-118950000D01*
G75*
G02*
X142100000Y-118700000I250000J0D01*
G01*
X143300000Y-118700000D01*
G75*
G02*
X143550000Y-118950000I0J-250000D01*
G01*
G37*
%TD*%
D20*
%TO.C,J2*%
X144900000Y-141400000D03*
X147400000Y-141400000D03*
X149900000Y-141400000D03*
G36*
G01*
X153250000Y-140675000D02*
X153250000Y-142125000D01*
G75*
G02*
X153000000Y-142375000I-250000J0D01*
G01*
X151800000Y-142375000D01*
G75*
G02*
X151550000Y-142125000I0J250000D01*
G01*
X151550000Y-140675000D01*
G75*
G02*
X151800000Y-140425000I250000J0D01*
G01*
X153000000Y-140425000D01*
G75*
G02*
X153250000Y-140675000I0J-250000D01*
G01*
G37*
%TD*%
D21*
%TO.C,H8*%
X193000000Y-132000000D03*
%TD*%
%TO.C,H7*%
X193000000Y-94000000D03*
%TD*%
%TO.C,H6*%
X137000000Y-132000000D03*
%TD*%
%TO.C,H5*%
X137000000Y-94000000D03*
%TD*%
D22*
%TO.C,J1*%
X181520000Y-72000000D03*
X178980000Y-72000000D03*
X176440000Y-72000000D03*
X173900000Y-72000000D03*
X171360000Y-72000000D03*
X168820000Y-72000000D03*
X166280000Y-72000000D03*
X163740000Y-72000000D03*
X161200000Y-72000000D03*
X158660000Y-72000000D03*
X156120000Y-72000000D03*
X153580000Y-72000000D03*
X151040000Y-72000000D03*
D23*
X148500000Y-72000000D03*
%TD*%
D21*
%TO.C,H4*%
X187000000Y-76900000D03*
%TD*%
%TO.C,H3*%
X187000000Y-153000000D03*
%TD*%
%TO.C,H2*%
X143000000Y-76900000D03*
%TD*%
%TO.C,H1*%
X143000000Y-153000000D03*
%TD*%
M02*
