%TF.GenerationSoftware,KiCad,Pcbnew,(5.1.10)-1*%
%TF.CreationDate,2023-09-30T19:16:06-07:00*%
%TF.ProjectId,PacmanClock_ESP32_SPI_v1_6,5061636d-616e-4436-9c6f-636b5f455350,1.6*%
%TF.SameCoordinates,Original*%
%TF.FileFunction,Copper,L2,Bot*%
%TF.FilePolarity,Positive*%
%FSLAX46Y46*%
G04 Gerber Fmt 4.6, Leading zero omitted, Abs format (unit mm)*
G04 Created by KiCad (PCBNEW (5.1.10)-1) date 2023-09-30 19:16:06*
%MOMM*%
%LPD*%
G01*
G04 APERTURE LIST*
%TA.AperFunction,ComponentPad*%
%ADD10R,2.000000X2.000000*%
%TD*%
%TA.AperFunction,ComponentPad*%
%ADD11C,1.600000*%
%TD*%
%TA.AperFunction,ComponentPad*%
%ADD12R,1.600000X1.600000*%
%TD*%
%TA.AperFunction,ComponentPad*%
%ADD13C,1.200000*%
%TD*%
%TA.AperFunction,ComponentPad*%
%ADD14R,1.200000X1.200000*%
%TD*%
%TA.AperFunction,ComponentPad*%
%ADD15C,1.524000*%
%TD*%
%TA.AperFunction,SMDPad,CuDef*%
%ADD16R,0.900000X1.200000*%
%TD*%
%TA.AperFunction,ComponentPad*%
%ADD17C,1.498600*%
%TD*%
%TA.AperFunction,ComponentPad*%
%ADD18O,2.000000X1.700000*%
%TD*%
%TA.AperFunction,ComponentPad*%
%ADD19O,1.700000X2.000000*%
%TD*%
%TA.AperFunction,ComponentPad*%
%ADD20O,1.700000X1.950000*%
%TD*%
%TA.AperFunction,ComponentPad*%
%ADD21O,1.700000X1.700000*%
%TD*%
%TA.AperFunction,ComponentPad*%
%ADD22R,1.700000X1.700000*%
%TD*%
%TA.AperFunction,ViaPad*%
%ADD23C,0.800000*%
%TD*%
%TA.AperFunction,Conductor*%
%ADD24C,0.250000*%
%TD*%
%TA.AperFunction,Conductor*%
%ADD25C,0.750000*%
%TD*%
%TA.AperFunction,Conductor*%
%ADD26C,0.254000*%
%TD*%
%TA.AperFunction,Conductor*%
%ADD27C,0.100000*%
%TD*%
G04 APERTURE END LIST*
D10*
%TO.P,BT1,1*%
%TO.N,Net-(BT1-Pad1)*%
X192000000Y-138700000D03*
%TO.P,BT1,2*%
%TO.N,GND*%
X172000000Y-138700000D03*
%TD*%
%TO.P,C4,2*%
%TO.N,GND*%
%TA.AperFunction,SMDPad,CuDef*%
G36*
G01*
X174500000Y-133049998D02*
X174500000Y-134350002D01*
G75*
G02*
X174250002Y-134600000I-249998J0D01*
G01*
X173424998Y-134600000D01*
G75*
G02*
X173175000Y-134350002I0J249998D01*
G01*
X173175000Y-133049998D01*
G75*
G02*
X173424998Y-132800000I249998J0D01*
G01*
X174250002Y-132800000D01*
G75*
G02*
X174500000Y-133049998I0J-249998D01*
G01*
G37*
%TD.AperFunction*%
%TO.P,C4,1*%
%TO.N,+3V3*%
%TA.AperFunction,SMDPad,CuDef*%
G36*
G01*
X177625000Y-133049998D02*
X177625000Y-134350002D01*
G75*
G02*
X177375002Y-134600000I-249998J0D01*
G01*
X176549998Y-134600000D01*
G75*
G02*
X176300000Y-134350002I0J249998D01*
G01*
X176300000Y-133049998D01*
G75*
G02*
X176549998Y-132800000I249998J0D01*
G01*
X177375002Y-132800000D01*
G75*
G02*
X177625000Y-133049998I0J-249998D01*
G01*
G37*
%TD.AperFunction*%
%TD*%
D11*
%TO.P,C3,2*%
%TO.N,GND*%
X145400000Y-128300000D03*
D12*
%TO.P,C3,1*%
%TO.N,+5V*%
X148900000Y-128300000D03*
%TD*%
D13*
%TO.P,C5,2*%
%TO.N,GND*%
X147400000Y-114100000D03*
D14*
%TO.P,C5,1*%
%TO.N,+5V*%
X147400000Y-112600000D03*
%TD*%
D15*
%TO.P,U2,30*%
%TO.N,/MOSI*%
X177700000Y-80900000D03*
%TO.P,U2,29*%
%TO.N,SCL*%
X177700000Y-83440000D03*
%TO.P,U2,28*%
%TO.N,Net-(U2-Pad28)*%
X177700000Y-85980000D03*
%TO.P,U2,27*%
%TO.N,Net-(U2-Pad27)*%
X177700000Y-88520000D03*
%TO.P,U2,26*%
%TO.N,SDA*%
X177700000Y-91060000D03*
%TO.P,U2,25*%
%TO.N,/MISO*%
X177700000Y-93600000D03*
%TO.P,U2,24*%
%TO.N,/SCK*%
X177700000Y-96140000D03*
%TO.P,U2,23*%
%TO.N,/TOUCH_CS*%
X177700000Y-98680000D03*
%TO.P,U2,22*%
%TO.N,Net-(U2-Pad22)*%
X177700000Y-101220000D03*
%TO.P,U2,21*%
%TO.N,Net-(U2-Pad21)*%
X177700000Y-103760000D03*
%TO.P,U2,20*%
%TO.N,/TFT_DC*%
X177700000Y-106300000D03*
%TO.P,U2,19*%
%TO.N,/TFT_RESET*%
X177700000Y-108840000D03*
%TO.P,U2,18*%
%TO.N,/TFT_CS*%
X177700000Y-111380000D03*
%TO.P,U2,17*%
%TO.N,GND*%
X177700000Y-113920000D03*
%TO.P,U2,16*%
%TO.N,+3V3*%
X177700000Y-116460000D03*
%TO.P,U2,1*%
%TO.N,Net-(U2-Pad1)*%
X152300000Y-80900000D03*
%TO.P,U2,15*%
%TO.N,+5V*%
X152300000Y-116460000D03*
%TO.P,U2,14*%
%TO.N,GND*%
X152300000Y-113920000D03*
%TO.P,U2,13*%
%TO.N,Net-(U2-Pad13)*%
X152300000Y-111380000D03*
%TO.P,U2,12*%
%TO.N,Net-(U2-Pad12)*%
X152300000Y-108840000D03*
%TO.P,U2,11*%
%TO.N,Net-(U2-Pad11)*%
X152300000Y-106300000D03*
%TO.P,U2,10*%
%TO.N,Net-(U2-Pad10)*%
X152300000Y-103760000D03*
%TO.P,U2,9*%
%TO.N,TFT_LED*%
X152300000Y-101220000D03*
%TO.P,U2,8*%
%TO.N,AudioOut*%
X152300000Y-98680000D03*
%TO.P,U2,7*%
%TO.N,TouchInt*%
X152300000Y-96140000D03*
%TO.P,U2,6*%
%TO.N,AudioMute*%
X152300000Y-93600000D03*
%TO.P,U2,5*%
%TO.N,RTC_INT*%
X152300000Y-91060000D03*
%TO.P,U2,4*%
%TO.N,Net-(R7-Pad2)*%
X152300000Y-88520000D03*
%TO.P,U2,3*%
%TO.N,Net-(J4-Pad1)*%
X152300000Y-85980000D03*
%TO.P,U2,2*%
%TO.N,Net-(U2-Pad2)*%
X152300000Y-83440000D03*
%TD*%
D16*
%TO.P,D1,2*%
%TO.N,Net-(D1-Pad2)*%
X176950000Y-150100000D03*
%TO.P,D1,1*%
%TO.N,Net-(BT1-Pad1)*%
X180250000Y-150100000D03*
%TD*%
%TO.P,C8,2*%
%TO.N,GND*%
%TA.AperFunction,SMDPad,CuDef*%
G36*
G01*
X174850000Y-129625000D02*
X174850000Y-130575000D01*
G75*
G02*
X174600000Y-130825000I-250000J0D01*
G01*
X173925000Y-130825000D01*
G75*
G02*
X173675000Y-130575000I0J250000D01*
G01*
X173675000Y-129625000D01*
G75*
G02*
X173925000Y-129375000I250000J0D01*
G01*
X174600000Y-129375000D01*
G75*
G02*
X174850000Y-129625000I0J-250000D01*
G01*
G37*
%TD.AperFunction*%
%TO.P,C8,1*%
%TO.N,+3V3*%
%TA.AperFunction,SMDPad,CuDef*%
G36*
G01*
X176925000Y-129625000D02*
X176925000Y-130575000D01*
G75*
G02*
X176675000Y-130825000I-250000J0D01*
G01*
X176000000Y-130825000D01*
G75*
G02*
X175750000Y-130575000I0J250000D01*
G01*
X175750000Y-129625000D01*
G75*
G02*
X176000000Y-129375000I250000J0D01*
G01*
X176675000Y-129375000D01*
G75*
G02*
X176925000Y-129625000I0J-250000D01*
G01*
G37*
%TD.AperFunction*%
%TD*%
%TO.P,R12,2*%
%TO.N,+5V*%
%TA.AperFunction,SMDPad,CuDef*%
G36*
G01*
X173100000Y-149749999D02*
X173100000Y-150650001D01*
G75*
G02*
X172850001Y-150900000I-249999J0D01*
G01*
X172149999Y-150900000D01*
G75*
G02*
X171900000Y-150650001I0J249999D01*
G01*
X171900000Y-149749999D01*
G75*
G02*
X172149999Y-149500000I249999J0D01*
G01*
X172850001Y-149500000D01*
G75*
G02*
X173100000Y-149749999I0J-249999D01*
G01*
G37*
%TD.AperFunction*%
%TO.P,R12,1*%
%TO.N,Net-(D1-Pad2)*%
%TA.AperFunction,SMDPad,CuDef*%
G36*
G01*
X175100000Y-149749999D02*
X175100000Y-150650001D01*
G75*
G02*
X174850001Y-150900000I-249999J0D01*
G01*
X174149999Y-150900000D01*
G75*
G02*
X173900000Y-150650001I0J249999D01*
G01*
X173900000Y-149749999D01*
G75*
G02*
X174149999Y-149500000I249999J0D01*
G01*
X174850001Y-149500000D01*
G75*
G02*
X175100000Y-149749999I0J-249999D01*
G01*
G37*
%TD.AperFunction*%
%TD*%
%TO.P,U3,16*%
%TO.N,SCL*%
%TA.AperFunction,SMDPad,CuDef*%
G36*
G01*
X177505000Y-145325000D02*
X177805000Y-145325000D01*
G75*
G02*
X177955000Y-145475000I0J-150000D01*
G01*
X177955000Y-147225000D01*
G75*
G02*
X177805000Y-147375000I-150000J0D01*
G01*
X177505000Y-147375000D01*
G75*
G02*
X177355000Y-147225000I0J150000D01*
G01*
X177355000Y-145475000D01*
G75*
G02*
X177505000Y-145325000I150000J0D01*
G01*
G37*
%TD.AperFunction*%
%TO.P,U3,15*%
%TO.N,SDA*%
%TA.AperFunction,SMDPad,CuDef*%
G36*
G01*
X178775000Y-145325000D02*
X179075000Y-145325000D01*
G75*
G02*
X179225000Y-145475000I0J-150000D01*
G01*
X179225000Y-147225000D01*
G75*
G02*
X179075000Y-147375000I-150000J0D01*
G01*
X178775000Y-147375000D01*
G75*
G02*
X178625000Y-147225000I0J150000D01*
G01*
X178625000Y-145475000D01*
G75*
G02*
X178775000Y-145325000I150000J0D01*
G01*
G37*
%TD.AperFunction*%
%TO.P,U3,14*%
%TO.N,Net-(BT1-Pad1)*%
%TA.AperFunction,SMDPad,CuDef*%
G36*
G01*
X180045000Y-145325000D02*
X180345000Y-145325000D01*
G75*
G02*
X180495000Y-145475000I0J-150000D01*
G01*
X180495000Y-147225000D01*
G75*
G02*
X180345000Y-147375000I-150000J0D01*
G01*
X180045000Y-147375000D01*
G75*
G02*
X179895000Y-147225000I0J150000D01*
G01*
X179895000Y-145475000D01*
G75*
G02*
X180045000Y-145325000I150000J0D01*
G01*
G37*
%TD.AperFunction*%
%TO.P,U3,13*%
%TO.N,GND*%
%TA.AperFunction,SMDPad,CuDef*%
G36*
G01*
X181315000Y-145325000D02*
X181615000Y-145325000D01*
G75*
G02*
X181765000Y-145475000I0J-150000D01*
G01*
X181765000Y-147225000D01*
G75*
G02*
X181615000Y-147375000I-150000J0D01*
G01*
X181315000Y-147375000D01*
G75*
G02*
X181165000Y-147225000I0J150000D01*
G01*
X181165000Y-145475000D01*
G75*
G02*
X181315000Y-145325000I150000J0D01*
G01*
G37*
%TD.AperFunction*%
%TO.P,U3,12*%
%TA.AperFunction,SMDPad,CuDef*%
G36*
G01*
X182585000Y-145325000D02*
X182885000Y-145325000D01*
G75*
G02*
X183035000Y-145475000I0J-150000D01*
G01*
X183035000Y-147225000D01*
G75*
G02*
X182885000Y-147375000I-150000J0D01*
G01*
X182585000Y-147375000D01*
G75*
G02*
X182435000Y-147225000I0J150000D01*
G01*
X182435000Y-145475000D01*
G75*
G02*
X182585000Y-145325000I150000J0D01*
G01*
G37*
%TD.AperFunction*%
%TO.P,U3,11*%
%TA.AperFunction,SMDPad,CuDef*%
G36*
G01*
X183855000Y-145325000D02*
X184155000Y-145325000D01*
G75*
G02*
X184305000Y-145475000I0J-150000D01*
G01*
X184305000Y-147225000D01*
G75*
G02*
X184155000Y-147375000I-150000J0D01*
G01*
X183855000Y-147375000D01*
G75*
G02*
X183705000Y-147225000I0J150000D01*
G01*
X183705000Y-145475000D01*
G75*
G02*
X183855000Y-145325000I150000J0D01*
G01*
G37*
%TD.AperFunction*%
%TO.P,U3,10*%
%TA.AperFunction,SMDPad,CuDef*%
G36*
G01*
X185125000Y-145325000D02*
X185425000Y-145325000D01*
G75*
G02*
X185575000Y-145475000I0J-150000D01*
G01*
X185575000Y-147225000D01*
G75*
G02*
X185425000Y-147375000I-150000J0D01*
G01*
X185125000Y-147375000D01*
G75*
G02*
X184975000Y-147225000I0J150000D01*
G01*
X184975000Y-145475000D01*
G75*
G02*
X185125000Y-145325000I150000J0D01*
G01*
G37*
%TD.AperFunction*%
%TO.P,U3,9*%
%TA.AperFunction,SMDPad,CuDef*%
G36*
G01*
X186395000Y-145325000D02*
X186695000Y-145325000D01*
G75*
G02*
X186845000Y-145475000I0J-150000D01*
G01*
X186845000Y-147225000D01*
G75*
G02*
X186695000Y-147375000I-150000J0D01*
G01*
X186395000Y-147375000D01*
G75*
G02*
X186245000Y-147225000I0J150000D01*
G01*
X186245000Y-145475000D01*
G75*
G02*
X186395000Y-145325000I150000J0D01*
G01*
G37*
%TD.AperFunction*%
%TO.P,U3,8*%
%TA.AperFunction,SMDPad,CuDef*%
G36*
G01*
X186395000Y-136025000D02*
X186695000Y-136025000D01*
G75*
G02*
X186845000Y-136175000I0J-150000D01*
G01*
X186845000Y-137925000D01*
G75*
G02*
X186695000Y-138075000I-150000J0D01*
G01*
X186395000Y-138075000D01*
G75*
G02*
X186245000Y-137925000I0J150000D01*
G01*
X186245000Y-136175000D01*
G75*
G02*
X186395000Y-136025000I150000J0D01*
G01*
G37*
%TD.AperFunction*%
%TO.P,U3,7*%
%TA.AperFunction,SMDPad,CuDef*%
G36*
G01*
X185125000Y-136025000D02*
X185425000Y-136025000D01*
G75*
G02*
X185575000Y-136175000I0J-150000D01*
G01*
X185575000Y-137925000D01*
G75*
G02*
X185425000Y-138075000I-150000J0D01*
G01*
X185125000Y-138075000D01*
G75*
G02*
X184975000Y-137925000I0J150000D01*
G01*
X184975000Y-136175000D01*
G75*
G02*
X185125000Y-136025000I150000J0D01*
G01*
G37*
%TD.AperFunction*%
%TO.P,U3,6*%
%TA.AperFunction,SMDPad,CuDef*%
G36*
G01*
X183855000Y-136025000D02*
X184155000Y-136025000D01*
G75*
G02*
X184305000Y-136175000I0J-150000D01*
G01*
X184305000Y-137925000D01*
G75*
G02*
X184155000Y-138075000I-150000J0D01*
G01*
X183855000Y-138075000D01*
G75*
G02*
X183705000Y-137925000I0J150000D01*
G01*
X183705000Y-136175000D01*
G75*
G02*
X183855000Y-136025000I150000J0D01*
G01*
G37*
%TD.AperFunction*%
%TO.P,U3,5*%
%TA.AperFunction,SMDPad,CuDef*%
G36*
G01*
X182585000Y-136025000D02*
X182885000Y-136025000D01*
G75*
G02*
X183035000Y-136175000I0J-150000D01*
G01*
X183035000Y-137925000D01*
G75*
G02*
X182885000Y-138075000I-150000J0D01*
G01*
X182585000Y-138075000D01*
G75*
G02*
X182435000Y-137925000I0J150000D01*
G01*
X182435000Y-136175000D01*
G75*
G02*
X182585000Y-136025000I150000J0D01*
G01*
G37*
%TD.AperFunction*%
%TO.P,U3,4*%
%TO.N,Net-(U3-Pad4)*%
%TA.AperFunction,SMDPad,CuDef*%
G36*
G01*
X181315000Y-136025000D02*
X181615000Y-136025000D01*
G75*
G02*
X181765000Y-136175000I0J-150000D01*
G01*
X181765000Y-137925000D01*
G75*
G02*
X181615000Y-138075000I-150000J0D01*
G01*
X181315000Y-138075000D01*
G75*
G02*
X181165000Y-137925000I0J150000D01*
G01*
X181165000Y-136175000D01*
G75*
G02*
X181315000Y-136025000I150000J0D01*
G01*
G37*
%TD.AperFunction*%
%TO.P,U3,3*%
%TO.N,RTC_INT*%
%TA.AperFunction,SMDPad,CuDef*%
G36*
G01*
X180045000Y-136025000D02*
X180345000Y-136025000D01*
G75*
G02*
X180495000Y-136175000I0J-150000D01*
G01*
X180495000Y-137925000D01*
G75*
G02*
X180345000Y-138075000I-150000J0D01*
G01*
X180045000Y-138075000D01*
G75*
G02*
X179895000Y-137925000I0J150000D01*
G01*
X179895000Y-136175000D01*
G75*
G02*
X180045000Y-136025000I150000J0D01*
G01*
G37*
%TD.AperFunction*%
%TO.P,U3,2*%
%TO.N,+3V3*%
%TA.AperFunction,SMDPad,CuDef*%
G36*
G01*
X178775000Y-136025000D02*
X179075000Y-136025000D01*
G75*
G02*
X179225000Y-136175000I0J-150000D01*
G01*
X179225000Y-137925000D01*
G75*
G02*
X179075000Y-138075000I-150000J0D01*
G01*
X178775000Y-138075000D01*
G75*
G02*
X178625000Y-137925000I0J150000D01*
G01*
X178625000Y-136175000D01*
G75*
G02*
X178775000Y-136025000I150000J0D01*
G01*
G37*
%TD.AperFunction*%
%TO.P,U3,1*%
%TO.N,Net-(U3-Pad1)*%
%TA.AperFunction,SMDPad,CuDef*%
G36*
G01*
X177505000Y-136025000D02*
X177805000Y-136025000D01*
G75*
G02*
X177955000Y-136175000I0J-150000D01*
G01*
X177955000Y-137925000D01*
G75*
G02*
X177805000Y-138075000I-150000J0D01*
G01*
X177505000Y-138075000D01*
G75*
G02*
X177355000Y-137925000I0J150000D01*
G01*
X177355000Y-136175000D01*
G75*
G02*
X177505000Y-136025000I150000J0D01*
G01*
G37*
%TD.AperFunction*%
%TD*%
D17*
%TO.P,SW1,2*%
%TO.N,Net-(R7-Pad2)*%
X144300000Y-89603800D03*
%TO.P,SW1,1*%
%TO.N,GND*%
X144300000Y-84600000D03*
%TD*%
D18*
%TO.P,J4,2*%
%TO.N,GND*%
X148500000Y-62600000D03*
%TO.P,J4,1*%
%TO.N,Net-(J4-Pad1)*%
%TA.AperFunction,ComponentPad*%
G36*
G01*
X149250000Y-65950000D02*
X147750000Y-65950000D01*
G75*
G02*
X147500000Y-65700000I0J250000D01*
G01*
X147500000Y-64500000D01*
G75*
G02*
X147750000Y-64250000I250000J0D01*
G01*
X149250000Y-64250000D01*
G75*
G02*
X149500000Y-64500000I0J-250000D01*
G01*
X149500000Y-65700000D01*
G75*
G02*
X149250000Y-65950000I-250000J0D01*
G01*
G37*
%TD.AperFunction*%
%TD*%
D19*
%TO.P,J3,2*%
%TO.N,Net-(J3-Pad2)*%
X140200000Y-119700000D03*
%TO.P,J3,1*%
%TO.N,Net-(J3-Pad1)*%
%TA.AperFunction,ComponentPad*%
G36*
G01*
X143550000Y-118950000D02*
X143550000Y-120450000D01*
G75*
G02*
X143300000Y-120700000I-250000J0D01*
G01*
X142100000Y-120700000D01*
G75*
G02*
X141850000Y-120450000I0J250000D01*
G01*
X141850000Y-118950000D01*
G75*
G02*
X142100000Y-118700000I250000J0D01*
G01*
X143300000Y-118700000D01*
G75*
G02*
X143550000Y-118950000I0J-250000D01*
G01*
G37*
%TD.AperFunction*%
%TD*%
D20*
%TO.P,J2,4*%
%TO.N,GND*%
X144900000Y-141400000D03*
%TO.P,J2,3*%
%TO.N,Net-(J2-Pad3)*%
X147400000Y-141400000D03*
%TO.P,J2,2*%
%TO.N,Net-(J2-Pad2)*%
X149900000Y-141400000D03*
%TO.P,J2,1*%
%TO.N,+5V*%
%TA.AperFunction,ComponentPad*%
G36*
G01*
X153250000Y-140675000D02*
X153250000Y-142125000D01*
G75*
G02*
X153000000Y-142375000I-250000J0D01*
G01*
X151800000Y-142375000D01*
G75*
G02*
X151550000Y-142125000I0J250000D01*
G01*
X151550000Y-140675000D01*
G75*
G02*
X151800000Y-140425000I250000J0D01*
G01*
X153000000Y-140425000D01*
G75*
G02*
X153250000Y-140675000I0J-250000D01*
G01*
G37*
%TD.AperFunction*%
%TD*%
D21*
%TO.P,J1,14*%
%TO.N,TouchInt*%
X181520000Y-72000000D03*
%TO.P,J1,13*%
%TO.N,/MISO*%
X178980000Y-72000000D03*
%TO.P,J1,12*%
%TO.N,/MOSI*%
X176440000Y-72000000D03*
%TO.P,J1,11*%
%TO.N,/TOUCH_CS*%
X173900000Y-72000000D03*
%TO.P,J1,10*%
%TO.N,/SCK*%
X171360000Y-72000000D03*
%TO.P,J1,9*%
%TO.N,Net-(J1-Pad9)*%
X168820000Y-72000000D03*
%TO.P,J1,8*%
%TO.N,TFT_LED*%
X166280000Y-72000000D03*
%TO.P,J1,7*%
%TO.N,/SCK*%
X163740000Y-72000000D03*
%TO.P,J1,6*%
%TO.N,/MOSI*%
X161200000Y-72000000D03*
%TO.P,J1,5*%
%TO.N,/TFT_DC*%
X158660000Y-72000000D03*
%TO.P,J1,4*%
%TO.N,/TFT_RESET*%
X156120000Y-72000000D03*
%TO.P,J1,3*%
%TO.N,/TFT_CS*%
X153580000Y-72000000D03*
%TO.P,J1,2*%
%TO.N,GND*%
X151040000Y-72000000D03*
D22*
%TO.P,J1,1*%
%TO.N,+5V*%
X148500000Y-72000000D03*
%TD*%
D23*
%TO.N,GND*%
X147000000Y-75700000D03*
X147000000Y-77000000D03*
X147000000Y-78200000D03*
X151000000Y-75700000D03*
X151000000Y-77000000D03*
X151000000Y-78200000D03*
X146900000Y-102000000D03*
X142100000Y-107600000D03*
X141000000Y-116200000D03*
%TO.N,+5V*%
X142600000Y-112600000D03*
X168900000Y-150400000D03*
%TO.N,/TOUCH_CS*%
X173900000Y-93600000D03*
%TO.N,TFT_LED*%
X166400000Y-96200000D03*
%TO.N,+3V3*%
X178925000Y-130024998D03*
X184000000Y-127300000D03*
%TO.N,AudioMute*%
X144600000Y-97200000D03*
X144600000Y-104400000D03*
%TO.N,TouchInt*%
X168000000Y-92700000D03*
X169600000Y-78900000D03*
%TO.N,SDA*%
X180500000Y-142300000D03*
%TO.N,SCL*%
X181600000Y-140800000D03*
%TO.N,RTC_INT*%
X180195000Y-134895000D03*
X159800000Y-102400000D03*
%TD*%
D24*
%TO.N,GND*%
X143400000Y-106900000D02*
X142200000Y-106900000D01*
X142200000Y-106600000D02*
X142200000Y-107900000D01*
X142000000Y-106900000D02*
X141100000Y-106900000D01*
D25*
%TO.N,+5V*%
X148500000Y-72000000D02*
X148500000Y-77400000D01*
X148500000Y-77400000D02*
X149100000Y-78000000D01*
X151360000Y-116460000D02*
X152300000Y-116460000D01*
X149100000Y-114200000D02*
X151360000Y-116460000D01*
X149000000Y-112600000D02*
X149100000Y-112500000D01*
X142600000Y-112600000D02*
X149000000Y-112600000D01*
X149100000Y-112500000D02*
X149100000Y-114200000D01*
X149100000Y-78000000D02*
X149100000Y-112500000D01*
X172300000Y-150400000D02*
X172500000Y-150200000D01*
X168900000Y-150400000D02*
X172300000Y-150400000D01*
D24*
%TO.N,/MISO*%
X178980000Y-72000000D02*
X178980000Y-75580000D01*
X177700000Y-93600000D02*
X181300000Y-93600000D01*
X181300000Y-93600000D02*
X182400000Y-92500000D01*
X182400000Y-79000000D02*
X180150000Y-76750000D01*
X182400000Y-92500000D02*
X182400000Y-79000000D01*
X180150000Y-76750000D02*
X180300000Y-76900000D01*
X178980000Y-75580000D02*
X180150000Y-76750000D01*
%TO.N,/MOSI*%
X177700000Y-80900000D02*
X177700000Y-79100000D01*
X176440000Y-77840000D02*
X176440000Y-72000000D01*
X177700000Y-79100000D02*
X176440000Y-77840000D01*
%TO.N,/TOUCH_CS*%
X173900000Y-72000000D02*
X173900000Y-93600000D01*
%TO.N,/SCK*%
X177700000Y-96140000D02*
X173840000Y-96140000D01*
X171360000Y-93660000D02*
X171360000Y-72000000D01*
X173840000Y-96140000D02*
X171360000Y-93660000D01*
%TO.N,TFT_LED*%
X166280000Y-96080000D02*
X166400000Y-96200000D01*
X166280000Y-72000000D02*
X166280000Y-96080000D01*
%TO.N,/TFT_DC*%
X177700000Y-106300000D02*
X174000000Y-106300000D01*
X174000000Y-106300000D02*
X163900000Y-96200000D01*
X163900000Y-96200000D02*
X163900000Y-84000000D01*
X163900000Y-84000000D02*
X158660000Y-78760000D01*
X158660000Y-78760000D02*
X158660000Y-72000000D01*
%TO.N,/TFT_RESET*%
X177700000Y-108840000D02*
X174040000Y-108840000D01*
X174040000Y-108840000D02*
X162400000Y-97200000D01*
X162400000Y-97200000D02*
X162400000Y-84000000D01*
X162400000Y-84000000D02*
X156120000Y-77720000D01*
X156120000Y-77720000D02*
X156120000Y-72000000D01*
%TO.N,/TFT_CS*%
X177700000Y-111380000D02*
X173080000Y-111380000D01*
X173080000Y-111380000D02*
X160900000Y-99200000D01*
X160900000Y-99200000D02*
X160900000Y-84400000D01*
X160900000Y-84400000D02*
X153580000Y-77080000D01*
X153580000Y-77080000D02*
X153580000Y-72000000D01*
D25*
%TO.N,+3V3*%
X178925000Y-133475000D02*
X178925000Y-130024998D01*
X178925000Y-137050000D02*
X178925000Y-133475000D01*
X178849998Y-130100000D02*
X178925000Y-130024998D01*
X176337500Y-130100000D02*
X178849998Y-130100000D01*
X184000000Y-127300000D02*
X179800000Y-127300000D01*
X178925000Y-128175000D02*
X178925000Y-130024998D01*
X179800000Y-127300000D02*
X178925000Y-128175000D01*
X178700000Y-133700000D02*
X178925000Y-133475000D01*
X176962500Y-133700000D02*
X178700000Y-133700000D01*
D24*
%TO.N,AudioMute*%
X144600000Y-97200000D02*
X144600000Y-104400000D01*
%TO.N,Net-(BT1-Pad1)*%
X180250000Y-146405000D02*
X180195000Y-146350000D01*
X180250000Y-150100000D02*
X180250000Y-146405000D01*
X192000000Y-139700000D02*
X192000000Y-138700000D01*
X189400000Y-142300000D02*
X192000000Y-139700000D01*
X182300000Y-142300000D02*
X189400000Y-142300000D01*
X180195000Y-144405000D02*
X182300000Y-142300000D01*
X180195000Y-146350000D02*
X180195000Y-144405000D01*
%TO.N,Net-(D1-Pad2)*%
X174600000Y-150100000D02*
X174500000Y-150200000D01*
X176950000Y-150100000D02*
X174600000Y-150100000D01*
%TO.N,TouchInt*%
X168000000Y-92700000D02*
X169600000Y-91100000D01*
X169600000Y-91100000D02*
X169600000Y-78900000D01*
%TO.N,SDA*%
X178925000Y-146350000D02*
X178925000Y-143875000D01*
X178925000Y-143875000D02*
X180500000Y-142300000D01*
%TO.N,SCL*%
X177655000Y-146350000D02*
X177655000Y-142845000D01*
X177655000Y-142845000D02*
X179700000Y-140800000D01*
X179700000Y-140800000D02*
X181600000Y-140800000D01*
%TO.N,RTC_INT*%
X180195000Y-137050000D02*
X180195000Y-134895000D01*
X152300000Y-91060000D02*
X157660000Y-91060000D01*
X157660000Y-91060000D02*
X159800000Y-93200000D01*
X159800000Y-93200000D02*
X159800000Y-102400000D01*
%TD*%
D26*
%TO.N,GND*%
X147490000Y-74595027D02*
X147490001Y-77350382D01*
X147485114Y-77400000D01*
X147504615Y-77597994D01*
X147562368Y-77788379D01*
X147609915Y-77877333D01*
X147656154Y-77963840D01*
X147782368Y-78117633D01*
X147820902Y-78149257D01*
X148090000Y-78418355D01*
X148090001Y-111370792D01*
X148000000Y-111361928D01*
X146800000Y-111361928D01*
X146675518Y-111374188D01*
X146555820Y-111410498D01*
X146445506Y-111469463D01*
X146348815Y-111548815D01*
X146315015Y-111590000D01*
X142827623Y-111590000D01*
X142701939Y-111565000D01*
X142498061Y-111565000D01*
X142298102Y-111604774D01*
X142109744Y-111682795D01*
X141940226Y-111796063D01*
X141796063Y-111940226D01*
X141682795Y-112109744D01*
X141604774Y-112298102D01*
X141565000Y-112498061D01*
X141565000Y-112701939D01*
X141604774Y-112901898D01*
X141682795Y-113090256D01*
X141796063Y-113259774D01*
X141940226Y-113403937D01*
X142109744Y-113517205D01*
X142298102Y-113595226D01*
X142498061Y-113635000D01*
X142701939Y-113635000D01*
X142827623Y-113610000D01*
X146266104Y-113610000D01*
X146225763Y-113698516D01*
X146170000Y-113935313D01*
X146161505Y-114178438D01*
X146200605Y-114418549D01*
X146285798Y-114646418D01*
X146326652Y-114722852D01*
X146550236Y-114770159D01*
X147220395Y-114100000D01*
X147206253Y-114085858D01*
X147385858Y-113906253D01*
X147400000Y-113920395D01*
X147414143Y-113906253D01*
X147593748Y-114085858D01*
X147579605Y-114100000D01*
X148249764Y-114770159D01*
X148259627Y-114768072D01*
X148382368Y-114917633D01*
X148420901Y-114949256D01*
X150610744Y-117139100D01*
X150642367Y-117177633D01*
X150796160Y-117303847D01*
X150971620Y-117397632D01*
X151162005Y-117455385D01*
X151336962Y-117472617D01*
X151409465Y-117545120D01*
X151638273Y-117698005D01*
X151892510Y-117803314D01*
X152162408Y-117857000D01*
X152437592Y-117857000D01*
X152707490Y-117803314D01*
X152961727Y-117698005D01*
X153190535Y-117545120D01*
X153385120Y-117350535D01*
X153538005Y-117121727D01*
X153643314Y-116867490D01*
X153697000Y-116597592D01*
X153697000Y-116322408D01*
X176303000Y-116322408D01*
X176303000Y-116597592D01*
X176356686Y-116867490D01*
X176461995Y-117121727D01*
X176614880Y-117350535D01*
X176809465Y-117545120D01*
X177038273Y-117698005D01*
X177292510Y-117803314D01*
X177562408Y-117857000D01*
X177837592Y-117857000D01*
X178107490Y-117803314D01*
X178361727Y-117698005D01*
X178590535Y-117545120D01*
X178785120Y-117350535D01*
X178938005Y-117121727D01*
X179043314Y-116867490D01*
X179097000Y-116597592D01*
X179097000Y-116322408D01*
X179043314Y-116052510D01*
X178938005Y-115798273D01*
X178785120Y-115569465D01*
X178590535Y-115374880D01*
X178361727Y-115221995D01*
X178290057Y-115192308D01*
X178303023Y-115187636D01*
X178418980Y-115125656D01*
X178485960Y-114885565D01*
X177700000Y-114099605D01*
X176914040Y-114885565D01*
X176981020Y-115125656D01*
X177116760Y-115189485D01*
X177038273Y-115221995D01*
X176809465Y-115374880D01*
X176614880Y-115569465D01*
X176461995Y-115798273D01*
X176356686Y-116052510D01*
X176303000Y-116322408D01*
X153697000Y-116322408D01*
X153643314Y-116052510D01*
X153538005Y-115798273D01*
X153385120Y-115569465D01*
X153190535Y-115374880D01*
X152961727Y-115221995D01*
X152890057Y-115192308D01*
X152903023Y-115187636D01*
X153018980Y-115125656D01*
X153085960Y-114885565D01*
X152300000Y-114099605D01*
X151514040Y-114885565D01*
X151581020Y-115125656D01*
X151716760Y-115189485D01*
X151638273Y-115221995D01*
X151585568Y-115257212D01*
X150320373Y-113992017D01*
X150898090Y-113992017D01*
X150939078Y-114264133D01*
X151032364Y-114523023D01*
X151094344Y-114638980D01*
X151334435Y-114705960D01*
X152120395Y-113920000D01*
X152479605Y-113920000D01*
X153265565Y-114705960D01*
X153505656Y-114638980D01*
X153622756Y-114389952D01*
X153689023Y-114122865D01*
X153695157Y-113992017D01*
X176298090Y-113992017D01*
X176339078Y-114264133D01*
X176432364Y-114523023D01*
X176494344Y-114638980D01*
X176734435Y-114705960D01*
X177520395Y-113920000D01*
X177879605Y-113920000D01*
X178665565Y-114705960D01*
X178905656Y-114638980D01*
X179022756Y-114389952D01*
X179089023Y-114122865D01*
X179101910Y-113847983D01*
X179060922Y-113575867D01*
X178967636Y-113316977D01*
X178905656Y-113201020D01*
X178665565Y-113134040D01*
X177879605Y-113920000D01*
X177520395Y-113920000D01*
X176734435Y-113134040D01*
X176494344Y-113201020D01*
X176377244Y-113450048D01*
X176310977Y-113717135D01*
X176298090Y-113992017D01*
X153695157Y-113992017D01*
X153701910Y-113847983D01*
X153660922Y-113575867D01*
X153567636Y-113316977D01*
X153505656Y-113201020D01*
X153265565Y-113134040D01*
X152479605Y-113920000D01*
X152120395Y-113920000D01*
X151334435Y-113134040D01*
X151094344Y-113201020D01*
X150977244Y-113450048D01*
X150910977Y-113717135D01*
X150898090Y-113992017D01*
X150320373Y-113992017D01*
X150110000Y-113781645D01*
X150110000Y-112549606D01*
X150114886Y-112500001D01*
X150110000Y-112450392D01*
X150110000Y-79527000D01*
X152041752Y-79527000D01*
X151892510Y-79556686D01*
X151638273Y-79661995D01*
X151409465Y-79814880D01*
X151214880Y-80009465D01*
X151061995Y-80238273D01*
X150956686Y-80492510D01*
X150903000Y-80762408D01*
X150903000Y-81037592D01*
X150956686Y-81307490D01*
X151061995Y-81561727D01*
X151214880Y-81790535D01*
X151409465Y-81985120D01*
X151638273Y-82138005D01*
X151715515Y-82170000D01*
X151638273Y-82201995D01*
X151409465Y-82354880D01*
X151214880Y-82549465D01*
X151061995Y-82778273D01*
X150956686Y-83032510D01*
X150903000Y-83302408D01*
X150903000Y-83577592D01*
X150956686Y-83847490D01*
X151061995Y-84101727D01*
X151214880Y-84330535D01*
X151409465Y-84525120D01*
X151638273Y-84678005D01*
X151715515Y-84710000D01*
X151638273Y-84741995D01*
X151409465Y-84894880D01*
X151214880Y-85089465D01*
X151061995Y-85318273D01*
X150956686Y-85572510D01*
X150903000Y-85842408D01*
X150903000Y-86117592D01*
X150956686Y-86387490D01*
X151061995Y-86641727D01*
X151214880Y-86870535D01*
X151409465Y-87065120D01*
X151638273Y-87218005D01*
X151715515Y-87250000D01*
X151638273Y-87281995D01*
X151409465Y-87434880D01*
X151214880Y-87629465D01*
X151061995Y-87858273D01*
X150956686Y-88112510D01*
X150903000Y-88382408D01*
X150903000Y-88657592D01*
X150956686Y-88927490D01*
X151061995Y-89181727D01*
X151214880Y-89410535D01*
X151409465Y-89605120D01*
X151638273Y-89758005D01*
X151715515Y-89790000D01*
X151638273Y-89821995D01*
X151409465Y-89974880D01*
X151214880Y-90169465D01*
X151061995Y-90398273D01*
X150956686Y-90652510D01*
X150903000Y-90922408D01*
X150903000Y-91197592D01*
X150956686Y-91467490D01*
X151061995Y-91721727D01*
X151214880Y-91950535D01*
X151409465Y-92145120D01*
X151638273Y-92298005D01*
X151715515Y-92330000D01*
X151638273Y-92361995D01*
X151409465Y-92514880D01*
X151214880Y-92709465D01*
X151061995Y-92938273D01*
X150956686Y-93192510D01*
X150903000Y-93462408D01*
X150903000Y-93737592D01*
X150956686Y-94007490D01*
X151061995Y-94261727D01*
X151214880Y-94490535D01*
X151409465Y-94685120D01*
X151638273Y-94838005D01*
X151715515Y-94870000D01*
X151638273Y-94901995D01*
X151409465Y-95054880D01*
X151214880Y-95249465D01*
X151061995Y-95478273D01*
X150956686Y-95732510D01*
X150903000Y-96002408D01*
X150903000Y-96277592D01*
X150956686Y-96547490D01*
X151061995Y-96801727D01*
X151214880Y-97030535D01*
X151409465Y-97225120D01*
X151638273Y-97378005D01*
X151715515Y-97410000D01*
X151638273Y-97441995D01*
X151409465Y-97594880D01*
X151214880Y-97789465D01*
X151061995Y-98018273D01*
X150956686Y-98272510D01*
X150903000Y-98542408D01*
X150903000Y-98817592D01*
X150956686Y-99087490D01*
X151061995Y-99341727D01*
X151214880Y-99570535D01*
X151409465Y-99765120D01*
X151638273Y-99918005D01*
X151715515Y-99950000D01*
X151638273Y-99981995D01*
X151409465Y-100134880D01*
X151214880Y-100329465D01*
X151061995Y-100558273D01*
X150956686Y-100812510D01*
X150903000Y-101082408D01*
X150903000Y-101357592D01*
X150956686Y-101627490D01*
X151061995Y-101881727D01*
X151214880Y-102110535D01*
X151409465Y-102305120D01*
X151638273Y-102458005D01*
X151715515Y-102490000D01*
X151638273Y-102521995D01*
X151409465Y-102674880D01*
X151214880Y-102869465D01*
X151061995Y-103098273D01*
X150956686Y-103352510D01*
X150903000Y-103622408D01*
X150903000Y-103897592D01*
X150956686Y-104167490D01*
X151061995Y-104421727D01*
X151214880Y-104650535D01*
X151409465Y-104845120D01*
X151638273Y-104998005D01*
X151715515Y-105030000D01*
X151638273Y-105061995D01*
X151409465Y-105214880D01*
X151214880Y-105409465D01*
X151061995Y-105638273D01*
X150956686Y-105892510D01*
X150903000Y-106162408D01*
X150903000Y-106437592D01*
X150956686Y-106707490D01*
X151061995Y-106961727D01*
X151214880Y-107190535D01*
X151409465Y-107385120D01*
X151638273Y-107538005D01*
X151715515Y-107570000D01*
X151638273Y-107601995D01*
X151409465Y-107754880D01*
X151214880Y-107949465D01*
X151061995Y-108178273D01*
X150956686Y-108432510D01*
X150903000Y-108702408D01*
X150903000Y-108977592D01*
X150956686Y-109247490D01*
X151061995Y-109501727D01*
X151214880Y-109730535D01*
X151409465Y-109925120D01*
X151638273Y-110078005D01*
X151715515Y-110110000D01*
X151638273Y-110141995D01*
X151409465Y-110294880D01*
X151214880Y-110489465D01*
X151061995Y-110718273D01*
X150956686Y-110972510D01*
X150903000Y-111242408D01*
X150903000Y-111517592D01*
X150956686Y-111787490D01*
X151061995Y-112041727D01*
X151214880Y-112270535D01*
X151409465Y-112465120D01*
X151638273Y-112618005D01*
X151709943Y-112647692D01*
X151696977Y-112652364D01*
X151581020Y-112714344D01*
X151514040Y-112954435D01*
X152300000Y-113740395D01*
X153085960Y-112954435D01*
X153018980Y-112714344D01*
X152883240Y-112650515D01*
X152961727Y-112618005D01*
X153190535Y-112465120D01*
X153385120Y-112270535D01*
X153538005Y-112041727D01*
X153643314Y-111787490D01*
X153697000Y-111517592D01*
X153697000Y-111242408D01*
X153643314Y-110972510D01*
X153538005Y-110718273D01*
X153385120Y-110489465D01*
X153190535Y-110294880D01*
X152961727Y-110141995D01*
X152884485Y-110110000D01*
X152961727Y-110078005D01*
X153190535Y-109925120D01*
X153385120Y-109730535D01*
X153538005Y-109501727D01*
X153643314Y-109247490D01*
X153697000Y-108977592D01*
X153697000Y-108702408D01*
X153643314Y-108432510D01*
X153538005Y-108178273D01*
X153385120Y-107949465D01*
X153190535Y-107754880D01*
X152961727Y-107601995D01*
X152884485Y-107570000D01*
X152961727Y-107538005D01*
X153190535Y-107385120D01*
X153385120Y-107190535D01*
X153538005Y-106961727D01*
X153643314Y-106707490D01*
X153697000Y-106437592D01*
X153697000Y-106162408D01*
X153643314Y-105892510D01*
X153538005Y-105638273D01*
X153385120Y-105409465D01*
X153190535Y-105214880D01*
X152961727Y-105061995D01*
X152884485Y-105030000D01*
X152961727Y-104998005D01*
X153190535Y-104845120D01*
X153385120Y-104650535D01*
X153538005Y-104421727D01*
X153643314Y-104167490D01*
X153697000Y-103897592D01*
X153697000Y-103622408D01*
X153643314Y-103352510D01*
X153538005Y-103098273D01*
X153385120Y-102869465D01*
X153190535Y-102674880D01*
X152961727Y-102521995D01*
X152884485Y-102490000D01*
X152961727Y-102458005D01*
X153190535Y-102305120D01*
X153385120Y-102110535D01*
X153538005Y-101881727D01*
X153643314Y-101627490D01*
X153697000Y-101357592D01*
X153697000Y-101082408D01*
X153643314Y-100812510D01*
X153538005Y-100558273D01*
X153385120Y-100329465D01*
X153190535Y-100134880D01*
X152961727Y-99981995D01*
X152884485Y-99950000D01*
X152961727Y-99918005D01*
X153190535Y-99765120D01*
X153385120Y-99570535D01*
X153538005Y-99341727D01*
X153643314Y-99087490D01*
X153697000Y-98817592D01*
X153697000Y-98542408D01*
X153643314Y-98272510D01*
X153538005Y-98018273D01*
X153385120Y-97789465D01*
X153190535Y-97594880D01*
X152961727Y-97441995D01*
X152884485Y-97410000D01*
X152961727Y-97378005D01*
X153190535Y-97225120D01*
X153385120Y-97030535D01*
X153538005Y-96801727D01*
X153643314Y-96547490D01*
X153697000Y-96277592D01*
X153697000Y-96002408D01*
X153643314Y-95732510D01*
X153538005Y-95478273D01*
X153385120Y-95249465D01*
X153190535Y-95054880D01*
X152961727Y-94901995D01*
X152884485Y-94870000D01*
X152961727Y-94838005D01*
X153190535Y-94685120D01*
X153385120Y-94490535D01*
X153538005Y-94261727D01*
X153643314Y-94007490D01*
X153697000Y-93737592D01*
X153697000Y-93462408D01*
X153643314Y-93192510D01*
X153538005Y-92938273D01*
X153385120Y-92709465D01*
X153190535Y-92514880D01*
X152961727Y-92361995D01*
X152884485Y-92330000D01*
X152961727Y-92298005D01*
X153190535Y-92145120D01*
X153385120Y-91950535D01*
X153472341Y-91820000D01*
X157345199Y-91820000D01*
X159040000Y-93514802D01*
X159040001Y-101696288D01*
X158996063Y-101740226D01*
X158882795Y-101909744D01*
X158804774Y-102098102D01*
X158765000Y-102298061D01*
X158765000Y-102501939D01*
X158804774Y-102701898D01*
X158882795Y-102890256D01*
X158996063Y-103059774D01*
X159140226Y-103203937D01*
X159309744Y-103317205D01*
X159498102Y-103395226D01*
X159698061Y-103435000D01*
X159901939Y-103435000D01*
X160101898Y-103395226D01*
X160290256Y-103317205D01*
X160459774Y-103203937D01*
X160603937Y-103059774D01*
X160717205Y-102890256D01*
X160795226Y-102701898D01*
X160835000Y-102501939D01*
X160835000Y-102298061D01*
X160795226Y-102098102D01*
X160717205Y-101909744D01*
X160603937Y-101740226D01*
X160560000Y-101696289D01*
X160560000Y-99934801D01*
X172516201Y-111891003D01*
X172539999Y-111920001D01*
X172655724Y-112014974D01*
X172787753Y-112085546D01*
X172931014Y-112129003D01*
X173042667Y-112140000D01*
X173042676Y-112140000D01*
X173079999Y-112143676D01*
X173117322Y-112140000D01*
X176527659Y-112140000D01*
X176614880Y-112270535D01*
X176809465Y-112465120D01*
X177038273Y-112618005D01*
X177109943Y-112647692D01*
X177096977Y-112652364D01*
X176981020Y-112714344D01*
X176914040Y-112954435D01*
X177700000Y-113740395D01*
X178485960Y-112954435D01*
X178418980Y-112714344D01*
X178283240Y-112650515D01*
X178361727Y-112618005D01*
X178590535Y-112465120D01*
X178785120Y-112270535D01*
X178938005Y-112041727D01*
X179043314Y-111787490D01*
X179097000Y-111517592D01*
X179097000Y-111242408D01*
X179043314Y-110972510D01*
X178938005Y-110718273D01*
X178785120Y-110489465D01*
X178590535Y-110294880D01*
X178361727Y-110141995D01*
X178284485Y-110110000D01*
X178361727Y-110078005D01*
X178590535Y-109925120D01*
X178785120Y-109730535D01*
X178938005Y-109501727D01*
X179043314Y-109247490D01*
X179097000Y-108977592D01*
X179097000Y-108702408D01*
X179043314Y-108432510D01*
X178938005Y-108178273D01*
X178785120Y-107949465D01*
X178590535Y-107754880D01*
X178361727Y-107601995D01*
X178284485Y-107570000D01*
X178361727Y-107538005D01*
X178590535Y-107385120D01*
X178785120Y-107190535D01*
X178938005Y-106961727D01*
X179043314Y-106707490D01*
X179097000Y-106437592D01*
X179097000Y-106162408D01*
X179043314Y-105892510D01*
X178938005Y-105638273D01*
X178785120Y-105409465D01*
X178590535Y-105214880D01*
X178361727Y-105061995D01*
X178284485Y-105030000D01*
X178361727Y-104998005D01*
X178590535Y-104845120D01*
X178785120Y-104650535D01*
X178938005Y-104421727D01*
X179043314Y-104167490D01*
X179097000Y-103897592D01*
X179097000Y-103622408D01*
X179043314Y-103352510D01*
X178938005Y-103098273D01*
X178785120Y-102869465D01*
X178590535Y-102674880D01*
X178361727Y-102521995D01*
X178284485Y-102490000D01*
X178361727Y-102458005D01*
X178590535Y-102305120D01*
X178785120Y-102110535D01*
X178938005Y-101881727D01*
X179043314Y-101627490D01*
X179097000Y-101357592D01*
X179097000Y-101082408D01*
X179043314Y-100812510D01*
X178938005Y-100558273D01*
X178785120Y-100329465D01*
X178590535Y-100134880D01*
X178361727Y-99981995D01*
X178284485Y-99950000D01*
X178361727Y-99918005D01*
X178590535Y-99765120D01*
X178785120Y-99570535D01*
X178938005Y-99341727D01*
X179043314Y-99087490D01*
X179097000Y-98817592D01*
X179097000Y-98542408D01*
X179043314Y-98272510D01*
X178938005Y-98018273D01*
X178785120Y-97789465D01*
X178590535Y-97594880D01*
X178361727Y-97441995D01*
X178284485Y-97410000D01*
X178361727Y-97378005D01*
X178590535Y-97225120D01*
X178785120Y-97030535D01*
X178938005Y-96801727D01*
X179043314Y-96547490D01*
X179097000Y-96277592D01*
X179097000Y-96002408D01*
X179043314Y-95732510D01*
X178938005Y-95478273D01*
X178785120Y-95249465D01*
X178590535Y-95054880D01*
X178361727Y-94901995D01*
X178284485Y-94870000D01*
X178361727Y-94838005D01*
X178590535Y-94685120D01*
X178785120Y-94490535D01*
X178872341Y-94360000D01*
X181262678Y-94360000D01*
X181300000Y-94363676D01*
X181337322Y-94360000D01*
X181337333Y-94360000D01*
X181448986Y-94349003D01*
X181592247Y-94305546D01*
X181724276Y-94234974D01*
X181840001Y-94140001D01*
X181863804Y-94110998D01*
X182079561Y-93895241D01*
X182086771Y-99000179D01*
X182089246Y-99024952D01*
X182096507Y-99048766D01*
X182108274Y-99070706D01*
X182124095Y-99089929D01*
X182143363Y-99105696D01*
X182165336Y-99117401D01*
X182189170Y-99124595D01*
X182213771Y-99127000D01*
X194672529Y-99127000D01*
X194573471Y-125872571D01*
X189566083Y-125855605D01*
X189541299Y-125857961D01*
X189517450Y-125865107D01*
X189495454Y-125876769D01*
X189476155Y-125892498D01*
X189460296Y-125911689D01*
X189448486Y-125933606D01*
X189441178Y-125957406D01*
X189438653Y-125982783D01*
X189460097Y-141165102D01*
X189085199Y-141540000D01*
X182337333Y-141540000D01*
X182324932Y-141538779D01*
X182403937Y-141459774D01*
X182517205Y-141290256D01*
X182595226Y-141101898D01*
X182635000Y-140901939D01*
X182635000Y-140698061D01*
X182595226Y-140498102D01*
X182517205Y-140309744D01*
X182403937Y-140140226D01*
X182259774Y-139996063D01*
X182090256Y-139882795D01*
X181901898Y-139804774D01*
X181701939Y-139765000D01*
X181498061Y-139765000D01*
X181298102Y-139804774D01*
X181109744Y-139882795D01*
X180940226Y-139996063D01*
X180896289Y-140040000D01*
X179737325Y-140040000D01*
X179700000Y-140036324D01*
X179662675Y-140040000D01*
X179662667Y-140040000D01*
X179551014Y-140050997D01*
X179407753Y-140094454D01*
X179275724Y-140165026D01*
X179159999Y-140259999D01*
X179136201Y-140288997D01*
X177143998Y-142281201D01*
X177115000Y-142304999D01*
X177091202Y-142333997D01*
X177091201Y-142333998D01*
X177020026Y-142420724D01*
X176949454Y-142552754D01*
X176905998Y-142696015D01*
X176891324Y-142845000D01*
X176895001Y-142882332D01*
X176895000Y-144982023D01*
X176849742Y-145037171D01*
X176776916Y-145173418D01*
X176732071Y-145321255D01*
X176716928Y-145475000D01*
X176716928Y-147225000D01*
X176732071Y-147378745D01*
X176776916Y-147526582D01*
X176849742Y-147662829D01*
X176947749Y-147782251D01*
X177067171Y-147880258D01*
X177203418Y-147953084D01*
X177351255Y-147997929D01*
X177505000Y-148013072D01*
X177805000Y-148013072D01*
X177958745Y-147997929D01*
X178106582Y-147953084D01*
X178242829Y-147880258D01*
X178290000Y-147841546D01*
X178337171Y-147880258D01*
X178473418Y-147953084D01*
X178621255Y-147997929D01*
X178775000Y-148013072D01*
X179075000Y-148013072D01*
X179228745Y-147997929D01*
X179376582Y-147953084D01*
X179490001Y-147892460D01*
X179490000Y-148945680D01*
X179445506Y-148969463D01*
X179348815Y-149048815D01*
X179269463Y-149145506D01*
X179210498Y-149255820D01*
X179174188Y-149375518D01*
X179161928Y-149500000D01*
X179161928Y-150700000D01*
X179174188Y-150824482D01*
X179210498Y-150944180D01*
X179269463Y-151054494D01*
X179348815Y-151151185D01*
X179445506Y-151230537D01*
X179555820Y-151289502D01*
X179675518Y-151325812D01*
X179800000Y-151338072D01*
X180700000Y-151338072D01*
X180824482Y-151325812D01*
X180944180Y-151289502D01*
X181054494Y-151230537D01*
X181151185Y-151151185D01*
X181230537Y-151054494D01*
X181289502Y-150944180D01*
X181325812Y-150824482D01*
X181338072Y-150700000D01*
X181338072Y-149500000D01*
X181325812Y-149375518D01*
X181289502Y-149255820D01*
X181230537Y-149145506D01*
X181151185Y-149048815D01*
X181054494Y-148969463D01*
X181010000Y-148945680D01*
X181010000Y-147991554D01*
X181040518Y-148000812D01*
X181165000Y-148013072D01*
X181179250Y-148010000D01*
X181338000Y-147851250D01*
X181338000Y-146477000D01*
X181592000Y-146477000D01*
X181592000Y-147851250D01*
X181750750Y-148010000D01*
X181765000Y-148013072D01*
X181889482Y-148000812D01*
X182009180Y-147964502D01*
X182100000Y-147915957D01*
X182190820Y-147964502D01*
X182310518Y-148000812D01*
X182435000Y-148013072D01*
X182449250Y-148010000D01*
X182608000Y-147851250D01*
X182608000Y-146477000D01*
X182862000Y-146477000D01*
X182862000Y-147851250D01*
X183020750Y-148010000D01*
X183035000Y-148013072D01*
X183159482Y-148000812D01*
X183279180Y-147964502D01*
X183370000Y-147915957D01*
X183460820Y-147964502D01*
X183580518Y-148000812D01*
X183705000Y-148013072D01*
X183719250Y-148010000D01*
X183878000Y-147851250D01*
X183878000Y-146477000D01*
X184132000Y-146477000D01*
X184132000Y-147851250D01*
X184290750Y-148010000D01*
X184305000Y-148013072D01*
X184429482Y-148000812D01*
X184549180Y-147964502D01*
X184640000Y-147915957D01*
X184730820Y-147964502D01*
X184850518Y-148000812D01*
X184975000Y-148013072D01*
X184989250Y-148010000D01*
X185148000Y-147851250D01*
X185148000Y-146477000D01*
X185402000Y-146477000D01*
X185402000Y-147851250D01*
X185560750Y-148010000D01*
X185575000Y-148013072D01*
X185699482Y-148000812D01*
X185819180Y-147964502D01*
X185910000Y-147915957D01*
X186000820Y-147964502D01*
X186120518Y-148000812D01*
X186245000Y-148013072D01*
X186259250Y-148010000D01*
X186418000Y-147851250D01*
X186418000Y-146477000D01*
X186672000Y-146477000D01*
X186672000Y-147851250D01*
X186830750Y-148010000D01*
X186845000Y-148013072D01*
X186969482Y-148000812D01*
X187089180Y-147964502D01*
X187199494Y-147905537D01*
X187296185Y-147826185D01*
X187375537Y-147729494D01*
X187434502Y-147619180D01*
X187470812Y-147499482D01*
X187483072Y-147375000D01*
X187480000Y-146635750D01*
X187321250Y-146477000D01*
X186672000Y-146477000D01*
X186418000Y-146477000D01*
X185402000Y-146477000D01*
X185148000Y-146477000D01*
X184132000Y-146477000D01*
X183878000Y-146477000D01*
X182862000Y-146477000D01*
X182608000Y-146477000D01*
X181592000Y-146477000D01*
X181338000Y-146477000D01*
X181318000Y-146477000D01*
X181318000Y-146223000D01*
X181338000Y-146223000D01*
X181338000Y-144848750D01*
X181592000Y-144848750D01*
X181592000Y-146223000D01*
X182608000Y-146223000D01*
X182608000Y-144848750D01*
X182862000Y-144848750D01*
X182862000Y-146223000D01*
X183878000Y-146223000D01*
X183878000Y-144848750D01*
X184132000Y-144848750D01*
X184132000Y-146223000D01*
X185148000Y-146223000D01*
X185148000Y-144848750D01*
X185402000Y-144848750D01*
X185402000Y-146223000D01*
X186418000Y-146223000D01*
X186418000Y-144848750D01*
X186672000Y-144848750D01*
X186672000Y-146223000D01*
X187321250Y-146223000D01*
X187480000Y-146064250D01*
X187483072Y-145325000D01*
X187470812Y-145200518D01*
X187434502Y-145080820D01*
X187375537Y-144970506D01*
X187296185Y-144873815D01*
X187199494Y-144794463D01*
X187089180Y-144735498D01*
X186969482Y-144699188D01*
X186845000Y-144686928D01*
X186830750Y-144690000D01*
X186672000Y-144848750D01*
X186418000Y-144848750D01*
X186259250Y-144690000D01*
X186245000Y-144686928D01*
X186120518Y-144699188D01*
X186000820Y-144735498D01*
X185910000Y-144784043D01*
X185819180Y-144735498D01*
X185699482Y-144699188D01*
X185575000Y-144686928D01*
X185560750Y-144690000D01*
X185402000Y-144848750D01*
X185148000Y-144848750D01*
X184989250Y-144690000D01*
X184975000Y-144686928D01*
X184850518Y-144699188D01*
X184730820Y-144735498D01*
X184640000Y-144784043D01*
X184549180Y-144735498D01*
X184429482Y-144699188D01*
X184305000Y-144686928D01*
X184290750Y-144690000D01*
X184132000Y-144848750D01*
X183878000Y-144848750D01*
X183719250Y-144690000D01*
X183705000Y-144686928D01*
X183580518Y-144699188D01*
X183460820Y-144735498D01*
X183370000Y-144784043D01*
X183279180Y-144735498D01*
X183159482Y-144699188D01*
X183035000Y-144686928D01*
X183020750Y-144690000D01*
X182862000Y-144848750D01*
X182608000Y-144848750D01*
X182449250Y-144690000D01*
X182435000Y-144686928D01*
X182310518Y-144699188D01*
X182190820Y-144735498D01*
X182100000Y-144784043D01*
X182009180Y-144735498D01*
X181889482Y-144699188D01*
X181765000Y-144686928D01*
X181750750Y-144690000D01*
X181592000Y-144848750D01*
X181338000Y-144848750D01*
X181179250Y-144690000D01*
X181165000Y-144686928D01*
X181040518Y-144699188D01*
X180955000Y-144725130D01*
X180955000Y-144719801D01*
X182614802Y-143060000D01*
X189362678Y-143060000D01*
X189400000Y-143063676D01*
X189437322Y-143060000D01*
X189437333Y-143060000D01*
X189462770Y-143057495D01*
X189472820Y-150173000D01*
X183800000Y-150173000D01*
X183775224Y-150175440D01*
X183751399Y-150182667D01*
X183729443Y-150194403D01*
X183710197Y-150210197D01*
X183694403Y-150229443D01*
X183682667Y-150251399D01*
X183675440Y-150275224D01*
X183673000Y-150300000D01*
X183673000Y-155340000D01*
X155227000Y-155340000D01*
X155227000Y-150300000D01*
X155226810Y-150298061D01*
X167865000Y-150298061D01*
X167865000Y-150501939D01*
X167904774Y-150701898D01*
X167982795Y-150890256D01*
X168096063Y-151059774D01*
X168240226Y-151203937D01*
X168409744Y-151317205D01*
X168598102Y-151395226D01*
X168798061Y-151435000D01*
X169001939Y-151435000D01*
X169127623Y-151410000D01*
X171697014Y-151410000D01*
X171810149Y-151470472D01*
X171976745Y-151521008D01*
X172149999Y-151538072D01*
X172850001Y-151538072D01*
X173023255Y-151521008D01*
X173189851Y-151470472D01*
X173343387Y-151388405D01*
X173477962Y-151277962D01*
X173500000Y-151251109D01*
X173522038Y-151277962D01*
X173656613Y-151388405D01*
X173810149Y-151470472D01*
X173976745Y-151521008D01*
X174149999Y-151538072D01*
X174850001Y-151538072D01*
X175023255Y-151521008D01*
X175189851Y-151470472D01*
X175343387Y-151388405D01*
X175477962Y-151277962D01*
X175588405Y-151143387D01*
X175670472Y-150989851D01*
X175709862Y-150860000D01*
X175884962Y-150860000D01*
X175910498Y-150944180D01*
X175969463Y-151054494D01*
X176048815Y-151151185D01*
X176145506Y-151230537D01*
X176255820Y-151289502D01*
X176375518Y-151325812D01*
X176500000Y-151338072D01*
X177400000Y-151338072D01*
X177524482Y-151325812D01*
X177644180Y-151289502D01*
X177754494Y-151230537D01*
X177851185Y-151151185D01*
X177930537Y-151054494D01*
X177989502Y-150944180D01*
X178025812Y-150824482D01*
X178038072Y-150700000D01*
X178038072Y-149500000D01*
X178025812Y-149375518D01*
X177989502Y-149255820D01*
X177930537Y-149145506D01*
X177851185Y-149048815D01*
X177754494Y-148969463D01*
X177644180Y-148910498D01*
X177524482Y-148874188D01*
X177400000Y-148861928D01*
X176500000Y-148861928D01*
X176375518Y-148874188D01*
X176255820Y-148910498D01*
X176145506Y-148969463D01*
X176048815Y-149048815D01*
X175969463Y-149145506D01*
X175910498Y-149255820D01*
X175884962Y-149340000D01*
X175632976Y-149340000D01*
X175588405Y-149256613D01*
X175477962Y-149122038D01*
X175343387Y-149011595D01*
X175189851Y-148929528D01*
X175023255Y-148878992D01*
X174850001Y-148861928D01*
X174149999Y-148861928D01*
X173976745Y-148878992D01*
X173810149Y-148929528D01*
X173656613Y-149011595D01*
X173522038Y-149122038D01*
X173500000Y-149148891D01*
X173477962Y-149122038D01*
X173343387Y-149011595D01*
X173189851Y-148929528D01*
X173023255Y-148878992D01*
X172850001Y-148861928D01*
X172149999Y-148861928D01*
X171976745Y-148878992D01*
X171810149Y-148929528D01*
X171656613Y-149011595D01*
X171522038Y-149122038D01*
X171411595Y-149256613D01*
X171340298Y-149390000D01*
X169127623Y-149390000D01*
X169001939Y-149365000D01*
X168798061Y-149365000D01*
X168598102Y-149404774D01*
X168409744Y-149482795D01*
X168240226Y-149596063D01*
X168096063Y-149740226D01*
X167982795Y-149909744D01*
X167904774Y-150098102D01*
X167865000Y-150298061D01*
X155226810Y-150298061D01*
X155224560Y-150275224D01*
X155217333Y-150251399D01*
X155205597Y-150229443D01*
X155189803Y-150210197D01*
X155170557Y-150194403D01*
X155148601Y-150182667D01*
X155124776Y-150175440D01*
X155100000Y-150173000D01*
X140426851Y-150173000D01*
X140416989Y-141759267D01*
X143433680Y-141759267D01*
X143507558Y-142040830D01*
X143634947Y-142302570D01*
X143810951Y-142534429D01*
X144028807Y-142727496D01*
X144280142Y-142874352D01*
X144543110Y-142966476D01*
X144773000Y-142845155D01*
X144773000Y-141527000D01*
X143573835Y-141527000D01*
X143433680Y-141759267D01*
X140416989Y-141759267D01*
X140416147Y-141040733D01*
X143433680Y-141040733D01*
X143573835Y-141273000D01*
X144773000Y-141273000D01*
X144773000Y-139954845D01*
X145027000Y-139954845D01*
X145027000Y-141273000D01*
X145047000Y-141273000D01*
X145047000Y-141527000D01*
X145027000Y-141527000D01*
X145027000Y-142845155D01*
X145256890Y-142966476D01*
X145519858Y-142874352D01*
X145771193Y-142727496D01*
X145989049Y-142534429D01*
X146145538Y-142328278D01*
X146159294Y-142354013D01*
X146344866Y-142580134D01*
X146570986Y-142765706D01*
X146828966Y-142903599D01*
X147108889Y-142988513D01*
X147400000Y-143017185D01*
X147691110Y-142988513D01*
X147971033Y-142903599D01*
X148229013Y-142765706D01*
X148455134Y-142580134D01*
X148640706Y-142354014D01*
X148650000Y-142336626D01*
X148659294Y-142354013D01*
X148844866Y-142580134D01*
X149070986Y-142765706D01*
X149328966Y-142903599D01*
X149608889Y-142988513D01*
X149900000Y-143017185D01*
X150191110Y-142988513D01*
X150471033Y-142903599D01*
X150729013Y-142765706D01*
X150955134Y-142580134D01*
X151007223Y-142516663D01*
X151061595Y-142618386D01*
X151172038Y-142752962D01*
X151306614Y-142863405D01*
X151460150Y-142945472D01*
X151626746Y-142996008D01*
X151800000Y-143013072D01*
X153000000Y-143013072D01*
X153173254Y-142996008D01*
X153339850Y-142945472D01*
X153493386Y-142863405D01*
X153627962Y-142752962D01*
X153738405Y-142618386D01*
X153820472Y-142464850D01*
X153871008Y-142298254D01*
X153888072Y-142125000D01*
X153888072Y-140675000D01*
X153871008Y-140501746D01*
X153820472Y-140335150D01*
X153738405Y-140181614D01*
X153627962Y-140047038D01*
X153493386Y-139936595D01*
X153339850Y-139854528D01*
X153173254Y-139803992D01*
X153000000Y-139786928D01*
X151800000Y-139786928D01*
X151626746Y-139803992D01*
X151460150Y-139854528D01*
X151306614Y-139936595D01*
X151172038Y-140047038D01*
X151061595Y-140181614D01*
X151007223Y-140283337D01*
X150955134Y-140219866D01*
X150729014Y-140034294D01*
X150471034Y-139896401D01*
X150191111Y-139811487D01*
X149900000Y-139782815D01*
X149608890Y-139811487D01*
X149328967Y-139896401D01*
X149070987Y-140034294D01*
X148844866Y-140219866D01*
X148659294Y-140445986D01*
X148650000Y-140463374D01*
X148640706Y-140445986D01*
X148455134Y-140219866D01*
X148229014Y-140034294D01*
X147971034Y-139896401D01*
X147691111Y-139811487D01*
X147400000Y-139782815D01*
X147108890Y-139811487D01*
X146828967Y-139896401D01*
X146570987Y-140034294D01*
X146344866Y-140219866D01*
X146159294Y-140445986D01*
X146145538Y-140471722D01*
X145989049Y-140265571D01*
X145771193Y-140072504D01*
X145519858Y-139925648D01*
X145256890Y-139833524D01*
X145027000Y-139954845D01*
X144773000Y-139954845D01*
X144543110Y-139833524D01*
X144280142Y-139925648D01*
X144028807Y-140072504D01*
X143810951Y-140265571D01*
X143634947Y-140497430D01*
X143507558Y-140759170D01*
X143433680Y-141040733D01*
X140416147Y-141040733D01*
X140414576Y-139700000D01*
X170361928Y-139700000D01*
X170374188Y-139824482D01*
X170410498Y-139944180D01*
X170469463Y-140054494D01*
X170548815Y-140151185D01*
X170645506Y-140230537D01*
X170755820Y-140289502D01*
X170875518Y-140325812D01*
X171000000Y-140338072D01*
X171714250Y-140335000D01*
X171873000Y-140176250D01*
X171873000Y-138827000D01*
X172127000Y-138827000D01*
X172127000Y-140176250D01*
X172285750Y-140335000D01*
X173000000Y-140338072D01*
X173124482Y-140325812D01*
X173244180Y-140289502D01*
X173354494Y-140230537D01*
X173451185Y-140151185D01*
X173530537Y-140054494D01*
X173589502Y-139944180D01*
X173625812Y-139824482D01*
X173638072Y-139700000D01*
X173635000Y-138985750D01*
X173476250Y-138827000D01*
X172127000Y-138827000D01*
X171873000Y-138827000D01*
X170523750Y-138827000D01*
X170365000Y-138985750D01*
X170361928Y-139700000D01*
X140414576Y-139700000D01*
X140412232Y-137700000D01*
X170361928Y-137700000D01*
X170365000Y-138414250D01*
X170523750Y-138573000D01*
X171873000Y-138573000D01*
X171873000Y-137223750D01*
X172127000Y-137223750D01*
X172127000Y-138573000D01*
X173476250Y-138573000D01*
X173635000Y-138414250D01*
X173638072Y-137700000D01*
X173625812Y-137575518D01*
X173589502Y-137455820D01*
X173530537Y-137345506D01*
X173451185Y-137248815D01*
X173354494Y-137169463D01*
X173244180Y-137110498D01*
X173124482Y-137074188D01*
X173000000Y-137061928D01*
X172285750Y-137065000D01*
X172127000Y-137223750D01*
X171873000Y-137223750D01*
X171714250Y-137065000D01*
X171000000Y-137061928D01*
X170875518Y-137074188D01*
X170755820Y-137110498D01*
X170645506Y-137169463D01*
X170548815Y-137248815D01*
X170469463Y-137345506D01*
X170410498Y-137455820D01*
X170374188Y-137575518D01*
X170361928Y-137700000D01*
X140412232Y-137700000D01*
X140408598Y-134600000D01*
X172536928Y-134600000D01*
X172549188Y-134724482D01*
X172585498Y-134844180D01*
X172644463Y-134954494D01*
X172723815Y-135051185D01*
X172820506Y-135130537D01*
X172930820Y-135189502D01*
X173050518Y-135225812D01*
X173175000Y-135238072D01*
X173551750Y-135235000D01*
X173710500Y-135076250D01*
X173710500Y-133827000D01*
X173964500Y-133827000D01*
X173964500Y-135076250D01*
X174123250Y-135235000D01*
X174500000Y-135238072D01*
X174624482Y-135225812D01*
X174744180Y-135189502D01*
X174854494Y-135130537D01*
X174951185Y-135051185D01*
X175030537Y-134954494D01*
X175089502Y-134844180D01*
X175125812Y-134724482D01*
X175138072Y-134600000D01*
X175135000Y-133985750D01*
X174976250Y-133827000D01*
X173964500Y-133827000D01*
X173710500Y-133827000D01*
X172698750Y-133827000D01*
X172540000Y-133985750D01*
X172536928Y-134600000D01*
X140408598Y-134600000D01*
X140406488Y-132800000D01*
X172536928Y-132800000D01*
X172540000Y-133414250D01*
X172698750Y-133573000D01*
X173710500Y-133573000D01*
X173710500Y-132323750D01*
X173964500Y-132323750D01*
X173964500Y-133573000D01*
X174976250Y-133573000D01*
X175135000Y-133414250D01*
X175138072Y-132800000D01*
X175125812Y-132675518D01*
X175089502Y-132555820D01*
X175030537Y-132445506D01*
X174951185Y-132348815D01*
X174854494Y-132269463D01*
X174744180Y-132210498D01*
X174624482Y-132174188D01*
X174500000Y-132161928D01*
X174123250Y-132165000D01*
X173964500Y-132323750D01*
X173710500Y-132323750D01*
X173551750Y-132165000D01*
X173175000Y-132161928D01*
X173050518Y-132174188D01*
X172930820Y-132210498D01*
X172820506Y-132269463D01*
X172723815Y-132348815D01*
X172644463Y-132445506D01*
X172585498Y-132555820D01*
X172549188Y-132675518D01*
X172536928Y-132800000D01*
X140406488Y-132800000D01*
X140404173Y-130825000D01*
X173036928Y-130825000D01*
X173049188Y-130949482D01*
X173085498Y-131069180D01*
X173144463Y-131179494D01*
X173223815Y-131276185D01*
X173320506Y-131355537D01*
X173430820Y-131414502D01*
X173550518Y-131450812D01*
X173675000Y-131463072D01*
X173976750Y-131460000D01*
X174135500Y-131301250D01*
X174135500Y-130227000D01*
X173198750Y-130227000D01*
X173040000Y-130385750D01*
X173036928Y-130825000D01*
X140404173Y-130825000D01*
X140403148Y-129951534D01*
X140400679Y-129926761D01*
X140393424Y-129902945D01*
X140381662Y-129881002D01*
X140367661Y-129863624D01*
X139818284Y-129292702D01*
X144586903Y-129292702D01*
X144658486Y-129536671D01*
X144913996Y-129657571D01*
X145188184Y-129726300D01*
X145470512Y-129740217D01*
X145750130Y-129698787D01*
X146016292Y-129603603D01*
X146141514Y-129536671D01*
X146213097Y-129292702D01*
X145400000Y-128479605D01*
X144586903Y-129292702D01*
X139818284Y-129292702D01*
X138930893Y-128370512D01*
X143959783Y-128370512D01*
X144001213Y-128650130D01*
X144096397Y-128916292D01*
X144163329Y-129041514D01*
X144407298Y-129113097D01*
X145220395Y-128300000D01*
X145579605Y-128300000D01*
X146392702Y-129113097D01*
X146636671Y-129041514D01*
X146757571Y-128786004D01*
X146826300Y-128511816D01*
X146840217Y-128229488D01*
X146798787Y-127949870D01*
X146703603Y-127683708D01*
X146636671Y-127558486D01*
X146437340Y-127500000D01*
X147461928Y-127500000D01*
X147461928Y-129100000D01*
X147474188Y-129224482D01*
X147510498Y-129344180D01*
X147569463Y-129454494D01*
X147648815Y-129551185D01*
X147745506Y-129630537D01*
X147855820Y-129689502D01*
X147975518Y-129725812D01*
X148100000Y-129738072D01*
X149700000Y-129738072D01*
X149824482Y-129725812D01*
X149944180Y-129689502D01*
X150054494Y-129630537D01*
X150151185Y-129551185D01*
X150230537Y-129454494D01*
X150273028Y-129375000D01*
X173036928Y-129375000D01*
X173040000Y-129814250D01*
X173198750Y-129973000D01*
X174135500Y-129973000D01*
X174135500Y-128898750D01*
X174389500Y-128898750D01*
X174389500Y-129973000D01*
X174409500Y-129973000D01*
X174409500Y-130227000D01*
X174389500Y-130227000D01*
X174389500Y-131301250D01*
X174548250Y-131460000D01*
X174850000Y-131463072D01*
X174974482Y-131450812D01*
X175094180Y-131414502D01*
X175204494Y-131355537D01*
X175301185Y-131276185D01*
X175366658Y-131196406D01*
X175372038Y-131202962D01*
X175506614Y-131313405D01*
X175660150Y-131395472D01*
X175826746Y-131446008D01*
X176000000Y-131463072D01*
X176675000Y-131463072D01*
X176848254Y-131446008D01*
X177014850Y-131395472D01*
X177168386Y-131313405D01*
X177302962Y-131202962D01*
X177379253Y-131110000D01*
X177915001Y-131110000D01*
X177915000Y-132349850D01*
X177868387Y-132311595D01*
X177714852Y-132229528D01*
X177548256Y-132178992D01*
X177375002Y-132161928D01*
X176549998Y-132161928D01*
X176376744Y-132178992D01*
X176210148Y-132229528D01*
X176056613Y-132311595D01*
X175922038Y-132422038D01*
X175811595Y-132556613D01*
X175729528Y-132710148D01*
X175678992Y-132876744D01*
X175661928Y-133049998D01*
X175661928Y-134350002D01*
X175678992Y-134523256D01*
X175729528Y-134689852D01*
X175811595Y-134843387D01*
X175922038Y-134977962D01*
X176056613Y-135088405D01*
X176210148Y-135170472D01*
X176376744Y-135221008D01*
X176549998Y-135238072D01*
X177375002Y-135238072D01*
X177548256Y-135221008D01*
X177714852Y-135170472D01*
X177868387Y-135088405D01*
X177915001Y-135050150D01*
X177915000Y-135397762D01*
X177805000Y-135386928D01*
X177505000Y-135386928D01*
X177351255Y-135402071D01*
X177203418Y-135446916D01*
X177067171Y-135519742D01*
X176947749Y-135617749D01*
X176849742Y-135737171D01*
X176776916Y-135873418D01*
X176732071Y-136021255D01*
X176716928Y-136175000D01*
X176716928Y-137925000D01*
X176732071Y-138078745D01*
X176776916Y-138226582D01*
X176849742Y-138362829D01*
X176947749Y-138482251D01*
X177067171Y-138580258D01*
X177203418Y-138653084D01*
X177351255Y-138697929D01*
X177505000Y-138713072D01*
X177805000Y-138713072D01*
X177958745Y-138697929D01*
X178106582Y-138653084D01*
X178242829Y-138580258D01*
X178290000Y-138541546D01*
X178337171Y-138580258D01*
X178473418Y-138653084D01*
X178621255Y-138697929D01*
X178775000Y-138713072D01*
X179075000Y-138713072D01*
X179228745Y-138697929D01*
X179376582Y-138653084D01*
X179512829Y-138580258D01*
X179560000Y-138541546D01*
X179607171Y-138580258D01*
X179743418Y-138653084D01*
X179891255Y-138697929D01*
X180045000Y-138713072D01*
X180345000Y-138713072D01*
X180498745Y-138697929D01*
X180646582Y-138653084D01*
X180782829Y-138580258D01*
X180830000Y-138541546D01*
X180877171Y-138580258D01*
X181013418Y-138653084D01*
X181161255Y-138697929D01*
X181315000Y-138713072D01*
X181615000Y-138713072D01*
X181768745Y-138697929D01*
X181916582Y-138653084D01*
X182050936Y-138581270D01*
X182080506Y-138605537D01*
X182190820Y-138664502D01*
X182310518Y-138700812D01*
X182435000Y-138713072D01*
X182449250Y-138710000D01*
X182608000Y-138551250D01*
X182608000Y-137177000D01*
X182862000Y-137177000D01*
X182862000Y-138551250D01*
X183020750Y-138710000D01*
X183035000Y-138713072D01*
X183159482Y-138700812D01*
X183279180Y-138664502D01*
X183370000Y-138615957D01*
X183460820Y-138664502D01*
X183580518Y-138700812D01*
X183705000Y-138713072D01*
X183719250Y-138710000D01*
X183878000Y-138551250D01*
X183878000Y-137177000D01*
X184132000Y-137177000D01*
X184132000Y-138551250D01*
X184290750Y-138710000D01*
X184305000Y-138713072D01*
X184429482Y-138700812D01*
X184549180Y-138664502D01*
X184640000Y-138615957D01*
X184730820Y-138664502D01*
X184850518Y-138700812D01*
X184975000Y-138713072D01*
X184989250Y-138710000D01*
X185148000Y-138551250D01*
X185148000Y-137177000D01*
X185402000Y-137177000D01*
X185402000Y-138551250D01*
X185560750Y-138710000D01*
X185575000Y-138713072D01*
X185699482Y-138700812D01*
X185819180Y-138664502D01*
X185910000Y-138615957D01*
X186000820Y-138664502D01*
X186120518Y-138700812D01*
X186245000Y-138713072D01*
X186259250Y-138710000D01*
X186418000Y-138551250D01*
X186418000Y-137177000D01*
X186672000Y-137177000D01*
X186672000Y-138551250D01*
X186830750Y-138710000D01*
X186845000Y-138713072D01*
X186969482Y-138700812D01*
X187089180Y-138664502D01*
X187199494Y-138605537D01*
X187296185Y-138526185D01*
X187375537Y-138429494D01*
X187434502Y-138319180D01*
X187470812Y-138199482D01*
X187483072Y-138075000D01*
X187480000Y-137335750D01*
X187321250Y-137177000D01*
X186672000Y-137177000D01*
X186418000Y-137177000D01*
X185402000Y-137177000D01*
X185148000Y-137177000D01*
X184132000Y-137177000D01*
X183878000Y-137177000D01*
X182862000Y-137177000D01*
X182608000Y-137177000D01*
X182588000Y-137177000D01*
X182588000Y-136923000D01*
X182608000Y-136923000D01*
X182608000Y-135548750D01*
X182862000Y-135548750D01*
X182862000Y-136923000D01*
X183878000Y-136923000D01*
X183878000Y-135548750D01*
X184132000Y-135548750D01*
X184132000Y-136923000D01*
X185148000Y-136923000D01*
X185148000Y-135548750D01*
X185402000Y-135548750D01*
X185402000Y-136923000D01*
X186418000Y-136923000D01*
X186418000Y-135548750D01*
X186672000Y-135548750D01*
X186672000Y-136923000D01*
X187321250Y-136923000D01*
X187480000Y-136764250D01*
X187483072Y-136025000D01*
X187470812Y-135900518D01*
X187434502Y-135780820D01*
X187375537Y-135670506D01*
X187296185Y-135573815D01*
X187199494Y-135494463D01*
X187089180Y-135435498D01*
X186969482Y-135399188D01*
X186845000Y-135386928D01*
X186830750Y-135390000D01*
X186672000Y-135548750D01*
X186418000Y-135548750D01*
X186259250Y-135390000D01*
X186245000Y-135386928D01*
X186120518Y-135399188D01*
X186000820Y-135435498D01*
X185910000Y-135484043D01*
X185819180Y-135435498D01*
X185699482Y-135399188D01*
X185575000Y-135386928D01*
X185560750Y-135390000D01*
X185402000Y-135548750D01*
X185148000Y-135548750D01*
X184989250Y-135390000D01*
X184975000Y-135386928D01*
X184850518Y-135399188D01*
X184730820Y-135435498D01*
X184640000Y-135484043D01*
X184549180Y-135435498D01*
X184429482Y-135399188D01*
X184305000Y-135386928D01*
X184290750Y-135390000D01*
X184132000Y-135548750D01*
X183878000Y-135548750D01*
X183719250Y-135390000D01*
X183705000Y-135386928D01*
X183580518Y-135399188D01*
X183460820Y-135435498D01*
X183370000Y-135484043D01*
X183279180Y-135435498D01*
X183159482Y-135399188D01*
X183035000Y-135386928D01*
X183020750Y-135390000D01*
X182862000Y-135548750D01*
X182608000Y-135548750D01*
X182449250Y-135390000D01*
X182435000Y-135386928D01*
X182310518Y-135399188D01*
X182190820Y-135435498D01*
X182080506Y-135494463D01*
X182050936Y-135518730D01*
X181916582Y-135446916D01*
X181768745Y-135402071D01*
X181615000Y-135386928D01*
X181315000Y-135386928D01*
X181161255Y-135402071D01*
X181085644Y-135425007D01*
X181112205Y-135385256D01*
X181190226Y-135196898D01*
X181230000Y-134996939D01*
X181230000Y-134793061D01*
X181190226Y-134593102D01*
X181112205Y-134404744D01*
X180998937Y-134235226D01*
X180854774Y-134091063D01*
X180685256Y-133977795D01*
X180496898Y-133899774D01*
X180296939Y-133860000D01*
X180093061Y-133860000D01*
X179935000Y-133891440D01*
X179935000Y-133524606D01*
X179939886Y-133475001D01*
X179935000Y-133425392D01*
X179935000Y-130252621D01*
X179960000Y-130126937D01*
X179960000Y-129923059D01*
X179935000Y-129797375D01*
X179935000Y-128593355D01*
X180218356Y-128310000D01*
X183772377Y-128310000D01*
X183898061Y-128335000D01*
X184101939Y-128335000D01*
X184301898Y-128295226D01*
X184490256Y-128217205D01*
X184659774Y-128103937D01*
X184803937Y-127959774D01*
X184917205Y-127790256D01*
X184995226Y-127601898D01*
X185035000Y-127401939D01*
X185035000Y-127198061D01*
X184995226Y-126998102D01*
X184917205Y-126809744D01*
X184803937Y-126640226D01*
X184659774Y-126496063D01*
X184490256Y-126382795D01*
X184301898Y-126304774D01*
X184101939Y-126265000D01*
X183898061Y-126265000D01*
X183772377Y-126290000D01*
X179849608Y-126290000D01*
X179800000Y-126285114D01*
X179602005Y-126304615D01*
X179411620Y-126362368D01*
X179236160Y-126456153D01*
X179082367Y-126582367D01*
X179050743Y-126620901D01*
X178245905Y-127425739D01*
X178207367Y-127457367D01*
X178081153Y-127611160D01*
X177987369Y-127786620D01*
X177987368Y-127786621D01*
X177929615Y-127977006D01*
X177910114Y-128175000D01*
X177915000Y-128224608D01*
X177915000Y-129090000D01*
X177379253Y-129090000D01*
X177302962Y-128997038D01*
X177168386Y-128886595D01*
X177014850Y-128804528D01*
X176848254Y-128753992D01*
X176675000Y-128736928D01*
X176000000Y-128736928D01*
X175826746Y-128753992D01*
X175660150Y-128804528D01*
X175506614Y-128886595D01*
X175372038Y-128997038D01*
X175366658Y-129003594D01*
X175301185Y-128923815D01*
X175204494Y-128844463D01*
X175094180Y-128785498D01*
X174974482Y-128749188D01*
X174850000Y-128736928D01*
X174548250Y-128740000D01*
X174389500Y-128898750D01*
X174135500Y-128898750D01*
X173976750Y-128740000D01*
X173675000Y-128736928D01*
X173550518Y-128749188D01*
X173430820Y-128785498D01*
X173320506Y-128844463D01*
X173223815Y-128923815D01*
X173144463Y-129020506D01*
X173085498Y-129130820D01*
X173049188Y-129250518D01*
X173036928Y-129375000D01*
X150273028Y-129375000D01*
X150289502Y-129344180D01*
X150325812Y-129224482D01*
X150338072Y-129100000D01*
X150338072Y-127500000D01*
X150325812Y-127375518D01*
X150289502Y-127255820D01*
X150230537Y-127145506D01*
X150151185Y-127048815D01*
X150054494Y-126969463D01*
X149944180Y-126910498D01*
X149824482Y-126874188D01*
X149700000Y-126861928D01*
X148100000Y-126861928D01*
X147975518Y-126874188D01*
X147855820Y-126910498D01*
X147745506Y-126969463D01*
X147648815Y-127048815D01*
X147569463Y-127145506D01*
X147510498Y-127255820D01*
X147474188Y-127375518D01*
X147461928Y-127500000D01*
X146437340Y-127500000D01*
X146392702Y-127486903D01*
X145579605Y-128300000D01*
X145220395Y-128300000D01*
X144407298Y-127486903D01*
X144163329Y-127558486D01*
X144042429Y-127813996D01*
X143973700Y-128088184D01*
X143959783Y-128370512D01*
X138930893Y-128370512D01*
X137907801Y-127307298D01*
X144586903Y-127307298D01*
X145400000Y-128120395D01*
X146213097Y-127307298D01*
X146141514Y-127063329D01*
X145886004Y-126942429D01*
X145611816Y-126873700D01*
X145329488Y-126859783D01*
X145049870Y-126901213D01*
X144783708Y-126996397D01*
X144658486Y-127063329D01*
X144586903Y-127307298D01*
X137907801Y-127307298D01*
X136468872Y-125811941D01*
X136449934Y-125795780D01*
X136428207Y-125783623D01*
X136404526Y-125775940D01*
X136379801Y-125773023D01*
X136347331Y-125776601D01*
X135477598Y-125988244D01*
X135501624Y-119477050D01*
X138715000Y-119477050D01*
X138715000Y-119922949D01*
X138736487Y-120141110D01*
X138821401Y-120421033D01*
X138959294Y-120679013D01*
X139144866Y-120905134D01*
X139370986Y-121090706D01*
X139628966Y-121228599D01*
X139908889Y-121313513D01*
X140200000Y-121342185D01*
X140491110Y-121313513D01*
X140771033Y-121228599D01*
X141029013Y-121090706D01*
X141255134Y-120905134D01*
X141307223Y-120841663D01*
X141361595Y-120943386D01*
X141472038Y-121077962D01*
X141606614Y-121188405D01*
X141760150Y-121270472D01*
X141926746Y-121321008D01*
X142100000Y-121338072D01*
X143300000Y-121338072D01*
X143473254Y-121321008D01*
X143639850Y-121270472D01*
X143793386Y-121188405D01*
X143927962Y-121077962D01*
X144038405Y-120943386D01*
X144120472Y-120789850D01*
X144171008Y-120623254D01*
X144188072Y-120450000D01*
X144188072Y-118950000D01*
X144171008Y-118776746D01*
X144120472Y-118610150D01*
X144038405Y-118456614D01*
X143927962Y-118322038D01*
X143793386Y-118211595D01*
X143639850Y-118129528D01*
X143473254Y-118078992D01*
X143300000Y-118061928D01*
X142100000Y-118061928D01*
X141926746Y-118078992D01*
X141760150Y-118129528D01*
X141606614Y-118211595D01*
X141472038Y-118322038D01*
X141361595Y-118456614D01*
X141307223Y-118558337D01*
X141255134Y-118494866D01*
X141029014Y-118309294D01*
X140771034Y-118171401D01*
X140491111Y-118086487D01*
X140200000Y-118057815D01*
X139908890Y-118086487D01*
X139628967Y-118171401D01*
X139370987Y-118309294D01*
X139144866Y-118494866D01*
X138959294Y-118720986D01*
X138821401Y-118978966D01*
X138736487Y-119258889D01*
X138715000Y-119477050D01*
X135501624Y-119477050D01*
X135518329Y-114949764D01*
X146729841Y-114949764D01*
X146777148Y-115173348D01*
X146998516Y-115274237D01*
X147235313Y-115330000D01*
X147478438Y-115338495D01*
X147718549Y-115299395D01*
X147946418Y-115214202D01*
X148022852Y-115173348D01*
X148070159Y-114949764D01*
X147400000Y-114279605D01*
X146729841Y-114949764D01*
X135518329Y-114949764D01*
X135576966Y-99059406D01*
X135611982Y-98818249D01*
X135613300Y-98800179D01*
X135615704Y-97098061D01*
X143565000Y-97098061D01*
X143565000Y-97301939D01*
X143604774Y-97501898D01*
X143682795Y-97690256D01*
X143796063Y-97859774D01*
X143840000Y-97903711D01*
X143840001Y-103696288D01*
X143796063Y-103740226D01*
X143682795Y-103909744D01*
X143604774Y-104098102D01*
X143565000Y-104298061D01*
X143565000Y-104501939D01*
X143604774Y-104701898D01*
X143682795Y-104890256D01*
X143796063Y-105059774D01*
X143940226Y-105203937D01*
X144109744Y-105317205D01*
X144298102Y-105395226D01*
X144498061Y-105435000D01*
X144701939Y-105435000D01*
X144901898Y-105395226D01*
X145090256Y-105317205D01*
X145259774Y-105203937D01*
X145403937Y-105059774D01*
X145517205Y-104890256D01*
X145595226Y-104701898D01*
X145635000Y-104501939D01*
X145635000Y-104298061D01*
X145595226Y-104098102D01*
X145517205Y-103909744D01*
X145403937Y-103740226D01*
X145360000Y-103696289D01*
X145360000Y-97903711D01*
X145403937Y-97859774D01*
X145517205Y-97690256D01*
X145595226Y-97501898D01*
X145635000Y-97301939D01*
X145635000Y-97098061D01*
X145595226Y-96898102D01*
X145517205Y-96709744D01*
X145403937Y-96540226D01*
X145259774Y-96396063D01*
X145090256Y-96282795D01*
X144901898Y-96204774D01*
X144701939Y-96165000D01*
X144498061Y-96165000D01*
X144298102Y-96204774D01*
X144109744Y-96282795D01*
X143940226Y-96396063D01*
X143796063Y-96540226D01*
X143682795Y-96709744D01*
X143604774Y-96898102D01*
X143565000Y-97098061D01*
X135615704Y-97098061D01*
X135618067Y-95425282D01*
X135734636Y-95541851D01*
X136059750Y-95759085D01*
X136420997Y-95908718D01*
X136804495Y-95985000D01*
X137195505Y-95985000D01*
X137579003Y-95908718D01*
X137940250Y-95759085D01*
X138265364Y-95541851D01*
X138541851Y-95265364D01*
X138759085Y-94940250D01*
X138908718Y-94579003D01*
X138985000Y-94195505D01*
X138985000Y-93804495D01*
X138908718Y-93420997D01*
X138759085Y-93059750D01*
X138541851Y-92734636D01*
X138265364Y-92458149D01*
X137940250Y-92240915D01*
X137579003Y-92091282D01*
X137195505Y-92015000D01*
X136804495Y-92015000D01*
X136420997Y-92091282D01*
X136059750Y-92240915D01*
X135734636Y-92458149D01*
X135622099Y-92570686D01*
X135626481Y-89467458D01*
X142915700Y-89467458D01*
X142915700Y-89740142D01*
X142968898Y-90007585D01*
X143073249Y-90259512D01*
X143224744Y-90486240D01*
X143417560Y-90679056D01*
X143644288Y-90830551D01*
X143896215Y-90934902D01*
X144163658Y-90988100D01*
X144436342Y-90988100D01*
X144703785Y-90934902D01*
X144955712Y-90830551D01*
X145182440Y-90679056D01*
X145375256Y-90486240D01*
X145526751Y-90259512D01*
X145631102Y-90007585D01*
X145684300Y-89740142D01*
X145684300Y-89467458D01*
X145631102Y-89200015D01*
X145526751Y-88948088D01*
X145375256Y-88721360D01*
X145182440Y-88528544D01*
X144955712Y-88377049D01*
X144703785Y-88272698D01*
X144436342Y-88219500D01*
X144163658Y-88219500D01*
X143896215Y-88272698D01*
X143644288Y-88377049D01*
X143417560Y-88528544D01*
X143224744Y-88721360D01*
X143073249Y-88948088D01*
X142968898Y-89200015D01*
X142915700Y-89467458D01*
X135626481Y-89467458D01*
X135632005Y-85556493D01*
X143523112Y-85556493D01*
X143588552Y-85795290D01*
X143835412Y-85911120D01*
X144100126Y-85976564D01*
X144372521Y-85989107D01*
X144642129Y-85948268D01*
X144898589Y-85855615D01*
X145011448Y-85795290D01*
X145076888Y-85556493D01*
X144300000Y-84779605D01*
X143523112Y-85556493D01*
X135632005Y-85556493D01*
X135633254Y-84672521D01*
X142910893Y-84672521D01*
X142951732Y-84942129D01*
X143044385Y-85198589D01*
X143104710Y-85311448D01*
X143343507Y-85376888D01*
X144120395Y-84600000D01*
X144479605Y-84600000D01*
X145256493Y-85376888D01*
X145495290Y-85311448D01*
X145611120Y-85064588D01*
X145676564Y-84799874D01*
X145689107Y-84527479D01*
X145648268Y-84257871D01*
X145555615Y-84001411D01*
X145495290Y-83888552D01*
X145256493Y-83823112D01*
X144479605Y-84600000D01*
X144120395Y-84600000D01*
X143343507Y-83823112D01*
X143104710Y-83888552D01*
X142988880Y-84135412D01*
X142923436Y-84400126D01*
X142910893Y-84672521D01*
X135633254Y-84672521D01*
X135634707Y-83643507D01*
X143523112Y-83643507D01*
X144300000Y-84420395D01*
X145076888Y-83643507D01*
X145011448Y-83404710D01*
X144764588Y-83288880D01*
X144499874Y-83223436D01*
X144227479Y-83210893D01*
X143957871Y-83251732D01*
X143701411Y-83344385D01*
X143588552Y-83404710D01*
X143523112Y-83643507D01*
X135634707Y-83643507D01*
X135640701Y-79400179D01*
X135638296Y-79375399D01*
X135631102Y-79351565D01*
X135617821Y-79327281D01*
X135570160Y-79259040D01*
X135525344Y-76704495D01*
X141015000Y-76704495D01*
X141015000Y-77095505D01*
X141091282Y-77479003D01*
X141240915Y-77840250D01*
X141458149Y-78165364D01*
X141734636Y-78441851D01*
X142059750Y-78659085D01*
X142420997Y-78808718D01*
X142804495Y-78885000D01*
X143195505Y-78885000D01*
X143579003Y-78808718D01*
X143940250Y-78659085D01*
X144265364Y-78441851D01*
X144541851Y-78165364D01*
X144759085Y-77840250D01*
X144908718Y-77479003D01*
X144985000Y-77095505D01*
X144985000Y-76704495D01*
X144908718Y-76320997D01*
X144759085Y-75959750D01*
X144541851Y-75634636D01*
X144265364Y-75358149D01*
X143940250Y-75140915D01*
X143579003Y-74991282D01*
X143195505Y-74915000D01*
X142804495Y-74915000D01*
X142420997Y-74991282D01*
X142059750Y-75140915D01*
X141734636Y-75358149D01*
X141458149Y-75634636D01*
X141240915Y-75959750D01*
X141091282Y-76320997D01*
X141015000Y-76704495D01*
X135525344Y-76704495D01*
X135485420Y-74428802D01*
X147490000Y-74595027D01*
%TA.AperFunction,Conductor*%
D27*
G36*
X147490000Y-74595027D02*
G01*
X147490001Y-77350382D01*
X147485114Y-77400000D01*
X147504615Y-77597994D01*
X147562368Y-77788379D01*
X147609915Y-77877333D01*
X147656154Y-77963840D01*
X147782368Y-78117633D01*
X147820902Y-78149257D01*
X148090000Y-78418355D01*
X148090001Y-111370792D01*
X148000000Y-111361928D01*
X146800000Y-111361928D01*
X146675518Y-111374188D01*
X146555820Y-111410498D01*
X146445506Y-111469463D01*
X146348815Y-111548815D01*
X146315015Y-111590000D01*
X142827623Y-111590000D01*
X142701939Y-111565000D01*
X142498061Y-111565000D01*
X142298102Y-111604774D01*
X142109744Y-111682795D01*
X141940226Y-111796063D01*
X141796063Y-111940226D01*
X141682795Y-112109744D01*
X141604774Y-112298102D01*
X141565000Y-112498061D01*
X141565000Y-112701939D01*
X141604774Y-112901898D01*
X141682795Y-113090256D01*
X141796063Y-113259774D01*
X141940226Y-113403937D01*
X142109744Y-113517205D01*
X142298102Y-113595226D01*
X142498061Y-113635000D01*
X142701939Y-113635000D01*
X142827623Y-113610000D01*
X146266104Y-113610000D01*
X146225763Y-113698516D01*
X146170000Y-113935313D01*
X146161505Y-114178438D01*
X146200605Y-114418549D01*
X146285798Y-114646418D01*
X146326652Y-114722852D01*
X146550236Y-114770159D01*
X147220395Y-114100000D01*
X147206253Y-114085858D01*
X147385858Y-113906253D01*
X147400000Y-113920395D01*
X147414143Y-113906253D01*
X147593748Y-114085858D01*
X147579605Y-114100000D01*
X148249764Y-114770159D01*
X148259627Y-114768072D01*
X148382368Y-114917633D01*
X148420901Y-114949256D01*
X150610744Y-117139100D01*
X150642367Y-117177633D01*
X150796160Y-117303847D01*
X150971620Y-117397632D01*
X151162005Y-117455385D01*
X151336962Y-117472617D01*
X151409465Y-117545120D01*
X151638273Y-117698005D01*
X151892510Y-117803314D01*
X152162408Y-117857000D01*
X152437592Y-117857000D01*
X152707490Y-117803314D01*
X152961727Y-117698005D01*
X153190535Y-117545120D01*
X153385120Y-117350535D01*
X153538005Y-117121727D01*
X153643314Y-116867490D01*
X153697000Y-116597592D01*
X153697000Y-116322408D01*
X176303000Y-116322408D01*
X176303000Y-116597592D01*
X176356686Y-116867490D01*
X176461995Y-117121727D01*
X176614880Y-117350535D01*
X176809465Y-117545120D01*
X177038273Y-117698005D01*
X177292510Y-117803314D01*
X177562408Y-117857000D01*
X177837592Y-117857000D01*
X178107490Y-117803314D01*
X178361727Y-117698005D01*
X178590535Y-117545120D01*
X178785120Y-117350535D01*
X178938005Y-117121727D01*
X179043314Y-116867490D01*
X179097000Y-116597592D01*
X179097000Y-116322408D01*
X179043314Y-116052510D01*
X178938005Y-115798273D01*
X178785120Y-115569465D01*
X178590535Y-115374880D01*
X178361727Y-115221995D01*
X178290057Y-115192308D01*
X178303023Y-115187636D01*
X178418980Y-115125656D01*
X178485960Y-114885565D01*
X177700000Y-114099605D01*
X176914040Y-114885565D01*
X176981020Y-115125656D01*
X177116760Y-115189485D01*
X177038273Y-115221995D01*
X176809465Y-115374880D01*
X176614880Y-115569465D01*
X176461995Y-115798273D01*
X176356686Y-116052510D01*
X176303000Y-116322408D01*
X153697000Y-116322408D01*
X153643314Y-116052510D01*
X153538005Y-115798273D01*
X153385120Y-115569465D01*
X153190535Y-115374880D01*
X152961727Y-115221995D01*
X152890057Y-115192308D01*
X152903023Y-115187636D01*
X153018980Y-115125656D01*
X153085960Y-114885565D01*
X152300000Y-114099605D01*
X151514040Y-114885565D01*
X151581020Y-115125656D01*
X151716760Y-115189485D01*
X151638273Y-115221995D01*
X151585568Y-115257212D01*
X150320373Y-113992017D01*
X150898090Y-113992017D01*
X150939078Y-114264133D01*
X151032364Y-114523023D01*
X151094344Y-114638980D01*
X151334435Y-114705960D01*
X152120395Y-113920000D01*
X152479605Y-113920000D01*
X153265565Y-114705960D01*
X153505656Y-114638980D01*
X153622756Y-114389952D01*
X153689023Y-114122865D01*
X153695157Y-113992017D01*
X176298090Y-113992017D01*
X176339078Y-114264133D01*
X176432364Y-114523023D01*
X176494344Y-114638980D01*
X176734435Y-114705960D01*
X177520395Y-113920000D01*
X177879605Y-113920000D01*
X178665565Y-114705960D01*
X178905656Y-114638980D01*
X179022756Y-114389952D01*
X179089023Y-114122865D01*
X179101910Y-113847983D01*
X179060922Y-113575867D01*
X178967636Y-113316977D01*
X178905656Y-113201020D01*
X178665565Y-113134040D01*
X177879605Y-113920000D01*
X177520395Y-113920000D01*
X176734435Y-113134040D01*
X176494344Y-113201020D01*
X176377244Y-113450048D01*
X176310977Y-113717135D01*
X176298090Y-113992017D01*
X153695157Y-113992017D01*
X153701910Y-113847983D01*
X153660922Y-113575867D01*
X153567636Y-113316977D01*
X153505656Y-113201020D01*
X153265565Y-113134040D01*
X152479605Y-113920000D01*
X152120395Y-113920000D01*
X151334435Y-113134040D01*
X151094344Y-113201020D01*
X150977244Y-113450048D01*
X150910977Y-113717135D01*
X150898090Y-113992017D01*
X150320373Y-113992017D01*
X150110000Y-113781645D01*
X150110000Y-112549606D01*
X150114886Y-112500001D01*
X150110000Y-112450392D01*
X150110000Y-79527000D01*
X152041752Y-79527000D01*
X151892510Y-79556686D01*
X151638273Y-79661995D01*
X151409465Y-79814880D01*
X151214880Y-80009465D01*
X151061995Y-80238273D01*
X150956686Y-80492510D01*
X150903000Y-80762408D01*
X150903000Y-81037592D01*
X150956686Y-81307490D01*
X151061995Y-81561727D01*
X151214880Y-81790535D01*
X151409465Y-81985120D01*
X151638273Y-82138005D01*
X151715515Y-82170000D01*
X151638273Y-82201995D01*
X151409465Y-82354880D01*
X151214880Y-82549465D01*
X151061995Y-82778273D01*
X150956686Y-83032510D01*
X150903000Y-83302408D01*
X150903000Y-83577592D01*
X150956686Y-83847490D01*
X151061995Y-84101727D01*
X151214880Y-84330535D01*
X151409465Y-84525120D01*
X151638273Y-84678005D01*
X151715515Y-84710000D01*
X151638273Y-84741995D01*
X151409465Y-84894880D01*
X151214880Y-85089465D01*
X151061995Y-85318273D01*
X150956686Y-85572510D01*
X150903000Y-85842408D01*
X150903000Y-86117592D01*
X150956686Y-86387490D01*
X151061995Y-86641727D01*
X151214880Y-86870535D01*
X151409465Y-87065120D01*
X151638273Y-87218005D01*
X151715515Y-87250000D01*
X151638273Y-87281995D01*
X151409465Y-87434880D01*
X151214880Y-87629465D01*
X151061995Y-87858273D01*
X150956686Y-88112510D01*
X150903000Y-88382408D01*
X150903000Y-88657592D01*
X150956686Y-88927490D01*
X151061995Y-89181727D01*
X151214880Y-89410535D01*
X151409465Y-89605120D01*
X151638273Y-89758005D01*
X151715515Y-89790000D01*
X151638273Y-89821995D01*
X151409465Y-89974880D01*
X151214880Y-90169465D01*
X151061995Y-90398273D01*
X150956686Y-90652510D01*
X150903000Y-90922408D01*
X150903000Y-91197592D01*
X150956686Y-91467490D01*
X151061995Y-91721727D01*
X151214880Y-91950535D01*
X151409465Y-92145120D01*
X151638273Y-92298005D01*
X151715515Y-92330000D01*
X151638273Y-92361995D01*
X151409465Y-92514880D01*
X151214880Y-92709465D01*
X151061995Y-92938273D01*
X150956686Y-93192510D01*
X150903000Y-93462408D01*
X150903000Y-93737592D01*
X150956686Y-94007490D01*
X151061995Y-94261727D01*
X151214880Y-94490535D01*
X151409465Y-94685120D01*
X151638273Y-94838005D01*
X151715515Y-94870000D01*
X151638273Y-94901995D01*
X151409465Y-95054880D01*
X151214880Y-95249465D01*
X151061995Y-95478273D01*
X150956686Y-95732510D01*
X150903000Y-96002408D01*
X150903000Y-96277592D01*
X150956686Y-96547490D01*
X151061995Y-96801727D01*
X151214880Y-97030535D01*
X151409465Y-97225120D01*
X151638273Y-97378005D01*
X151715515Y-97410000D01*
X151638273Y-97441995D01*
X151409465Y-97594880D01*
X151214880Y-97789465D01*
X151061995Y-98018273D01*
X150956686Y-98272510D01*
X150903000Y-98542408D01*
X150903000Y-98817592D01*
X150956686Y-99087490D01*
X151061995Y-99341727D01*
X151214880Y-99570535D01*
X151409465Y-99765120D01*
X151638273Y-99918005D01*
X151715515Y-99950000D01*
X151638273Y-99981995D01*
X151409465Y-100134880D01*
X151214880Y-100329465D01*
X151061995Y-100558273D01*
X150956686Y-100812510D01*
X150903000Y-101082408D01*
X150903000Y-101357592D01*
X150956686Y-101627490D01*
X151061995Y-101881727D01*
X151214880Y-102110535D01*
X151409465Y-102305120D01*
X151638273Y-102458005D01*
X151715515Y-102490000D01*
X151638273Y-102521995D01*
X151409465Y-102674880D01*
X151214880Y-102869465D01*
X151061995Y-103098273D01*
X150956686Y-103352510D01*
X150903000Y-103622408D01*
X150903000Y-103897592D01*
X150956686Y-104167490D01*
X151061995Y-104421727D01*
X151214880Y-104650535D01*
X151409465Y-104845120D01*
X151638273Y-104998005D01*
X151715515Y-105030000D01*
X151638273Y-105061995D01*
X151409465Y-105214880D01*
X151214880Y-105409465D01*
X151061995Y-105638273D01*
X150956686Y-105892510D01*
X150903000Y-106162408D01*
X150903000Y-106437592D01*
X150956686Y-106707490D01*
X151061995Y-106961727D01*
X151214880Y-107190535D01*
X151409465Y-107385120D01*
X151638273Y-107538005D01*
X151715515Y-107570000D01*
X151638273Y-107601995D01*
X151409465Y-107754880D01*
X151214880Y-107949465D01*
X151061995Y-108178273D01*
X150956686Y-108432510D01*
X150903000Y-108702408D01*
X150903000Y-108977592D01*
X150956686Y-109247490D01*
X151061995Y-109501727D01*
X151214880Y-109730535D01*
X151409465Y-109925120D01*
X151638273Y-110078005D01*
X151715515Y-110110000D01*
X151638273Y-110141995D01*
X151409465Y-110294880D01*
X151214880Y-110489465D01*
X151061995Y-110718273D01*
X150956686Y-110972510D01*
X150903000Y-111242408D01*
X150903000Y-111517592D01*
X150956686Y-111787490D01*
X151061995Y-112041727D01*
X151214880Y-112270535D01*
X151409465Y-112465120D01*
X151638273Y-112618005D01*
X151709943Y-112647692D01*
X151696977Y-112652364D01*
X151581020Y-112714344D01*
X151514040Y-112954435D01*
X152300000Y-113740395D01*
X153085960Y-112954435D01*
X153018980Y-112714344D01*
X152883240Y-112650515D01*
X152961727Y-112618005D01*
X153190535Y-112465120D01*
X153385120Y-112270535D01*
X153538005Y-112041727D01*
X153643314Y-111787490D01*
X153697000Y-111517592D01*
X153697000Y-111242408D01*
X153643314Y-110972510D01*
X153538005Y-110718273D01*
X153385120Y-110489465D01*
X153190535Y-110294880D01*
X152961727Y-110141995D01*
X152884485Y-110110000D01*
X152961727Y-110078005D01*
X153190535Y-109925120D01*
X153385120Y-109730535D01*
X153538005Y-109501727D01*
X153643314Y-109247490D01*
X153697000Y-108977592D01*
X153697000Y-108702408D01*
X153643314Y-108432510D01*
X153538005Y-108178273D01*
X153385120Y-107949465D01*
X153190535Y-107754880D01*
X152961727Y-107601995D01*
X152884485Y-107570000D01*
X152961727Y-107538005D01*
X153190535Y-107385120D01*
X153385120Y-107190535D01*
X153538005Y-106961727D01*
X153643314Y-106707490D01*
X153697000Y-106437592D01*
X153697000Y-106162408D01*
X153643314Y-105892510D01*
X153538005Y-105638273D01*
X153385120Y-105409465D01*
X153190535Y-105214880D01*
X152961727Y-105061995D01*
X152884485Y-105030000D01*
X152961727Y-104998005D01*
X153190535Y-104845120D01*
X153385120Y-104650535D01*
X153538005Y-104421727D01*
X153643314Y-104167490D01*
X153697000Y-103897592D01*
X153697000Y-103622408D01*
X153643314Y-103352510D01*
X153538005Y-103098273D01*
X153385120Y-102869465D01*
X153190535Y-102674880D01*
X152961727Y-102521995D01*
X152884485Y-102490000D01*
X152961727Y-102458005D01*
X153190535Y-102305120D01*
X153385120Y-102110535D01*
X153538005Y-101881727D01*
X153643314Y-101627490D01*
X153697000Y-101357592D01*
X153697000Y-101082408D01*
X153643314Y-100812510D01*
X153538005Y-100558273D01*
X153385120Y-100329465D01*
X153190535Y-100134880D01*
X152961727Y-99981995D01*
X152884485Y-99950000D01*
X152961727Y-99918005D01*
X153190535Y-99765120D01*
X153385120Y-99570535D01*
X153538005Y-99341727D01*
X153643314Y-99087490D01*
X153697000Y-98817592D01*
X153697000Y-98542408D01*
X153643314Y-98272510D01*
X153538005Y-98018273D01*
X153385120Y-97789465D01*
X153190535Y-97594880D01*
X152961727Y-97441995D01*
X152884485Y-97410000D01*
X152961727Y-97378005D01*
X153190535Y-97225120D01*
X153385120Y-97030535D01*
X153538005Y-96801727D01*
X153643314Y-96547490D01*
X153697000Y-96277592D01*
X153697000Y-96002408D01*
X153643314Y-95732510D01*
X153538005Y-95478273D01*
X153385120Y-95249465D01*
X153190535Y-95054880D01*
X152961727Y-94901995D01*
X152884485Y-94870000D01*
X152961727Y-94838005D01*
X153190535Y-94685120D01*
X153385120Y-94490535D01*
X153538005Y-94261727D01*
X153643314Y-94007490D01*
X153697000Y-93737592D01*
X153697000Y-93462408D01*
X153643314Y-93192510D01*
X153538005Y-92938273D01*
X153385120Y-92709465D01*
X153190535Y-92514880D01*
X152961727Y-92361995D01*
X152884485Y-92330000D01*
X152961727Y-92298005D01*
X153190535Y-92145120D01*
X153385120Y-91950535D01*
X153472341Y-91820000D01*
X157345199Y-91820000D01*
X159040000Y-93514802D01*
X159040001Y-101696288D01*
X158996063Y-101740226D01*
X158882795Y-101909744D01*
X158804774Y-102098102D01*
X158765000Y-102298061D01*
X158765000Y-102501939D01*
X158804774Y-102701898D01*
X158882795Y-102890256D01*
X158996063Y-103059774D01*
X159140226Y-103203937D01*
X159309744Y-103317205D01*
X159498102Y-103395226D01*
X159698061Y-103435000D01*
X159901939Y-103435000D01*
X160101898Y-103395226D01*
X160290256Y-103317205D01*
X160459774Y-103203937D01*
X160603937Y-103059774D01*
X160717205Y-102890256D01*
X160795226Y-102701898D01*
X160835000Y-102501939D01*
X160835000Y-102298061D01*
X160795226Y-102098102D01*
X160717205Y-101909744D01*
X160603937Y-101740226D01*
X160560000Y-101696289D01*
X160560000Y-99934801D01*
X172516201Y-111891003D01*
X172539999Y-111920001D01*
X172655724Y-112014974D01*
X172787753Y-112085546D01*
X172931014Y-112129003D01*
X173042667Y-112140000D01*
X173042676Y-112140000D01*
X173079999Y-112143676D01*
X173117322Y-112140000D01*
X176527659Y-112140000D01*
X176614880Y-112270535D01*
X176809465Y-112465120D01*
X177038273Y-112618005D01*
X177109943Y-112647692D01*
X177096977Y-112652364D01*
X176981020Y-112714344D01*
X176914040Y-112954435D01*
X177700000Y-113740395D01*
X178485960Y-112954435D01*
X178418980Y-112714344D01*
X178283240Y-112650515D01*
X178361727Y-112618005D01*
X178590535Y-112465120D01*
X178785120Y-112270535D01*
X178938005Y-112041727D01*
X179043314Y-111787490D01*
X179097000Y-111517592D01*
X179097000Y-111242408D01*
X179043314Y-110972510D01*
X178938005Y-110718273D01*
X178785120Y-110489465D01*
X178590535Y-110294880D01*
X178361727Y-110141995D01*
X178284485Y-110110000D01*
X178361727Y-110078005D01*
X178590535Y-109925120D01*
X178785120Y-109730535D01*
X178938005Y-109501727D01*
X179043314Y-109247490D01*
X179097000Y-108977592D01*
X179097000Y-108702408D01*
X179043314Y-108432510D01*
X178938005Y-108178273D01*
X178785120Y-107949465D01*
X178590535Y-107754880D01*
X178361727Y-107601995D01*
X178284485Y-107570000D01*
X178361727Y-107538005D01*
X178590535Y-107385120D01*
X178785120Y-107190535D01*
X178938005Y-106961727D01*
X179043314Y-106707490D01*
X179097000Y-106437592D01*
X179097000Y-106162408D01*
X179043314Y-105892510D01*
X178938005Y-105638273D01*
X178785120Y-105409465D01*
X178590535Y-105214880D01*
X178361727Y-105061995D01*
X178284485Y-105030000D01*
X178361727Y-104998005D01*
X178590535Y-104845120D01*
X178785120Y-104650535D01*
X178938005Y-104421727D01*
X179043314Y-104167490D01*
X179097000Y-103897592D01*
X179097000Y-103622408D01*
X179043314Y-103352510D01*
X178938005Y-103098273D01*
X178785120Y-102869465D01*
X178590535Y-102674880D01*
X178361727Y-102521995D01*
X178284485Y-102490000D01*
X178361727Y-102458005D01*
X178590535Y-102305120D01*
X178785120Y-102110535D01*
X178938005Y-101881727D01*
X179043314Y-101627490D01*
X179097000Y-101357592D01*
X179097000Y-101082408D01*
X179043314Y-100812510D01*
X178938005Y-100558273D01*
X178785120Y-100329465D01*
X178590535Y-100134880D01*
X178361727Y-99981995D01*
X178284485Y-99950000D01*
X178361727Y-99918005D01*
X178590535Y-99765120D01*
X178785120Y-99570535D01*
X178938005Y-99341727D01*
X179043314Y-99087490D01*
X179097000Y-98817592D01*
X179097000Y-98542408D01*
X179043314Y-98272510D01*
X178938005Y-98018273D01*
X178785120Y-97789465D01*
X178590535Y-97594880D01*
X178361727Y-97441995D01*
X178284485Y-97410000D01*
X178361727Y-97378005D01*
X178590535Y-97225120D01*
X178785120Y-97030535D01*
X178938005Y-96801727D01*
X179043314Y-96547490D01*
X179097000Y-96277592D01*
X179097000Y-96002408D01*
X179043314Y-95732510D01*
X178938005Y-95478273D01*
X178785120Y-95249465D01*
X178590535Y-95054880D01*
X178361727Y-94901995D01*
X178284485Y-94870000D01*
X178361727Y-94838005D01*
X178590535Y-94685120D01*
X178785120Y-94490535D01*
X178872341Y-94360000D01*
X181262678Y-94360000D01*
X181300000Y-94363676D01*
X181337322Y-94360000D01*
X181337333Y-94360000D01*
X181448986Y-94349003D01*
X181592247Y-94305546D01*
X181724276Y-94234974D01*
X181840001Y-94140001D01*
X181863804Y-94110998D01*
X182079561Y-93895241D01*
X182086771Y-99000179D01*
X182089246Y-99024952D01*
X182096507Y-99048766D01*
X182108274Y-99070706D01*
X182124095Y-99089929D01*
X182143363Y-99105696D01*
X182165336Y-99117401D01*
X182189170Y-99124595D01*
X182213771Y-99127000D01*
X194672529Y-99127000D01*
X194573471Y-125872571D01*
X189566083Y-125855605D01*
X189541299Y-125857961D01*
X189517450Y-125865107D01*
X189495454Y-125876769D01*
X189476155Y-125892498D01*
X189460296Y-125911689D01*
X189448486Y-125933606D01*
X189441178Y-125957406D01*
X189438653Y-125982783D01*
X189460097Y-141165102D01*
X189085199Y-141540000D01*
X182337333Y-141540000D01*
X182324932Y-141538779D01*
X182403937Y-141459774D01*
X182517205Y-141290256D01*
X182595226Y-141101898D01*
X182635000Y-140901939D01*
X182635000Y-140698061D01*
X182595226Y-140498102D01*
X182517205Y-140309744D01*
X182403937Y-140140226D01*
X182259774Y-139996063D01*
X182090256Y-139882795D01*
X181901898Y-139804774D01*
X181701939Y-139765000D01*
X181498061Y-139765000D01*
X181298102Y-139804774D01*
X181109744Y-139882795D01*
X180940226Y-139996063D01*
X180896289Y-140040000D01*
X179737325Y-140040000D01*
X179700000Y-140036324D01*
X179662675Y-140040000D01*
X179662667Y-140040000D01*
X179551014Y-140050997D01*
X179407753Y-140094454D01*
X179275724Y-140165026D01*
X179159999Y-140259999D01*
X179136201Y-140288997D01*
X177143998Y-142281201D01*
X177115000Y-142304999D01*
X177091202Y-142333997D01*
X177091201Y-142333998D01*
X177020026Y-142420724D01*
X176949454Y-142552754D01*
X176905998Y-142696015D01*
X176891324Y-142845000D01*
X176895001Y-142882332D01*
X176895000Y-144982023D01*
X176849742Y-145037171D01*
X176776916Y-145173418D01*
X176732071Y-145321255D01*
X176716928Y-145475000D01*
X176716928Y-147225000D01*
X176732071Y-147378745D01*
X176776916Y-147526582D01*
X176849742Y-147662829D01*
X176947749Y-147782251D01*
X177067171Y-147880258D01*
X177203418Y-147953084D01*
X177351255Y-147997929D01*
X177505000Y-148013072D01*
X177805000Y-148013072D01*
X177958745Y-147997929D01*
X178106582Y-147953084D01*
X178242829Y-147880258D01*
X178290000Y-147841546D01*
X178337171Y-147880258D01*
X178473418Y-147953084D01*
X178621255Y-147997929D01*
X178775000Y-148013072D01*
X179075000Y-148013072D01*
X179228745Y-147997929D01*
X179376582Y-147953084D01*
X179490001Y-147892460D01*
X179490000Y-148945680D01*
X179445506Y-148969463D01*
X179348815Y-149048815D01*
X179269463Y-149145506D01*
X179210498Y-149255820D01*
X179174188Y-149375518D01*
X179161928Y-149500000D01*
X179161928Y-150700000D01*
X179174188Y-150824482D01*
X179210498Y-150944180D01*
X179269463Y-151054494D01*
X179348815Y-151151185D01*
X179445506Y-151230537D01*
X179555820Y-151289502D01*
X179675518Y-151325812D01*
X179800000Y-151338072D01*
X180700000Y-151338072D01*
X180824482Y-151325812D01*
X180944180Y-151289502D01*
X181054494Y-151230537D01*
X181151185Y-151151185D01*
X181230537Y-151054494D01*
X181289502Y-150944180D01*
X181325812Y-150824482D01*
X181338072Y-150700000D01*
X181338072Y-149500000D01*
X181325812Y-149375518D01*
X181289502Y-149255820D01*
X181230537Y-149145506D01*
X181151185Y-149048815D01*
X181054494Y-148969463D01*
X181010000Y-148945680D01*
X181010000Y-147991554D01*
X181040518Y-148000812D01*
X181165000Y-148013072D01*
X181179250Y-148010000D01*
X181338000Y-147851250D01*
X181338000Y-146477000D01*
X181592000Y-146477000D01*
X181592000Y-147851250D01*
X181750750Y-148010000D01*
X181765000Y-148013072D01*
X181889482Y-148000812D01*
X182009180Y-147964502D01*
X182100000Y-147915957D01*
X182190820Y-147964502D01*
X182310518Y-148000812D01*
X182435000Y-148013072D01*
X182449250Y-148010000D01*
X182608000Y-147851250D01*
X182608000Y-146477000D01*
X182862000Y-146477000D01*
X182862000Y-147851250D01*
X183020750Y-148010000D01*
X183035000Y-148013072D01*
X183159482Y-148000812D01*
X183279180Y-147964502D01*
X183370000Y-147915957D01*
X183460820Y-147964502D01*
X183580518Y-148000812D01*
X183705000Y-148013072D01*
X183719250Y-148010000D01*
X183878000Y-147851250D01*
X183878000Y-146477000D01*
X184132000Y-146477000D01*
X184132000Y-147851250D01*
X184290750Y-148010000D01*
X184305000Y-148013072D01*
X184429482Y-148000812D01*
X184549180Y-147964502D01*
X184640000Y-147915957D01*
X184730820Y-147964502D01*
X184850518Y-148000812D01*
X184975000Y-148013072D01*
X184989250Y-148010000D01*
X185148000Y-147851250D01*
X185148000Y-146477000D01*
X185402000Y-146477000D01*
X185402000Y-147851250D01*
X185560750Y-148010000D01*
X185575000Y-148013072D01*
X185699482Y-148000812D01*
X185819180Y-147964502D01*
X185910000Y-147915957D01*
X186000820Y-147964502D01*
X186120518Y-148000812D01*
X186245000Y-148013072D01*
X186259250Y-148010000D01*
X186418000Y-147851250D01*
X186418000Y-146477000D01*
X186672000Y-146477000D01*
X186672000Y-147851250D01*
X186830750Y-148010000D01*
X186845000Y-148013072D01*
X186969482Y-148000812D01*
X187089180Y-147964502D01*
X187199494Y-147905537D01*
X187296185Y-147826185D01*
X187375537Y-147729494D01*
X187434502Y-147619180D01*
X187470812Y-147499482D01*
X187483072Y-147375000D01*
X187480000Y-146635750D01*
X187321250Y-146477000D01*
X186672000Y-146477000D01*
X186418000Y-146477000D01*
X185402000Y-146477000D01*
X185148000Y-146477000D01*
X184132000Y-146477000D01*
X183878000Y-146477000D01*
X182862000Y-146477000D01*
X182608000Y-146477000D01*
X181592000Y-146477000D01*
X181338000Y-146477000D01*
X181318000Y-146477000D01*
X181318000Y-146223000D01*
X181338000Y-146223000D01*
X181338000Y-144848750D01*
X181592000Y-144848750D01*
X181592000Y-146223000D01*
X182608000Y-146223000D01*
X182608000Y-144848750D01*
X182862000Y-144848750D01*
X182862000Y-146223000D01*
X183878000Y-146223000D01*
X183878000Y-144848750D01*
X184132000Y-144848750D01*
X184132000Y-146223000D01*
X185148000Y-146223000D01*
X185148000Y-144848750D01*
X185402000Y-144848750D01*
X185402000Y-146223000D01*
X186418000Y-146223000D01*
X186418000Y-144848750D01*
X186672000Y-144848750D01*
X186672000Y-146223000D01*
X187321250Y-146223000D01*
X187480000Y-146064250D01*
X187483072Y-145325000D01*
X187470812Y-145200518D01*
X187434502Y-145080820D01*
X187375537Y-144970506D01*
X187296185Y-144873815D01*
X187199494Y-144794463D01*
X187089180Y-144735498D01*
X186969482Y-144699188D01*
X186845000Y-144686928D01*
X186830750Y-144690000D01*
X186672000Y-144848750D01*
X186418000Y-144848750D01*
X186259250Y-144690000D01*
X186245000Y-144686928D01*
X186120518Y-144699188D01*
X186000820Y-144735498D01*
X185910000Y-144784043D01*
X185819180Y-144735498D01*
X185699482Y-144699188D01*
X185575000Y-144686928D01*
X185560750Y-144690000D01*
X185402000Y-144848750D01*
X185148000Y-144848750D01*
X184989250Y-144690000D01*
X184975000Y-144686928D01*
X184850518Y-144699188D01*
X184730820Y-144735498D01*
X184640000Y-144784043D01*
X184549180Y-144735498D01*
X184429482Y-144699188D01*
X184305000Y-144686928D01*
X184290750Y-144690000D01*
X184132000Y-144848750D01*
X183878000Y-144848750D01*
X183719250Y-144690000D01*
X183705000Y-144686928D01*
X183580518Y-144699188D01*
X183460820Y-144735498D01*
X183370000Y-144784043D01*
X183279180Y-144735498D01*
X183159482Y-144699188D01*
X183035000Y-144686928D01*
X183020750Y-144690000D01*
X182862000Y-144848750D01*
X182608000Y-144848750D01*
X182449250Y-144690000D01*
X182435000Y-144686928D01*
X182310518Y-144699188D01*
X182190820Y-144735498D01*
X182100000Y-144784043D01*
X182009180Y-144735498D01*
X181889482Y-144699188D01*
X181765000Y-144686928D01*
X181750750Y-144690000D01*
X181592000Y-144848750D01*
X181338000Y-144848750D01*
X181179250Y-144690000D01*
X181165000Y-144686928D01*
X181040518Y-144699188D01*
X180955000Y-144725130D01*
X180955000Y-144719801D01*
X182614802Y-143060000D01*
X189362678Y-143060000D01*
X189400000Y-143063676D01*
X189437322Y-143060000D01*
X189437333Y-143060000D01*
X189462770Y-143057495D01*
X189472820Y-150173000D01*
X183800000Y-150173000D01*
X183775224Y-150175440D01*
X183751399Y-150182667D01*
X183729443Y-150194403D01*
X183710197Y-150210197D01*
X183694403Y-150229443D01*
X183682667Y-150251399D01*
X183675440Y-150275224D01*
X183673000Y-150300000D01*
X183673000Y-155340000D01*
X155227000Y-155340000D01*
X155227000Y-150300000D01*
X155226810Y-150298061D01*
X167865000Y-150298061D01*
X167865000Y-150501939D01*
X167904774Y-150701898D01*
X167982795Y-150890256D01*
X168096063Y-151059774D01*
X168240226Y-151203937D01*
X168409744Y-151317205D01*
X168598102Y-151395226D01*
X168798061Y-151435000D01*
X169001939Y-151435000D01*
X169127623Y-151410000D01*
X171697014Y-151410000D01*
X171810149Y-151470472D01*
X171976745Y-151521008D01*
X172149999Y-151538072D01*
X172850001Y-151538072D01*
X173023255Y-151521008D01*
X173189851Y-151470472D01*
X173343387Y-151388405D01*
X173477962Y-151277962D01*
X173500000Y-151251109D01*
X173522038Y-151277962D01*
X173656613Y-151388405D01*
X173810149Y-151470472D01*
X173976745Y-151521008D01*
X174149999Y-151538072D01*
X174850001Y-151538072D01*
X175023255Y-151521008D01*
X175189851Y-151470472D01*
X175343387Y-151388405D01*
X175477962Y-151277962D01*
X175588405Y-151143387D01*
X175670472Y-150989851D01*
X175709862Y-150860000D01*
X175884962Y-150860000D01*
X175910498Y-150944180D01*
X175969463Y-151054494D01*
X176048815Y-151151185D01*
X176145506Y-151230537D01*
X176255820Y-151289502D01*
X176375518Y-151325812D01*
X176500000Y-151338072D01*
X177400000Y-151338072D01*
X177524482Y-151325812D01*
X177644180Y-151289502D01*
X177754494Y-151230537D01*
X177851185Y-151151185D01*
X177930537Y-151054494D01*
X177989502Y-150944180D01*
X178025812Y-150824482D01*
X178038072Y-150700000D01*
X178038072Y-149500000D01*
X178025812Y-149375518D01*
X177989502Y-149255820D01*
X177930537Y-149145506D01*
X177851185Y-149048815D01*
X177754494Y-148969463D01*
X177644180Y-148910498D01*
X177524482Y-148874188D01*
X177400000Y-148861928D01*
X176500000Y-148861928D01*
X176375518Y-148874188D01*
X176255820Y-148910498D01*
X176145506Y-148969463D01*
X176048815Y-149048815D01*
X175969463Y-149145506D01*
X175910498Y-149255820D01*
X175884962Y-149340000D01*
X175632976Y-149340000D01*
X175588405Y-149256613D01*
X175477962Y-149122038D01*
X175343387Y-149011595D01*
X175189851Y-148929528D01*
X175023255Y-148878992D01*
X174850001Y-148861928D01*
X174149999Y-148861928D01*
X173976745Y-148878992D01*
X173810149Y-148929528D01*
X173656613Y-149011595D01*
X173522038Y-149122038D01*
X173500000Y-149148891D01*
X173477962Y-149122038D01*
X173343387Y-149011595D01*
X173189851Y-148929528D01*
X173023255Y-148878992D01*
X172850001Y-148861928D01*
X172149999Y-148861928D01*
X171976745Y-148878992D01*
X171810149Y-148929528D01*
X171656613Y-149011595D01*
X171522038Y-149122038D01*
X171411595Y-149256613D01*
X171340298Y-149390000D01*
X169127623Y-149390000D01*
X169001939Y-149365000D01*
X168798061Y-149365000D01*
X168598102Y-149404774D01*
X168409744Y-149482795D01*
X168240226Y-149596063D01*
X168096063Y-149740226D01*
X167982795Y-149909744D01*
X167904774Y-150098102D01*
X167865000Y-150298061D01*
X155226810Y-150298061D01*
X155224560Y-150275224D01*
X155217333Y-150251399D01*
X155205597Y-150229443D01*
X155189803Y-150210197D01*
X155170557Y-150194403D01*
X155148601Y-150182667D01*
X155124776Y-150175440D01*
X155100000Y-150173000D01*
X140426851Y-150173000D01*
X140416989Y-141759267D01*
X143433680Y-141759267D01*
X143507558Y-142040830D01*
X143634947Y-142302570D01*
X143810951Y-142534429D01*
X144028807Y-142727496D01*
X144280142Y-142874352D01*
X144543110Y-142966476D01*
X144773000Y-142845155D01*
X144773000Y-141527000D01*
X143573835Y-141527000D01*
X143433680Y-141759267D01*
X140416989Y-141759267D01*
X140416147Y-141040733D01*
X143433680Y-141040733D01*
X143573835Y-141273000D01*
X144773000Y-141273000D01*
X144773000Y-139954845D01*
X145027000Y-139954845D01*
X145027000Y-141273000D01*
X145047000Y-141273000D01*
X145047000Y-141527000D01*
X145027000Y-141527000D01*
X145027000Y-142845155D01*
X145256890Y-142966476D01*
X145519858Y-142874352D01*
X145771193Y-142727496D01*
X145989049Y-142534429D01*
X146145538Y-142328278D01*
X146159294Y-142354013D01*
X146344866Y-142580134D01*
X146570986Y-142765706D01*
X146828966Y-142903599D01*
X147108889Y-142988513D01*
X147400000Y-143017185D01*
X147691110Y-142988513D01*
X147971033Y-142903599D01*
X148229013Y-142765706D01*
X148455134Y-142580134D01*
X148640706Y-142354014D01*
X148650000Y-142336626D01*
X148659294Y-142354013D01*
X148844866Y-142580134D01*
X149070986Y-142765706D01*
X149328966Y-142903599D01*
X149608889Y-142988513D01*
X149900000Y-143017185D01*
X150191110Y-142988513D01*
X150471033Y-142903599D01*
X150729013Y-142765706D01*
X150955134Y-142580134D01*
X151007223Y-142516663D01*
X151061595Y-142618386D01*
X151172038Y-142752962D01*
X151306614Y-142863405D01*
X151460150Y-142945472D01*
X151626746Y-142996008D01*
X151800000Y-143013072D01*
X153000000Y-143013072D01*
X153173254Y-142996008D01*
X153339850Y-142945472D01*
X153493386Y-142863405D01*
X153627962Y-142752962D01*
X153738405Y-142618386D01*
X153820472Y-142464850D01*
X153871008Y-142298254D01*
X153888072Y-142125000D01*
X153888072Y-140675000D01*
X153871008Y-140501746D01*
X153820472Y-140335150D01*
X153738405Y-140181614D01*
X153627962Y-140047038D01*
X153493386Y-139936595D01*
X153339850Y-139854528D01*
X153173254Y-139803992D01*
X153000000Y-139786928D01*
X151800000Y-139786928D01*
X151626746Y-139803992D01*
X151460150Y-139854528D01*
X151306614Y-139936595D01*
X151172038Y-140047038D01*
X151061595Y-140181614D01*
X151007223Y-140283337D01*
X150955134Y-140219866D01*
X150729014Y-140034294D01*
X150471034Y-139896401D01*
X150191111Y-139811487D01*
X149900000Y-139782815D01*
X149608890Y-139811487D01*
X149328967Y-139896401D01*
X149070987Y-140034294D01*
X148844866Y-140219866D01*
X148659294Y-140445986D01*
X148650000Y-140463374D01*
X148640706Y-140445986D01*
X148455134Y-140219866D01*
X148229014Y-140034294D01*
X147971034Y-139896401D01*
X147691111Y-139811487D01*
X147400000Y-139782815D01*
X147108890Y-139811487D01*
X146828967Y-139896401D01*
X146570987Y-140034294D01*
X146344866Y-140219866D01*
X146159294Y-140445986D01*
X146145538Y-140471722D01*
X145989049Y-140265571D01*
X145771193Y-140072504D01*
X145519858Y-139925648D01*
X145256890Y-139833524D01*
X145027000Y-139954845D01*
X144773000Y-139954845D01*
X144543110Y-139833524D01*
X144280142Y-139925648D01*
X144028807Y-140072504D01*
X143810951Y-140265571D01*
X143634947Y-140497430D01*
X143507558Y-140759170D01*
X143433680Y-141040733D01*
X140416147Y-141040733D01*
X140414576Y-139700000D01*
X170361928Y-139700000D01*
X170374188Y-139824482D01*
X170410498Y-139944180D01*
X170469463Y-140054494D01*
X170548815Y-140151185D01*
X170645506Y-140230537D01*
X170755820Y-140289502D01*
X170875518Y-140325812D01*
X171000000Y-140338072D01*
X171714250Y-140335000D01*
X171873000Y-140176250D01*
X171873000Y-138827000D01*
X172127000Y-138827000D01*
X172127000Y-140176250D01*
X172285750Y-140335000D01*
X173000000Y-140338072D01*
X173124482Y-140325812D01*
X173244180Y-140289502D01*
X173354494Y-140230537D01*
X173451185Y-140151185D01*
X173530537Y-140054494D01*
X173589502Y-139944180D01*
X173625812Y-139824482D01*
X173638072Y-139700000D01*
X173635000Y-138985750D01*
X173476250Y-138827000D01*
X172127000Y-138827000D01*
X171873000Y-138827000D01*
X170523750Y-138827000D01*
X170365000Y-138985750D01*
X170361928Y-139700000D01*
X140414576Y-139700000D01*
X140412232Y-137700000D01*
X170361928Y-137700000D01*
X170365000Y-138414250D01*
X170523750Y-138573000D01*
X171873000Y-138573000D01*
X171873000Y-137223750D01*
X172127000Y-137223750D01*
X172127000Y-138573000D01*
X173476250Y-138573000D01*
X173635000Y-138414250D01*
X173638072Y-137700000D01*
X173625812Y-137575518D01*
X173589502Y-137455820D01*
X173530537Y-137345506D01*
X173451185Y-137248815D01*
X173354494Y-137169463D01*
X173244180Y-137110498D01*
X173124482Y-137074188D01*
X173000000Y-137061928D01*
X172285750Y-137065000D01*
X172127000Y-137223750D01*
X171873000Y-137223750D01*
X171714250Y-137065000D01*
X171000000Y-137061928D01*
X170875518Y-137074188D01*
X170755820Y-137110498D01*
X170645506Y-137169463D01*
X170548815Y-137248815D01*
X170469463Y-137345506D01*
X170410498Y-137455820D01*
X170374188Y-137575518D01*
X170361928Y-137700000D01*
X140412232Y-137700000D01*
X140408598Y-134600000D01*
X172536928Y-134600000D01*
X172549188Y-134724482D01*
X172585498Y-134844180D01*
X172644463Y-134954494D01*
X172723815Y-135051185D01*
X172820506Y-135130537D01*
X172930820Y-135189502D01*
X173050518Y-135225812D01*
X173175000Y-135238072D01*
X173551750Y-135235000D01*
X173710500Y-135076250D01*
X173710500Y-133827000D01*
X173964500Y-133827000D01*
X173964500Y-135076250D01*
X174123250Y-135235000D01*
X174500000Y-135238072D01*
X174624482Y-135225812D01*
X174744180Y-135189502D01*
X174854494Y-135130537D01*
X174951185Y-135051185D01*
X175030537Y-134954494D01*
X175089502Y-134844180D01*
X175125812Y-134724482D01*
X175138072Y-134600000D01*
X175135000Y-133985750D01*
X174976250Y-133827000D01*
X173964500Y-133827000D01*
X173710500Y-133827000D01*
X172698750Y-133827000D01*
X172540000Y-133985750D01*
X172536928Y-134600000D01*
X140408598Y-134600000D01*
X140406488Y-132800000D01*
X172536928Y-132800000D01*
X172540000Y-133414250D01*
X172698750Y-133573000D01*
X173710500Y-133573000D01*
X173710500Y-132323750D01*
X173964500Y-132323750D01*
X173964500Y-133573000D01*
X174976250Y-133573000D01*
X175135000Y-133414250D01*
X175138072Y-132800000D01*
X175125812Y-132675518D01*
X175089502Y-132555820D01*
X175030537Y-132445506D01*
X174951185Y-132348815D01*
X174854494Y-132269463D01*
X174744180Y-132210498D01*
X174624482Y-132174188D01*
X174500000Y-132161928D01*
X174123250Y-132165000D01*
X173964500Y-132323750D01*
X173710500Y-132323750D01*
X173551750Y-132165000D01*
X173175000Y-132161928D01*
X173050518Y-132174188D01*
X172930820Y-132210498D01*
X172820506Y-132269463D01*
X172723815Y-132348815D01*
X172644463Y-132445506D01*
X172585498Y-132555820D01*
X172549188Y-132675518D01*
X172536928Y-132800000D01*
X140406488Y-132800000D01*
X140404173Y-130825000D01*
X173036928Y-130825000D01*
X173049188Y-130949482D01*
X173085498Y-131069180D01*
X173144463Y-131179494D01*
X173223815Y-131276185D01*
X173320506Y-131355537D01*
X173430820Y-131414502D01*
X173550518Y-131450812D01*
X173675000Y-131463072D01*
X173976750Y-131460000D01*
X174135500Y-131301250D01*
X174135500Y-130227000D01*
X173198750Y-130227000D01*
X173040000Y-130385750D01*
X173036928Y-130825000D01*
X140404173Y-130825000D01*
X140403148Y-129951534D01*
X140400679Y-129926761D01*
X140393424Y-129902945D01*
X140381662Y-129881002D01*
X140367661Y-129863624D01*
X139818284Y-129292702D01*
X144586903Y-129292702D01*
X144658486Y-129536671D01*
X144913996Y-129657571D01*
X145188184Y-129726300D01*
X145470512Y-129740217D01*
X145750130Y-129698787D01*
X146016292Y-129603603D01*
X146141514Y-129536671D01*
X146213097Y-129292702D01*
X145400000Y-128479605D01*
X144586903Y-129292702D01*
X139818284Y-129292702D01*
X138930893Y-128370512D01*
X143959783Y-128370512D01*
X144001213Y-128650130D01*
X144096397Y-128916292D01*
X144163329Y-129041514D01*
X144407298Y-129113097D01*
X145220395Y-128300000D01*
X145579605Y-128300000D01*
X146392702Y-129113097D01*
X146636671Y-129041514D01*
X146757571Y-128786004D01*
X146826300Y-128511816D01*
X146840217Y-128229488D01*
X146798787Y-127949870D01*
X146703603Y-127683708D01*
X146636671Y-127558486D01*
X146437340Y-127500000D01*
X147461928Y-127500000D01*
X147461928Y-129100000D01*
X147474188Y-129224482D01*
X147510498Y-129344180D01*
X147569463Y-129454494D01*
X147648815Y-129551185D01*
X147745506Y-129630537D01*
X147855820Y-129689502D01*
X147975518Y-129725812D01*
X148100000Y-129738072D01*
X149700000Y-129738072D01*
X149824482Y-129725812D01*
X149944180Y-129689502D01*
X150054494Y-129630537D01*
X150151185Y-129551185D01*
X150230537Y-129454494D01*
X150273028Y-129375000D01*
X173036928Y-129375000D01*
X173040000Y-129814250D01*
X173198750Y-129973000D01*
X174135500Y-129973000D01*
X174135500Y-128898750D01*
X174389500Y-128898750D01*
X174389500Y-129973000D01*
X174409500Y-129973000D01*
X174409500Y-130227000D01*
X174389500Y-130227000D01*
X174389500Y-131301250D01*
X174548250Y-131460000D01*
X174850000Y-131463072D01*
X174974482Y-131450812D01*
X175094180Y-131414502D01*
X175204494Y-131355537D01*
X175301185Y-131276185D01*
X175366658Y-131196406D01*
X175372038Y-131202962D01*
X175506614Y-131313405D01*
X175660150Y-131395472D01*
X175826746Y-131446008D01*
X176000000Y-131463072D01*
X176675000Y-131463072D01*
X176848254Y-131446008D01*
X177014850Y-131395472D01*
X177168386Y-131313405D01*
X177302962Y-131202962D01*
X177379253Y-131110000D01*
X177915001Y-131110000D01*
X177915000Y-132349850D01*
X177868387Y-132311595D01*
X177714852Y-132229528D01*
X177548256Y-132178992D01*
X177375002Y-132161928D01*
X176549998Y-132161928D01*
X176376744Y-132178992D01*
X176210148Y-132229528D01*
X176056613Y-132311595D01*
X175922038Y-132422038D01*
X175811595Y-132556613D01*
X175729528Y-132710148D01*
X175678992Y-132876744D01*
X175661928Y-133049998D01*
X175661928Y-134350002D01*
X175678992Y-134523256D01*
X175729528Y-134689852D01*
X175811595Y-134843387D01*
X175922038Y-134977962D01*
X176056613Y-135088405D01*
X176210148Y-135170472D01*
X176376744Y-135221008D01*
X176549998Y-135238072D01*
X177375002Y-135238072D01*
X177548256Y-135221008D01*
X177714852Y-135170472D01*
X177868387Y-135088405D01*
X177915001Y-135050150D01*
X177915000Y-135397762D01*
X177805000Y-135386928D01*
X177505000Y-135386928D01*
X177351255Y-135402071D01*
X177203418Y-135446916D01*
X177067171Y-135519742D01*
X176947749Y-135617749D01*
X176849742Y-135737171D01*
X176776916Y-135873418D01*
X176732071Y-136021255D01*
X176716928Y-136175000D01*
X176716928Y-137925000D01*
X176732071Y-138078745D01*
X176776916Y-138226582D01*
X176849742Y-138362829D01*
X176947749Y-138482251D01*
X177067171Y-138580258D01*
X177203418Y-138653084D01*
X177351255Y-138697929D01*
X177505000Y-138713072D01*
X177805000Y-138713072D01*
X177958745Y-138697929D01*
X178106582Y-138653084D01*
X178242829Y-138580258D01*
X178290000Y-138541546D01*
X178337171Y-138580258D01*
X178473418Y-138653084D01*
X178621255Y-138697929D01*
X178775000Y-138713072D01*
X179075000Y-138713072D01*
X179228745Y-138697929D01*
X179376582Y-138653084D01*
X179512829Y-138580258D01*
X179560000Y-138541546D01*
X179607171Y-138580258D01*
X179743418Y-138653084D01*
X179891255Y-138697929D01*
X180045000Y-138713072D01*
X180345000Y-138713072D01*
X180498745Y-138697929D01*
X180646582Y-138653084D01*
X180782829Y-138580258D01*
X180830000Y-138541546D01*
X180877171Y-138580258D01*
X181013418Y-138653084D01*
X181161255Y-138697929D01*
X181315000Y-138713072D01*
X181615000Y-138713072D01*
X181768745Y-138697929D01*
X181916582Y-138653084D01*
X182050936Y-138581270D01*
X182080506Y-138605537D01*
X182190820Y-138664502D01*
X182310518Y-138700812D01*
X182435000Y-138713072D01*
X182449250Y-138710000D01*
X182608000Y-138551250D01*
X182608000Y-137177000D01*
X182862000Y-137177000D01*
X182862000Y-138551250D01*
X183020750Y-138710000D01*
X183035000Y-138713072D01*
X183159482Y-138700812D01*
X183279180Y-138664502D01*
X183370000Y-138615957D01*
X183460820Y-138664502D01*
X183580518Y-138700812D01*
X183705000Y-138713072D01*
X183719250Y-138710000D01*
X183878000Y-138551250D01*
X183878000Y-137177000D01*
X184132000Y-137177000D01*
X184132000Y-138551250D01*
X184290750Y-138710000D01*
X184305000Y-138713072D01*
X184429482Y-138700812D01*
X184549180Y-138664502D01*
X184640000Y-138615957D01*
X184730820Y-138664502D01*
X184850518Y-138700812D01*
X184975000Y-138713072D01*
X184989250Y-138710000D01*
X185148000Y-138551250D01*
X185148000Y-137177000D01*
X185402000Y-137177000D01*
X185402000Y-138551250D01*
X185560750Y-138710000D01*
X185575000Y-138713072D01*
X185699482Y-138700812D01*
X185819180Y-138664502D01*
X185910000Y-138615957D01*
X186000820Y-138664502D01*
X186120518Y-138700812D01*
X186245000Y-138713072D01*
X186259250Y-138710000D01*
X186418000Y-138551250D01*
X186418000Y-137177000D01*
X186672000Y-137177000D01*
X186672000Y-138551250D01*
X186830750Y-138710000D01*
X186845000Y-138713072D01*
X186969482Y-138700812D01*
X187089180Y-138664502D01*
X187199494Y-138605537D01*
X187296185Y-138526185D01*
X187375537Y-138429494D01*
X187434502Y-138319180D01*
X187470812Y-138199482D01*
X187483072Y-138075000D01*
X187480000Y-137335750D01*
X187321250Y-137177000D01*
X186672000Y-137177000D01*
X186418000Y-137177000D01*
X185402000Y-137177000D01*
X185148000Y-137177000D01*
X184132000Y-137177000D01*
X183878000Y-137177000D01*
X182862000Y-137177000D01*
X182608000Y-137177000D01*
X182588000Y-137177000D01*
X182588000Y-136923000D01*
X182608000Y-136923000D01*
X182608000Y-135548750D01*
X182862000Y-135548750D01*
X182862000Y-136923000D01*
X183878000Y-136923000D01*
X183878000Y-135548750D01*
X184132000Y-135548750D01*
X184132000Y-136923000D01*
X185148000Y-136923000D01*
X185148000Y-135548750D01*
X185402000Y-135548750D01*
X185402000Y-136923000D01*
X186418000Y-136923000D01*
X186418000Y-135548750D01*
X186672000Y-135548750D01*
X186672000Y-136923000D01*
X187321250Y-136923000D01*
X187480000Y-136764250D01*
X187483072Y-136025000D01*
X187470812Y-135900518D01*
X187434502Y-135780820D01*
X187375537Y-135670506D01*
X187296185Y-135573815D01*
X187199494Y-135494463D01*
X187089180Y-135435498D01*
X186969482Y-135399188D01*
X186845000Y-135386928D01*
X186830750Y-135390000D01*
X186672000Y-135548750D01*
X186418000Y-135548750D01*
X186259250Y-135390000D01*
X186245000Y-135386928D01*
X186120518Y-135399188D01*
X186000820Y-135435498D01*
X185910000Y-135484043D01*
X185819180Y-135435498D01*
X185699482Y-135399188D01*
X185575000Y-135386928D01*
X185560750Y-135390000D01*
X185402000Y-135548750D01*
X185148000Y-135548750D01*
X184989250Y-135390000D01*
X184975000Y-135386928D01*
X184850518Y-135399188D01*
X184730820Y-135435498D01*
X184640000Y-135484043D01*
X184549180Y-135435498D01*
X184429482Y-135399188D01*
X184305000Y-135386928D01*
X184290750Y-135390000D01*
X184132000Y-135548750D01*
X183878000Y-135548750D01*
X183719250Y-135390000D01*
X183705000Y-135386928D01*
X183580518Y-135399188D01*
X183460820Y-135435498D01*
X183370000Y-135484043D01*
X183279180Y-135435498D01*
X183159482Y-135399188D01*
X183035000Y-135386928D01*
X183020750Y-135390000D01*
X182862000Y-135548750D01*
X182608000Y-135548750D01*
X182449250Y-135390000D01*
X182435000Y-135386928D01*
X182310518Y-135399188D01*
X182190820Y-135435498D01*
X182080506Y-135494463D01*
X182050936Y-135518730D01*
X181916582Y-135446916D01*
X181768745Y-135402071D01*
X181615000Y-135386928D01*
X181315000Y-135386928D01*
X181161255Y-135402071D01*
X181085644Y-135425007D01*
X181112205Y-135385256D01*
X181190226Y-135196898D01*
X181230000Y-134996939D01*
X181230000Y-134793061D01*
X181190226Y-134593102D01*
X181112205Y-134404744D01*
X180998937Y-134235226D01*
X180854774Y-134091063D01*
X180685256Y-133977795D01*
X180496898Y-133899774D01*
X180296939Y-133860000D01*
X180093061Y-133860000D01*
X179935000Y-133891440D01*
X179935000Y-133524606D01*
X179939886Y-133475001D01*
X179935000Y-133425392D01*
X179935000Y-130252621D01*
X179960000Y-130126937D01*
X179960000Y-129923059D01*
X179935000Y-129797375D01*
X179935000Y-128593355D01*
X180218356Y-128310000D01*
X183772377Y-128310000D01*
X183898061Y-128335000D01*
X184101939Y-128335000D01*
X184301898Y-128295226D01*
X184490256Y-128217205D01*
X184659774Y-128103937D01*
X184803937Y-127959774D01*
X184917205Y-127790256D01*
X184995226Y-127601898D01*
X185035000Y-127401939D01*
X185035000Y-127198061D01*
X184995226Y-126998102D01*
X184917205Y-126809744D01*
X184803937Y-126640226D01*
X184659774Y-126496063D01*
X184490256Y-126382795D01*
X184301898Y-126304774D01*
X184101939Y-126265000D01*
X183898061Y-126265000D01*
X183772377Y-126290000D01*
X179849608Y-126290000D01*
X179800000Y-126285114D01*
X179602005Y-126304615D01*
X179411620Y-126362368D01*
X179236160Y-126456153D01*
X179082367Y-126582367D01*
X179050743Y-126620901D01*
X178245905Y-127425739D01*
X178207367Y-127457367D01*
X178081153Y-127611160D01*
X177987369Y-127786620D01*
X177987368Y-127786621D01*
X177929615Y-127977006D01*
X177910114Y-128175000D01*
X177915000Y-128224608D01*
X177915000Y-129090000D01*
X177379253Y-129090000D01*
X177302962Y-128997038D01*
X177168386Y-128886595D01*
X177014850Y-128804528D01*
X176848254Y-128753992D01*
X176675000Y-128736928D01*
X176000000Y-128736928D01*
X175826746Y-128753992D01*
X175660150Y-128804528D01*
X175506614Y-128886595D01*
X175372038Y-128997038D01*
X175366658Y-129003594D01*
X175301185Y-128923815D01*
X175204494Y-128844463D01*
X175094180Y-128785498D01*
X174974482Y-128749188D01*
X174850000Y-128736928D01*
X174548250Y-128740000D01*
X174389500Y-128898750D01*
X174135500Y-128898750D01*
X173976750Y-128740000D01*
X173675000Y-128736928D01*
X173550518Y-128749188D01*
X173430820Y-128785498D01*
X173320506Y-128844463D01*
X173223815Y-128923815D01*
X173144463Y-129020506D01*
X173085498Y-129130820D01*
X173049188Y-129250518D01*
X173036928Y-129375000D01*
X150273028Y-129375000D01*
X150289502Y-129344180D01*
X150325812Y-129224482D01*
X150338072Y-129100000D01*
X150338072Y-127500000D01*
X150325812Y-127375518D01*
X150289502Y-127255820D01*
X150230537Y-127145506D01*
X150151185Y-127048815D01*
X150054494Y-126969463D01*
X149944180Y-126910498D01*
X149824482Y-126874188D01*
X149700000Y-126861928D01*
X148100000Y-126861928D01*
X147975518Y-126874188D01*
X147855820Y-126910498D01*
X147745506Y-126969463D01*
X147648815Y-127048815D01*
X147569463Y-127145506D01*
X147510498Y-127255820D01*
X147474188Y-127375518D01*
X147461928Y-127500000D01*
X146437340Y-127500000D01*
X146392702Y-127486903D01*
X145579605Y-128300000D01*
X145220395Y-128300000D01*
X144407298Y-127486903D01*
X144163329Y-127558486D01*
X144042429Y-127813996D01*
X143973700Y-128088184D01*
X143959783Y-128370512D01*
X138930893Y-128370512D01*
X137907801Y-127307298D01*
X144586903Y-127307298D01*
X145400000Y-128120395D01*
X146213097Y-127307298D01*
X146141514Y-127063329D01*
X145886004Y-126942429D01*
X145611816Y-126873700D01*
X145329488Y-126859783D01*
X145049870Y-126901213D01*
X144783708Y-126996397D01*
X144658486Y-127063329D01*
X144586903Y-127307298D01*
X137907801Y-127307298D01*
X136468872Y-125811941D01*
X136449934Y-125795780D01*
X136428207Y-125783623D01*
X136404526Y-125775940D01*
X136379801Y-125773023D01*
X136347331Y-125776601D01*
X135477598Y-125988244D01*
X135501624Y-119477050D01*
X138715000Y-119477050D01*
X138715000Y-119922949D01*
X138736487Y-120141110D01*
X138821401Y-120421033D01*
X138959294Y-120679013D01*
X139144866Y-120905134D01*
X139370986Y-121090706D01*
X139628966Y-121228599D01*
X139908889Y-121313513D01*
X140200000Y-121342185D01*
X140491110Y-121313513D01*
X140771033Y-121228599D01*
X141029013Y-121090706D01*
X141255134Y-120905134D01*
X141307223Y-120841663D01*
X141361595Y-120943386D01*
X141472038Y-121077962D01*
X141606614Y-121188405D01*
X141760150Y-121270472D01*
X141926746Y-121321008D01*
X142100000Y-121338072D01*
X143300000Y-121338072D01*
X143473254Y-121321008D01*
X143639850Y-121270472D01*
X143793386Y-121188405D01*
X143927962Y-121077962D01*
X144038405Y-120943386D01*
X144120472Y-120789850D01*
X144171008Y-120623254D01*
X144188072Y-120450000D01*
X144188072Y-118950000D01*
X144171008Y-118776746D01*
X144120472Y-118610150D01*
X144038405Y-118456614D01*
X143927962Y-118322038D01*
X143793386Y-118211595D01*
X143639850Y-118129528D01*
X143473254Y-118078992D01*
X143300000Y-118061928D01*
X142100000Y-118061928D01*
X141926746Y-118078992D01*
X141760150Y-118129528D01*
X141606614Y-118211595D01*
X141472038Y-118322038D01*
X141361595Y-118456614D01*
X141307223Y-118558337D01*
X141255134Y-118494866D01*
X141029014Y-118309294D01*
X140771034Y-118171401D01*
X140491111Y-118086487D01*
X140200000Y-118057815D01*
X139908890Y-118086487D01*
X139628967Y-118171401D01*
X139370987Y-118309294D01*
X139144866Y-118494866D01*
X138959294Y-118720986D01*
X138821401Y-118978966D01*
X138736487Y-119258889D01*
X138715000Y-119477050D01*
X135501624Y-119477050D01*
X135518329Y-114949764D01*
X146729841Y-114949764D01*
X146777148Y-115173348D01*
X146998516Y-115274237D01*
X147235313Y-115330000D01*
X147478438Y-115338495D01*
X147718549Y-115299395D01*
X147946418Y-115214202D01*
X148022852Y-115173348D01*
X148070159Y-114949764D01*
X147400000Y-114279605D01*
X146729841Y-114949764D01*
X135518329Y-114949764D01*
X135576966Y-99059406D01*
X135611982Y-98818249D01*
X135613300Y-98800179D01*
X135615704Y-97098061D01*
X143565000Y-97098061D01*
X143565000Y-97301939D01*
X143604774Y-97501898D01*
X143682795Y-97690256D01*
X143796063Y-97859774D01*
X143840000Y-97903711D01*
X143840001Y-103696288D01*
X143796063Y-103740226D01*
X143682795Y-103909744D01*
X143604774Y-104098102D01*
X143565000Y-104298061D01*
X143565000Y-104501939D01*
X143604774Y-104701898D01*
X143682795Y-104890256D01*
X143796063Y-105059774D01*
X143940226Y-105203937D01*
X144109744Y-105317205D01*
X144298102Y-105395226D01*
X144498061Y-105435000D01*
X144701939Y-105435000D01*
X144901898Y-105395226D01*
X145090256Y-105317205D01*
X145259774Y-105203937D01*
X145403937Y-105059774D01*
X145517205Y-104890256D01*
X145595226Y-104701898D01*
X145635000Y-104501939D01*
X145635000Y-104298061D01*
X145595226Y-104098102D01*
X145517205Y-103909744D01*
X145403937Y-103740226D01*
X145360000Y-103696289D01*
X145360000Y-97903711D01*
X145403937Y-97859774D01*
X145517205Y-97690256D01*
X145595226Y-97501898D01*
X145635000Y-97301939D01*
X145635000Y-97098061D01*
X145595226Y-96898102D01*
X145517205Y-96709744D01*
X145403937Y-96540226D01*
X145259774Y-96396063D01*
X145090256Y-96282795D01*
X144901898Y-96204774D01*
X144701939Y-96165000D01*
X144498061Y-96165000D01*
X144298102Y-96204774D01*
X144109744Y-96282795D01*
X143940226Y-96396063D01*
X143796063Y-96540226D01*
X143682795Y-96709744D01*
X143604774Y-96898102D01*
X143565000Y-97098061D01*
X135615704Y-97098061D01*
X135618067Y-95425282D01*
X135734636Y-95541851D01*
X136059750Y-95759085D01*
X136420997Y-95908718D01*
X136804495Y-95985000D01*
X137195505Y-95985000D01*
X137579003Y-95908718D01*
X137940250Y-95759085D01*
X138265364Y-95541851D01*
X138541851Y-95265364D01*
X138759085Y-94940250D01*
X138908718Y-94579003D01*
X138985000Y-94195505D01*
X138985000Y-93804495D01*
X138908718Y-93420997D01*
X138759085Y-93059750D01*
X138541851Y-92734636D01*
X138265364Y-92458149D01*
X137940250Y-92240915D01*
X137579003Y-92091282D01*
X137195505Y-92015000D01*
X136804495Y-92015000D01*
X136420997Y-92091282D01*
X136059750Y-92240915D01*
X135734636Y-92458149D01*
X135622099Y-92570686D01*
X135626481Y-89467458D01*
X142915700Y-89467458D01*
X142915700Y-89740142D01*
X142968898Y-90007585D01*
X143073249Y-90259512D01*
X143224744Y-90486240D01*
X143417560Y-90679056D01*
X143644288Y-90830551D01*
X143896215Y-90934902D01*
X144163658Y-90988100D01*
X144436342Y-90988100D01*
X144703785Y-90934902D01*
X144955712Y-90830551D01*
X145182440Y-90679056D01*
X145375256Y-90486240D01*
X145526751Y-90259512D01*
X145631102Y-90007585D01*
X145684300Y-89740142D01*
X145684300Y-89467458D01*
X145631102Y-89200015D01*
X145526751Y-88948088D01*
X145375256Y-88721360D01*
X145182440Y-88528544D01*
X144955712Y-88377049D01*
X144703785Y-88272698D01*
X144436342Y-88219500D01*
X144163658Y-88219500D01*
X143896215Y-88272698D01*
X143644288Y-88377049D01*
X143417560Y-88528544D01*
X143224744Y-88721360D01*
X143073249Y-88948088D01*
X142968898Y-89200015D01*
X142915700Y-89467458D01*
X135626481Y-89467458D01*
X135632005Y-85556493D01*
X143523112Y-85556493D01*
X143588552Y-85795290D01*
X143835412Y-85911120D01*
X144100126Y-85976564D01*
X144372521Y-85989107D01*
X144642129Y-85948268D01*
X144898589Y-85855615D01*
X145011448Y-85795290D01*
X145076888Y-85556493D01*
X144300000Y-84779605D01*
X143523112Y-85556493D01*
X135632005Y-85556493D01*
X135633254Y-84672521D01*
X142910893Y-84672521D01*
X142951732Y-84942129D01*
X143044385Y-85198589D01*
X143104710Y-85311448D01*
X143343507Y-85376888D01*
X144120395Y-84600000D01*
X144479605Y-84600000D01*
X145256493Y-85376888D01*
X145495290Y-85311448D01*
X145611120Y-85064588D01*
X145676564Y-84799874D01*
X145689107Y-84527479D01*
X145648268Y-84257871D01*
X145555615Y-84001411D01*
X145495290Y-83888552D01*
X145256493Y-83823112D01*
X144479605Y-84600000D01*
X144120395Y-84600000D01*
X143343507Y-83823112D01*
X143104710Y-83888552D01*
X142988880Y-84135412D01*
X142923436Y-84400126D01*
X142910893Y-84672521D01*
X135633254Y-84672521D01*
X135634707Y-83643507D01*
X143523112Y-83643507D01*
X144300000Y-84420395D01*
X145076888Y-83643507D01*
X145011448Y-83404710D01*
X144764588Y-83288880D01*
X144499874Y-83223436D01*
X144227479Y-83210893D01*
X143957871Y-83251732D01*
X143701411Y-83344385D01*
X143588552Y-83404710D01*
X143523112Y-83643507D01*
X135634707Y-83643507D01*
X135640701Y-79400179D01*
X135638296Y-79375399D01*
X135631102Y-79351565D01*
X135617821Y-79327281D01*
X135570160Y-79259040D01*
X135525344Y-76704495D01*
X141015000Y-76704495D01*
X141015000Y-77095505D01*
X141091282Y-77479003D01*
X141240915Y-77840250D01*
X141458149Y-78165364D01*
X141734636Y-78441851D01*
X142059750Y-78659085D01*
X142420997Y-78808718D01*
X142804495Y-78885000D01*
X143195505Y-78885000D01*
X143579003Y-78808718D01*
X143940250Y-78659085D01*
X144265364Y-78441851D01*
X144541851Y-78165364D01*
X144759085Y-77840250D01*
X144908718Y-77479003D01*
X144985000Y-77095505D01*
X144985000Y-76704495D01*
X144908718Y-76320997D01*
X144759085Y-75959750D01*
X144541851Y-75634636D01*
X144265364Y-75358149D01*
X143940250Y-75140915D01*
X143579003Y-74991282D01*
X143195505Y-74915000D01*
X142804495Y-74915000D01*
X142420997Y-74991282D01*
X142059750Y-75140915D01*
X141734636Y-75358149D01*
X141458149Y-75634636D01*
X141240915Y-75959750D01*
X141091282Y-76320997D01*
X141015000Y-76704495D01*
X135525344Y-76704495D01*
X135485420Y-74428802D01*
X147490000Y-74595027D01*
G37*
%TD.AperFunction*%
D26*
X149673000Y-74625254D02*
X149673000Y-77144646D01*
X149510000Y-76981645D01*
X149510000Y-74622997D01*
X149673000Y-74625254D01*
%TA.AperFunction,Conductor*%
D27*
G36*
X149673000Y-74625254D02*
G01*
X149673000Y-77144646D01*
X149510000Y-76981645D01*
X149510000Y-74622997D01*
X149673000Y-74625254D01*
G37*
%TD.AperFunction*%
%TD*%
D26*
%TO.N,GND*%
X152137709Y-57677638D02*
X152214629Y-57736432D01*
X152273763Y-57813081D01*
X152311113Y-57902403D01*
X152325270Y-58006623D01*
X152384061Y-71116920D01*
X152304805Y-71235534D01*
X152235178Y-71118645D01*
X152040269Y-70902412D01*
X151806920Y-70728359D01*
X151544099Y-70603175D01*
X151396890Y-70558524D01*
X151167000Y-70679845D01*
X151167000Y-71873000D01*
X151187000Y-71873000D01*
X151187000Y-72127000D01*
X151167000Y-72127000D01*
X151167000Y-73320155D01*
X151396890Y-73441476D01*
X151544099Y-73396825D01*
X151806920Y-73271641D01*
X152040269Y-73097588D01*
X152235178Y-72881355D01*
X152304805Y-72764466D01*
X152392034Y-72895013D01*
X152420698Y-79287002D01*
X152407221Y-79392315D01*
X152369998Y-79482665D01*
X152354400Y-79503000D01*
X152162408Y-79503000D01*
X151892510Y-79556686D01*
X151638273Y-79661995D01*
X151629859Y-79667617D01*
X150110000Y-79658729D01*
X150110000Y-78049604D01*
X150114886Y-77999999D01*
X150110000Y-77950392D01*
X150095385Y-77802006D01*
X150037632Y-77611620D01*
X149943847Y-77436160D01*
X149817633Y-77282367D01*
X149779089Y-77250735D01*
X149510000Y-76981645D01*
X149510000Y-73465038D01*
X149594180Y-73439502D01*
X149704494Y-73380537D01*
X149801185Y-73301185D01*
X149880537Y-73204494D01*
X149939502Y-73094180D01*
X149963966Y-73013534D01*
X150039731Y-73097588D01*
X150273080Y-73271641D01*
X150535901Y-73396825D01*
X150683110Y-73441476D01*
X150913000Y-73320155D01*
X150913000Y-72127000D01*
X150893000Y-72127000D01*
X150893000Y-71873000D01*
X150913000Y-71873000D01*
X150913000Y-70679845D01*
X150683110Y-70558524D01*
X150535901Y-70603175D01*
X150273080Y-70728359D01*
X150039731Y-70902412D01*
X149963966Y-70986466D01*
X149939502Y-70905820D01*
X149880537Y-70795506D01*
X149801185Y-70698815D01*
X149704494Y-70619463D01*
X149594180Y-70560498D01*
X149474482Y-70524188D01*
X149350000Y-70511928D01*
X147650000Y-70511928D01*
X147525518Y-70524188D01*
X147405820Y-70560498D01*
X147295506Y-70619463D01*
X147198815Y-70698815D01*
X147119463Y-70795506D01*
X147060498Y-70905820D01*
X147024188Y-71025518D01*
X147011928Y-71150000D01*
X147011928Y-72850000D01*
X147024188Y-72974482D01*
X147060498Y-73094180D01*
X147119463Y-73204494D01*
X147198815Y-73301185D01*
X147295506Y-73380537D01*
X147405820Y-73439502D01*
X147490000Y-73465038D01*
X147490001Y-77350382D01*
X147485114Y-77400000D01*
X147504615Y-77597994D01*
X147562368Y-77788379D01*
X147590094Y-77840250D01*
X147656154Y-77963840D01*
X147782368Y-78117633D01*
X147820902Y-78149257D01*
X148090000Y-78418355D01*
X148090000Y-79646916D01*
X135958376Y-79575971D01*
X135853970Y-79561616D01*
X135764553Y-79523999D01*
X135687908Y-79464541D01*
X135629249Y-79387287D01*
X135592560Y-79297485D01*
X135579285Y-79192930D01*
X135590494Y-76704495D01*
X141015000Y-76704495D01*
X141015000Y-77095505D01*
X141091282Y-77479003D01*
X141240915Y-77840250D01*
X141458149Y-78165364D01*
X141734636Y-78441851D01*
X142059750Y-78659085D01*
X142420997Y-78808718D01*
X142804495Y-78885000D01*
X143195505Y-78885000D01*
X143579003Y-78808718D01*
X143940250Y-78659085D01*
X144265364Y-78441851D01*
X144541851Y-78165364D01*
X144759085Y-77840250D01*
X144908718Y-77479003D01*
X144985000Y-77095505D01*
X144985000Y-76704495D01*
X144908718Y-76320997D01*
X144759085Y-75959750D01*
X144541851Y-75634636D01*
X144265364Y-75358149D01*
X143940250Y-75140915D01*
X143579003Y-74991282D01*
X143195505Y-74915000D01*
X142804495Y-74915000D01*
X142420997Y-74991282D01*
X142059750Y-75140915D01*
X141734636Y-75358149D01*
X141458149Y-75634636D01*
X141240915Y-75959750D01*
X141091282Y-76320997D01*
X141015000Y-76704495D01*
X135590494Y-76704495D01*
X135621946Y-69722237D01*
X137710840Y-64500000D01*
X146861928Y-64500000D01*
X146861928Y-65700000D01*
X146878992Y-65873254D01*
X146929528Y-66039850D01*
X147011595Y-66193386D01*
X147122038Y-66327962D01*
X147256614Y-66438405D01*
X147410150Y-66520472D01*
X147576746Y-66571008D01*
X147750000Y-66588072D01*
X149250000Y-66588072D01*
X149423254Y-66571008D01*
X149589850Y-66520472D01*
X149743386Y-66438405D01*
X149877962Y-66327962D01*
X149988405Y-66193386D01*
X150070472Y-66039850D01*
X150121008Y-65873254D01*
X150138072Y-65700000D01*
X150138072Y-64500000D01*
X150121008Y-64326746D01*
X150070472Y-64160150D01*
X149988405Y-64006614D01*
X149877962Y-63872038D01*
X149743386Y-63761595D01*
X149641407Y-63707086D01*
X149641795Y-63706802D01*
X149838664Y-63492046D01*
X149989854Y-63243009D01*
X150089554Y-62969261D01*
X150091476Y-62956890D01*
X149970155Y-62727000D01*
X148627000Y-62727000D01*
X148627000Y-62747000D01*
X148373000Y-62747000D01*
X148373000Y-62727000D01*
X147029845Y-62727000D01*
X146908524Y-62956890D01*
X146910446Y-62969261D01*
X147010146Y-63243009D01*
X147161336Y-63492046D01*
X147358205Y-63706802D01*
X147358593Y-63707086D01*
X147256614Y-63761595D01*
X147122038Y-63872038D01*
X147011595Y-64006614D01*
X146929528Y-64160150D01*
X146878992Y-64326746D01*
X146861928Y-64500000D01*
X137710840Y-64500000D01*
X138613596Y-62243110D01*
X146908524Y-62243110D01*
X147029845Y-62473000D01*
X148373000Y-62473000D01*
X148373000Y-61272768D01*
X148627000Y-61272768D01*
X148627000Y-62473000D01*
X149970155Y-62473000D01*
X150091476Y-62243110D01*
X150089554Y-62230739D01*
X149989854Y-61956991D01*
X149838664Y-61707954D01*
X149641795Y-61493198D01*
X149406812Y-61320975D01*
X149142745Y-61197904D01*
X148859742Y-61128715D01*
X148627000Y-61272768D01*
X148373000Y-61272768D01*
X148140258Y-61128715D01*
X147857255Y-61197904D01*
X147593188Y-61320975D01*
X147358205Y-61493198D01*
X147161336Y-61707954D01*
X147010146Y-61956991D01*
X146910446Y-62230739D01*
X146908524Y-62243110D01*
X138613596Y-62243110D01*
X140446841Y-57660000D01*
X152094992Y-57660000D01*
X152137709Y-57677638D01*
%TA.AperFunction,Conductor*%
D27*
G36*
X152137709Y-57677638D02*
G01*
X152214629Y-57736432D01*
X152273763Y-57813081D01*
X152311113Y-57902403D01*
X152325270Y-58006623D01*
X152384061Y-71116920D01*
X152304805Y-71235534D01*
X152235178Y-71118645D01*
X152040269Y-70902412D01*
X151806920Y-70728359D01*
X151544099Y-70603175D01*
X151396890Y-70558524D01*
X151167000Y-70679845D01*
X151167000Y-71873000D01*
X151187000Y-71873000D01*
X151187000Y-72127000D01*
X151167000Y-72127000D01*
X151167000Y-73320155D01*
X151396890Y-73441476D01*
X151544099Y-73396825D01*
X151806920Y-73271641D01*
X152040269Y-73097588D01*
X152235178Y-72881355D01*
X152304805Y-72764466D01*
X152392034Y-72895013D01*
X152420698Y-79287002D01*
X152407221Y-79392315D01*
X152369998Y-79482665D01*
X152354400Y-79503000D01*
X152162408Y-79503000D01*
X151892510Y-79556686D01*
X151638273Y-79661995D01*
X151629859Y-79667617D01*
X150110000Y-79658729D01*
X150110000Y-78049604D01*
X150114886Y-77999999D01*
X150110000Y-77950392D01*
X150095385Y-77802006D01*
X150037632Y-77611620D01*
X149943847Y-77436160D01*
X149817633Y-77282367D01*
X149779089Y-77250735D01*
X149510000Y-76981645D01*
X149510000Y-73465038D01*
X149594180Y-73439502D01*
X149704494Y-73380537D01*
X149801185Y-73301185D01*
X149880537Y-73204494D01*
X149939502Y-73094180D01*
X149963966Y-73013534D01*
X150039731Y-73097588D01*
X150273080Y-73271641D01*
X150535901Y-73396825D01*
X150683110Y-73441476D01*
X150913000Y-73320155D01*
X150913000Y-72127000D01*
X150893000Y-72127000D01*
X150893000Y-71873000D01*
X150913000Y-71873000D01*
X150913000Y-70679845D01*
X150683110Y-70558524D01*
X150535901Y-70603175D01*
X150273080Y-70728359D01*
X150039731Y-70902412D01*
X149963966Y-70986466D01*
X149939502Y-70905820D01*
X149880537Y-70795506D01*
X149801185Y-70698815D01*
X149704494Y-70619463D01*
X149594180Y-70560498D01*
X149474482Y-70524188D01*
X149350000Y-70511928D01*
X147650000Y-70511928D01*
X147525518Y-70524188D01*
X147405820Y-70560498D01*
X147295506Y-70619463D01*
X147198815Y-70698815D01*
X147119463Y-70795506D01*
X147060498Y-70905820D01*
X147024188Y-71025518D01*
X147011928Y-71150000D01*
X147011928Y-72850000D01*
X147024188Y-72974482D01*
X147060498Y-73094180D01*
X147119463Y-73204494D01*
X147198815Y-73301185D01*
X147295506Y-73380537D01*
X147405820Y-73439502D01*
X147490000Y-73465038D01*
X147490001Y-77350382D01*
X147485114Y-77400000D01*
X147504615Y-77597994D01*
X147562368Y-77788379D01*
X147590094Y-77840250D01*
X147656154Y-77963840D01*
X147782368Y-78117633D01*
X147820902Y-78149257D01*
X148090000Y-78418355D01*
X148090000Y-79646916D01*
X135958376Y-79575971D01*
X135853970Y-79561616D01*
X135764553Y-79523999D01*
X135687908Y-79464541D01*
X135629249Y-79387287D01*
X135592560Y-79297485D01*
X135579285Y-79192930D01*
X135590494Y-76704495D01*
X141015000Y-76704495D01*
X141015000Y-77095505D01*
X141091282Y-77479003D01*
X141240915Y-77840250D01*
X141458149Y-78165364D01*
X141734636Y-78441851D01*
X142059750Y-78659085D01*
X142420997Y-78808718D01*
X142804495Y-78885000D01*
X143195505Y-78885000D01*
X143579003Y-78808718D01*
X143940250Y-78659085D01*
X144265364Y-78441851D01*
X144541851Y-78165364D01*
X144759085Y-77840250D01*
X144908718Y-77479003D01*
X144985000Y-77095505D01*
X144985000Y-76704495D01*
X144908718Y-76320997D01*
X144759085Y-75959750D01*
X144541851Y-75634636D01*
X144265364Y-75358149D01*
X143940250Y-75140915D01*
X143579003Y-74991282D01*
X143195505Y-74915000D01*
X142804495Y-74915000D01*
X142420997Y-74991282D01*
X142059750Y-75140915D01*
X141734636Y-75358149D01*
X141458149Y-75634636D01*
X141240915Y-75959750D01*
X141091282Y-76320997D01*
X141015000Y-76704495D01*
X135590494Y-76704495D01*
X135621946Y-69722237D01*
X137710840Y-64500000D01*
X146861928Y-64500000D01*
X146861928Y-65700000D01*
X146878992Y-65873254D01*
X146929528Y-66039850D01*
X147011595Y-66193386D01*
X147122038Y-66327962D01*
X147256614Y-66438405D01*
X147410150Y-66520472D01*
X147576746Y-66571008D01*
X147750000Y-66588072D01*
X149250000Y-66588072D01*
X149423254Y-66571008D01*
X149589850Y-66520472D01*
X149743386Y-66438405D01*
X149877962Y-66327962D01*
X149988405Y-66193386D01*
X150070472Y-66039850D01*
X150121008Y-65873254D01*
X150138072Y-65700000D01*
X150138072Y-64500000D01*
X150121008Y-64326746D01*
X150070472Y-64160150D01*
X149988405Y-64006614D01*
X149877962Y-63872038D01*
X149743386Y-63761595D01*
X149641407Y-63707086D01*
X149641795Y-63706802D01*
X149838664Y-63492046D01*
X149989854Y-63243009D01*
X150089554Y-62969261D01*
X150091476Y-62956890D01*
X149970155Y-62727000D01*
X148627000Y-62727000D01*
X148627000Y-62747000D01*
X148373000Y-62747000D01*
X148373000Y-62727000D01*
X147029845Y-62727000D01*
X146908524Y-62956890D01*
X146910446Y-62969261D01*
X147010146Y-63243009D01*
X147161336Y-63492046D01*
X147358205Y-63706802D01*
X147358593Y-63707086D01*
X147256614Y-63761595D01*
X147122038Y-63872038D01*
X147011595Y-64006614D01*
X146929528Y-64160150D01*
X146878992Y-64326746D01*
X146861928Y-64500000D01*
X137710840Y-64500000D01*
X138613596Y-62243110D01*
X146908524Y-62243110D01*
X147029845Y-62473000D01*
X148373000Y-62473000D01*
X148373000Y-61272768D01*
X148627000Y-61272768D01*
X148627000Y-62473000D01*
X149970155Y-62473000D01*
X150091476Y-62243110D01*
X150089554Y-62230739D01*
X149989854Y-61956991D01*
X149838664Y-61707954D01*
X149641795Y-61493198D01*
X149406812Y-61320975D01*
X149142745Y-61197904D01*
X148859742Y-61128715D01*
X148627000Y-61272768D01*
X148373000Y-61272768D01*
X148140258Y-61128715D01*
X147857255Y-61197904D01*
X147593188Y-61320975D01*
X147358205Y-61493198D01*
X147161336Y-61707954D01*
X147010146Y-61956991D01*
X146910446Y-62230739D01*
X146908524Y-62243110D01*
X138613596Y-62243110D01*
X140446841Y-57660000D01*
X152094992Y-57660000D01*
X152137709Y-57677638D01*
G37*
%TD.AperFunction*%
%TD*%
D26*
%TO.N,GND*%
X155473000Y-155340000D02*
X145627000Y-155340000D01*
X145627000Y-149827000D01*
X155473000Y-149827000D01*
X155473000Y-155340000D01*
%TA.AperFunction,Conductor*%
D27*
G36*
X155473000Y-155340000D02*
G01*
X145627000Y-155340000D01*
X145627000Y-149827000D01*
X155473000Y-149827000D01*
X155473000Y-155340000D01*
G37*
%TD.AperFunction*%
%TD*%
D26*
%TO.N,GND*%
X189064132Y-57695120D02*
X189145688Y-57772686D01*
X189205022Y-57879683D01*
X194446656Y-72051511D01*
X194473720Y-72199593D01*
X194623960Y-92857520D01*
X194541851Y-92734636D01*
X194265364Y-92458149D01*
X193940250Y-92240915D01*
X193579003Y-92091282D01*
X193195505Y-92015000D01*
X192804495Y-92015000D01*
X192420997Y-92091282D01*
X192059750Y-92240915D01*
X191734636Y-92458149D01*
X191458149Y-92734636D01*
X191240915Y-93059750D01*
X191091282Y-93420997D01*
X191015000Y-93804495D01*
X191015000Y-94195505D01*
X191091282Y-94579003D01*
X191240915Y-94940250D01*
X191458149Y-95265364D01*
X191734636Y-95541851D01*
X192059750Y-95759085D01*
X192420997Y-95908718D01*
X192804495Y-95985000D01*
X193195505Y-95985000D01*
X193579003Y-95908718D01*
X193940250Y-95759085D01*
X194265364Y-95541851D01*
X194541851Y-95265364D01*
X194640399Y-95117877D01*
X194669279Y-99088930D01*
X194656150Y-99194074D01*
X194619318Y-99284382D01*
X194560273Y-99362010D01*
X194483077Y-99421617D01*
X194393036Y-99459106D01*
X194287991Y-99473000D01*
X182308328Y-99473000D01*
X182203743Y-99459231D01*
X182114045Y-99422077D01*
X182037024Y-99362976D01*
X181977923Y-99285955D01*
X181940769Y-99196257D01*
X181927000Y-99091672D01*
X181927000Y-94047802D01*
X182911004Y-93063798D01*
X182940001Y-93040001D01*
X182971271Y-93001898D01*
X183034974Y-92924277D01*
X183105546Y-92792247D01*
X183110558Y-92775723D01*
X183149003Y-92648986D01*
X183160000Y-92537333D01*
X183160000Y-92537323D01*
X183163676Y-92500000D01*
X183160000Y-92462677D01*
X183160000Y-79037333D01*
X183163677Y-79000000D01*
X183149003Y-78851014D01*
X183105546Y-78707753D01*
X183034974Y-78575724D01*
X182963799Y-78488997D01*
X182940001Y-78459999D01*
X182911003Y-78436201D01*
X181927000Y-77452198D01*
X181927000Y-76704495D01*
X185015000Y-76704495D01*
X185015000Y-77095505D01*
X185091282Y-77479003D01*
X185240915Y-77840250D01*
X185458149Y-78165364D01*
X185734636Y-78441851D01*
X186059750Y-78659085D01*
X186420997Y-78808718D01*
X186804495Y-78885000D01*
X187195505Y-78885000D01*
X187579003Y-78808718D01*
X187940250Y-78659085D01*
X188265364Y-78441851D01*
X188541851Y-78165364D01*
X188759085Y-77840250D01*
X188908718Y-77479003D01*
X188985000Y-77095505D01*
X188985000Y-76704495D01*
X188908718Y-76320997D01*
X188759085Y-75959750D01*
X188541851Y-75634636D01*
X188265364Y-75358149D01*
X187940250Y-75140915D01*
X187579003Y-74991282D01*
X187195505Y-74915000D01*
X186804495Y-74915000D01*
X186420997Y-74991282D01*
X186059750Y-75140915D01*
X185734636Y-75358149D01*
X185458149Y-75634636D01*
X185240915Y-75959750D01*
X185091282Y-76320997D01*
X185015000Y-76704495D01*
X181927000Y-76704495D01*
X181927000Y-73433135D01*
X181953158Y-73427932D01*
X182223411Y-73315990D01*
X182466632Y-73153475D01*
X182673475Y-72946632D01*
X182835990Y-72703411D01*
X182947932Y-72433158D01*
X183005000Y-72146260D01*
X183005000Y-71853740D01*
X182947932Y-71566842D01*
X182835990Y-71296589D01*
X182673475Y-71053368D01*
X182466632Y-70846525D01*
X182223411Y-70684010D01*
X181953158Y-70572068D01*
X181923646Y-70566198D01*
X181908877Y-70454013D01*
X181900296Y-70421989D01*
X181850346Y-70301399D01*
X181833768Y-70272687D01*
X181754308Y-70169134D01*
X181730866Y-70145692D01*
X181627313Y-70066232D01*
X181598601Y-70049654D01*
X181478011Y-69999704D01*
X181445987Y-69991123D01*
X181316577Y-69974086D01*
X181300000Y-69973000D01*
X152208328Y-69973000D01*
X152103743Y-69959231D01*
X152014045Y-69922077D01*
X151937024Y-69862976D01*
X151877923Y-69785955D01*
X151840769Y-69696257D01*
X151827000Y-69591672D01*
X151827000Y-58008328D01*
X151840769Y-57903743D01*
X151877923Y-57814045D01*
X151937024Y-57737024D01*
X152014045Y-57677923D01*
X152057315Y-57660000D01*
X188992565Y-57660000D01*
X189064132Y-57695120D01*
%TA.AperFunction,Conductor*%
D27*
G36*
X189064132Y-57695120D02*
G01*
X189145688Y-57772686D01*
X189205022Y-57879683D01*
X194446656Y-72051511D01*
X194473720Y-72199593D01*
X194623960Y-92857520D01*
X194541851Y-92734636D01*
X194265364Y-92458149D01*
X193940250Y-92240915D01*
X193579003Y-92091282D01*
X193195505Y-92015000D01*
X192804495Y-92015000D01*
X192420997Y-92091282D01*
X192059750Y-92240915D01*
X191734636Y-92458149D01*
X191458149Y-92734636D01*
X191240915Y-93059750D01*
X191091282Y-93420997D01*
X191015000Y-93804495D01*
X191015000Y-94195505D01*
X191091282Y-94579003D01*
X191240915Y-94940250D01*
X191458149Y-95265364D01*
X191734636Y-95541851D01*
X192059750Y-95759085D01*
X192420997Y-95908718D01*
X192804495Y-95985000D01*
X193195505Y-95985000D01*
X193579003Y-95908718D01*
X193940250Y-95759085D01*
X194265364Y-95541851D01*
X194541851Y-95265364D01*
X194640399Y-95117877D01*
X194669279Y-99088930D01*
X194656150Y-99194074D01*
X194619318Y-99284382D01*
X194560273Y-99362010D01*
X194483077Y-99421617D01*
X194393036Y-99459106D01*
X194287991Y-99473000D01*
X182308328Y-99473000D01*
X182203743Y-99459231D01*
X182114045Y-99422077D01*
X182037024Y-99362976D01*
X181977923Y-99285955D01*
X181940769Y-99196257D01*
X181927000Y-99091672D01*
X181927000Y-94047802D01*
X182911004Y-93063798D01*
X182940001Y-93040001D01*
X182971271Y-93001898D01*
X183034974Y-92924277D01*
X183105546Y-92792247D01*
X183110558Y-92775723D01*
X183149003Y-92648986D01*
X183160000Y-92537333D01*
X183160000Y-92537323D01*
X183163676Y-92500000D01*
X183160000Y-92462677D01*
X183160000Y-79037333D01*
X183163677Y-79000000D01*
X183149003Y-78851014D01*
X183105546Y-78707753D01*
X183034974Y-78575724D01*
X182963799Y-78488997D01*
X182940001Y-78459999D01*
X182911003Y-78436201D01*
X181927000Y-77452198D01*
X181927000Y-76704495D01*
X185015000Y-76704495D01*
X185015000Y-77095505D01*
X185091282Y-77479003D01*
X185240915Y-77840250D01*
X185458149Y-78165364D01*
X185734636Y-78441851D01*
X186059750Y-78659085D01*
X186420997Y-78808718D01*
X186804495Y-78885000D01*
X187195505Y-78885000D01*
X187579003Y-78808718D01*
X187940250Y-78659085D01*
X188265364Y-78441851D01*
X188541851Y-78165364D01*
X188759085Y-77840250D01*
X188908718Y-77479003D01*
X188985000Y-77095505D01*
X188985000Y-76704495D01*
X188908718Y-76320997D01*
X188759085Y-75959750D01*
X188541851Y-75634636D01*
X188265364Y-75358149D01*
X187940250Y-75140915D01*
X187579003Y-74991282D01*
X187195505Y-74915000D01*
X186804495Y-74915000D01*
X186420997Y-74991282D01*
X186059750Y-75140915D01*
X185734636Y-75358149D01*
X185458149Y-75634636D01*
X185240915Y-75959750D01*
X185091282Y-76320997D01*
X185015000Y-76704495D01*
X181927000Y-76704495D01*
X181927000Y-73433135D01*
X181953158Y-73427932D01*
X182223411Y-73315990D01*
X182466632Y-73153475D01*
X182673475Y-72946632D01*
X182835990Y-72703411D01*
X182947932Y-72433158D01*
X183005000Y-72146260D01*
X183005000Y-71853740D01*
X182947932Y-71566842D01*
X182835990Y-71296589D01*
X182673475Y-71053368D01*
X182466632Y-70846525D01*
X182223411Y-70684010D01*
X181953158Y-70572068D01*
X181923646Y-70566198D01*
X181908877Y-70454013D01*
X181900296Y-70421989D01*
X181850346Y-70301399D01*
X181833768Y-70272687D01*
X181754308Y-70169134D01*
X181730866Y-70145692D01*
X181627313Y-70066232D01*
X181598601Y-70049654D01*
X181478011Y-69999704D01*
X181445987Y-69991123D01*
X181316577Y-69974086D01*
X181300000Y-69973000D01*
X152208328Y-69973000D01*
X152103743Y-69959231D01*
X152014045Y-69922077D01*
X151937024Y-69862976D01*
X151877923Y-69785955D01*
X151840769Y-69696257D01*
X151827000Y-69591672D01*
X151827000Y-58008328D01*
X151840769Y-57903743D01*
X151877923Y-57814045D01*
X151937024Y-57737024D01*
X152014045Y-57677923D01*
X152057315Y-57660000D01*
X188992565Y-57660000D01*
X189064132Y-57695120D01*
G37*
%TD.AperFunction*%
%TD*%
M02*
