%TF.GenerationSoftware,KiCad,Pcbnew,(5.1.10)-1*%
%TF.CreationDate,2023-09-30T19:16:06-07:00*%
%TF.ProjectId,PacmanClock_ESP32_SPI_v1_6,5061636d-616e-4436-9c6f-636b5f455350,1.6*%
%TF.SameCoordinates,Original*%
%TF.FileFunction,Other,User*%
%FSLAX46Y46*%
G04 Gerber Fmt 4.6, Leading zero omitted, Abs format (unit mm)*
G04 Created by KiCad (PCBNEW (5.1.10)-1) date 2023-09-30 19:16:06*
%MOMM*%
%LPD*%
G01*
G04 APERTURE LIST*
%ADD10C,0.050000*%
G04 APERTURE END LIST*
D10*
%TO.C,C4*%
X177880000Y-134850000D02*
X177880000Y-132550000D01*
X177880000Y-132550000D02*
X172920000Y-132550000D01*
X172920000Y-132550000D02*
X172920000Y-134850000D01*
X172920000Y-134850000D02*
X177880000Y-134850000D01*
%TO.C,D1*%
X180950000Y-148950000D02*
X180950000Y-151250000D01*
X176250000Y-151250000D02*
X180950000Y-151250000D01*
X176250000Y-148950000D02*
X176250000Y-151250000D01*
X180950000Y-148950000D02*
X176250000Y-148950000D01*
%TO.C,C8*%
X173420000Y-131080000D02*
X177180000Y-131080000D01*
X173420000Y-129120000D02*
X173420000Y-131080000D01*
X177180000Y-129120000D02*
X173420000Y-129120000D01*
X177180000Y-131080000D02*
X177180000Y-129120000D01*
%TO.C,R12*%
X171650000Y-151150000D02*
X175350000Y-151150000D01*
X171650000Y-149250000D02*
X171650000Y-151150000D01*
X175350000Y-149250000D02*
X171650000Y-149250000D01*
X175350000Y-151150000D02*
X175350000Y-149250000D01*
%TO.C,U3*%
X176700000Y-147630000D02*
X176700000Y-135770000D01*
X187500000Y-147630000D02*
X176700000Y-147630000D01*
X187500000Y-135770000D02*
X187500000Y-147630000D01*
X176700000Y-135770000D02*
X187500000Y-135770000D01*
%TD*%
M02*
