%TF.GenerationSoftware,KiCad,Pcbnew,(5.1.10)-1*%
%TF.CreationDate,2023-09-30T19:16:06-07:00*%
%TF.ProjectId,PacmanClock_ESP32_SPI_v1_6,5061636d-616e-4436-9c6f-636b5f455350,1.6*%
%TF.SameCoordinates,Original*%
%TF.FileFunction,Paste,Bot*%
%TF.FilePolarity,Positive*%
%FSLAX46Y46*%
G04 Gerber Fmt 4.6, Leading zero omitted, Abs format (unit mm)*
G04 Created by KiCad (PCBNEW (5.1.10)-1) date 2023-09-30 19:16:06*
%MOMM*%
%LPD*%
G01*
G04 APERTURE LIST*
%ADD10R,0.900000X1.200000*%
G04 APERTURE END LIST*
%TO.C,C4*%
G36*
G01*
X174500000Y-133049998D02*
X174500000Y-134350002D01*
G75*
G02*
X174250002Y-134600000I-249998J0D01*
G01*
X173424998Y-134600000D01*
G75*
G02*
X173175000Y-134350002I0J249998D01*
G01*
X173175000Y-133049998D01*
G75*
G02*
X173424998Y-132800000I249998J0D01*
G01*
X174250002Y-132800000D01*
G75*
G02*
X174500000Y-133049998I0J-249998D01*
G01*
G37*
G36*
G01*
X177625000Y-133049998D02*
X177625000Y-134350002D01*
G75*
G02*
X177375002Y-134600000I-249998J0D01*
G01*
X176549998Y-134600000D01*
G75*
G02*
X176300000Y-134350002I0J249998D01*
G01*
X176300000Y-133049998D01*
G75*
G02*
X176549998Y-132800000I249998J0D01*
G01*
X177375002Y-132800000D01*
G75*
G02*
X177625000Y-133049998I0J-249998D01*
G01*
G37*
%TD*%
D10*
%TO.C,D1*%
X176950000Y-150100000D03*
X180250000Y-150100000D03*
%TD*%
%TO.C,C8*%
G36*
G01*
X174850000Y-129625000D02*
X174850000Y-130575000D01*
G75*
G02*
X174600000Y-130825000I-250000J0D01*
G01*
X173925000Y-130825000D01*
G75*
G02*
X173675000Y-130575000I0J250000D01*
G01*
X173675000Y-129625000D01*
G75*
G02*
X173925000Y-129375000I250000J0D01*
G01*
X174600000Y-129375000D01*
G75*
G02*
X174850000Y-129625000I0J-250000D01*
G01*
G37*
G36*
G01*
X176925000Y-129625000D02*
X176925000Y-130575000D01*
G75*
G02*
X176675000Y-130825000I-250000J0D01*
G01*
X176000000Y-130825000D01*
G75*
G02*
X175750000Y-130575000I0J250000D01*
G01*
X175750000Y-129625000D01*
G75*
G02*
X176000000Y-129375000I250000J0D01*
G01*
X176675000Y-129375000D01*
G75*
G02*
X176925000Y-129625000I0J-250000D01*
G01*
G37*
%TD*%
%TO.C,R12*%
G36*
G01*
X173100000Y-149749999D02*
X173100000Y-150650001D01*
G75*
G02*
X172850001Y-150900000I-249999J0D01*
G01*
X172149999Y-150900000D01*
G75*
G02*
X171900000Y-150650001I0J249999D01*
G01*
X171900000Y-149749999D01*
G75*
G02*
X172149999Y-149500000I249999J0D01*
G01*
X172850001Y-149500000D01*
G75*
G02*
X173100000Y-149749999I0J-249999D01*
G01*
G37*
G36*
G01*
X175100000Y-149749999D02*
X175100000Y-150650001D01*
G75*
G02*
X174850001Y-150900000I-249999J0D01*
G01*
X174149999Y-150900000D01*
G75*
G02*
X173900000Y-150650001I0J249999D01*
G01*
X173900000Y-149749999D01*
G75*
G02*
X174149999Y-149500000I249999J0D01*
G01*
X174850001Y-149500000D01*
G75*
G02*
X175100000Y-149749999I0J-249999D01*
G01*
G37*
%TD*%
%TO.C,U3*%
G36*
G01*
X177505000Y-145325000D02*
X177805000Y-145325000D01*
G75*
G02*
X177955000Y-145475000I0J-150000D01*
G01*
X177955000Y-147225000D01*
G75*
G02*
X177805000Y-147375000I-150000J0D01*
G01*
X177505000Y-147375000D01*
G75*
G02*
X177355000Y-147225000I0J150000D01*
G01*
X177355000Y-145475000D01*
G75*
G02*
X177505000Y-145325000I150000J0D01*
G01*
G37*
G36*
G01*
X178775000Y-145325000D02*
X179075000Y-145325000D01*
G75*
G02*
X179225000Y-145475000I0J-150000D01*
G01*
X179225000Y-147225000D01*
G75*
G02*
X179075000Y-147375000I-150000J0D01*
G01*
X178775000Y-147375000D01*
G75*
G02*
X178625000Y-147225000I0J150000D01*
G01*
X178625000Y-145475000D01*
G75*
G02*
X178775000Y-145325000I150000J0D01*
G01*
G37*
G36*
G01*
X180045000Y-145325000D02*
X180345000Y-145325000D01*
G75*
G02*
X180495000Y-145475000I0J-150000D01*
G01*
X180495000Y-147225000D01*
G75*
G02*
X180345000Y-147375000I-150000J0D01*
G01*
X180045000Y-147375000D01*
G75*
G02*
X179895000Y-147225000I0J150000D01*
G01*
X179895000Y-145475000D01*
G75*
G02*
X180045000Y-145325000I150000J0D01*
G01*
G37*
G36*
G01*
X181315000Y-145325000D02*
X181615000Y-145325000D01*
G75*
G02*
X181765000Y-145475000I0J-150000D01*
G01*
X181765000Y-147225000D01*
G75*
G02*
X181615000Y-147375000I-150000J0D01*
G01*
X181315000Y-147375000D01*
G75*
G02*
X181165000Y-147225000I0J150000D01*
G01*
X181165000Y-145475000D01*
G75*
G02*
X181315000Y-145325000I150000J0D01*
G01*
G37*
G36*
G01*
X182585000Y-145325000D02*
X182885000Y-145325000D01*
G75*
G02*
X183035000Y-145475000I0J-150000D01*
G01*
X183035000Y-147225000D01*
G75*
G02*
X182885000Y-147375000I-150000J0D01*
G01*
X182585000Y-147375000D01*
G75*
G02*
X182435000Y-147225000I0J150000D01*
G01*
X182435000Y-145475000D01*
G75*
G02*
X182585000Y-145325000I150000J0D01*
G01*
G37*
G36*
G01*
X183855000Y-145325000D02*
X184155000Y-145325000D01*
G75*
G02*
X184305000Y-145475000I0J-150000D01*
G01*
X184305000Y-147225000D01*
G75*
G02*
X184155000Y-147375000I-150000J0D01*
G01*
X183855000Y-147375000D01*
G75*
G02*
X183705000Y-147225000I0J150000D01*
G01*
X183705000Y-145475000D01*
G75*
G02*
X183855000Y-145325000I150000J0D01*
G01*
G37*
G36*
G01*
X185125000Y-145325000D02*
X185425000Y-145325000D01*
G75*
G02*
X185575000Y-145475000I0J-150000D01*
G01*
X185575000Y-147225000D01*
G75*
G02*
X185425000Y-147375000I-150000J0D01*
G01*
X185125000Y-147375000D01*
G75*
G02*
X184975000Y-147225000I0J150000D01*
G01*
X184975000Y-145475000D01*
G75*
G02*
X185125000Y-145325000I150000J0D01*
G01*
G37*
G36*
G01*
X186395000Y-145325000D02*
X186695000Y-145325000D01*
G75*
G02*
X186845000Y-145475000I0J-150000D01*
G01*
X186845000Y-147225000D01*
G75*
G02*
X186695000Y-147375000I-150000J0D01*
G01*
X186395000Y-147375000D01*
G75*
G02*
X186245000Y-147225000I0J150000D01*
G01*
X186245000Y-145475000D01*
G75*
G02*
X186395000Y-145325000I150000J0D01*
G01*
G37*
G36*
G01*
X186395000Y-136025000D02*
X186695000Y-136025000D01*
G75*
G02*
X186845000Y-136175000I0J-150000D01*
G01*
X186845000Y-137925000D01*
G75*
G02*
X186695000Y-138075000I-150000J0D01*
G01*
X186395000Y-138075000D01*
G75*
G02*
X186245000Y-137925000I0J150000D01*
G01*
X186245000Y-136175000D01*
G75*
G02*
X186395000Y-136025000I150000J0D01*
G01*
G37*
G36*
G01*
X185125000Y-136025000D02*
X185425000Y-136025000D01*
G75*
G02*
X185575000Y-136175000I0J-150000D01*
G01*
X185575000Y-137925000D01*
G75*
G02*
X185425000Y-138075000I-150000J0D01*
G01*
X185125000Y-138075000D01*
G75*
G02*
X184975000Y-137925000I0J150000D01*
G01*
X184975000Y-136175000D01*
G75*
G02*
X185125000Y-136025000I150000J0D01*
G01*
G37*
G36*
G01*
X183855000Y-136025000D02*
X184155000Y-136025000D01*
G75*
G02*
X184305000Y-136175000I0J-150000D01*
G01*
X184305000Y-137925000D01*
G75*
G02*
X184155000Y-138075000I-150000J0D01*
G01*
X183855000Y-138075000D01*
G75*
G02*
X183705000Y-137925000I0J150000D01*
G01*
X183705000Y-136175000D01*
G75*
G02*
X183855000Y-136025000I150000J0D01*
G01*
G37*
G36*
G01*
X182585000Y-136025000D02*
X182885000Y-136025000D01*
G75*
G02*
X183035000Y-136175000I0J-150000D01*
G01*
X183035000Y-137925000D01*
G75*
G02*
X182885000Y-138075000I-150000J0D01*
G01*
X182585000Y-138075000D01*
G75*
G02*
X182435000Y-137925000I0J150000D01*
G01*
X182435000Y-136175000D01*
G75*
G02*
X182585000Y-136025000I150000J0D01*
G01*
G37*
G36*
G01*
X181315000Y-136025000D02*
X181615000Y-136025000D01*
G75*
G02*
X181765000Y-136175000I0J-150000D01*
G01*
X181765000Y-137925000D01*
G75*
G02*
X181615000Y-138075000I-150000J0D01*
G01*
X181315000Y-138075000D01*
G75*
G02*
X181165000Y-137925000I0J150000D01*
G01*
X181165000Y-136175000D01*
G75*
G02*
X181315000Y-136025000I150000J0D01*
G01*
G37*
G36*
G01*
X180045000Y-136025000D02*
X180345000Y-136025000D01*
G75*
G02*
X180495000Y-136175000I0J-150000D01*
G01*
X180495000Y-137925000D01*
G75*
G02*
X180345000Y-138075000I-150000J0D01*
G01*
X180045000Y-138075000D01*
G75*
G02*
X179895000Y-137925000I0J150000D01*
G01*
X179895000Y-136175000D01*
G75*
G02*
X180045000Y-136025000I150000J0D01*
G01*
G37*
G36*
G01*
X178775000Y-136025000D02*
X179075000Y-136025000D01*
G75*
G02*
X179225000Y-136175000I0J-150000D01*
G01*
X179225000Y-137925000D01*
G75*
G02*
X179075000Y-138075000I-150000J0D01*
G01*
X178775000Y-138075000D01*
G75*
G02*
X178625000Y-137925000I0J150000D01*
G01*
X178625000Y-136175000D01*
G75*
G02*
X178775000Y-136025000I150000J0D01*
G01*
G37*
G36*
G01*
X177505000Y-136025000D02*
X177805000Y-136025000D01*
G75*
G02*
X177955000Y-136175000I0J-150000D01*
G01*
X177955000Y-137925000D01*
G75*
G02*
X177805000Y-138075000I-150000J0D01*
G01*
X177505000Y-138075000D01*
G75*
G02*
X177355000Y-137925000I0J150000D01*
G01*
X177355000Y-136175000D01*
G75*
G02*
X177505000Y-136025000I150000J0D01*
G01*
G37*
%TD*%
M02*
