%TF.GenerationSoftware,KiCad,Pcbnew,(5.1.10)-1*%
%TF.CreationDate,2023-09-30T19:16:06-07:00*%
%TF.ProjectId,PacmanClock_ESP32_SPI_v1_6,5061636d-616e-4436-9c6f-636b5f455350,1.6*%
%TF.SameCoordinates,Original*%
%TF.FileFunction,Soldermask,Top*%
%TF.FilePolarity,Negative*%
%FSLAX46Y46*%
G04 Gerber Fmt 4.6, Leading zero omitted, Abs format (unit mm)*
G04 Created by KiCad (PCBNEW (5.1.10)-1) date 2023-09-30 19:16:06*
%MOMM*%
%LPD*%
G01*
G04 APERTURE LIST*
%ADD10R,2.000000X2.000000*%
%ADD11C,1.600000*%
%ADD12R,1.600000X1.600000*%
%ADD13C,1.200000*%
%ADD14R,1.200000X1.200000*%
%ADD15C,1.524000*%
%ADD16C,1.498600*%
%ADD17O,2.000000X1.700000*%
%ADD18O,1.700000X2.000000*%
%ADD19O,1.700000X1.950000*%
%ADD20C,2.700000*%
%ADD21O,1.700000X1.700000*%
%ADD22R,1.700000X1.700000*%
G04 APERTURE END LIST*
D10*
%TO.C,BT1*%
X192000000Y-138700000D03*
X172000000Y-138700000D03*
%TD*%
%TO.C,U1*%
G36*
G01*
X143255000Y-108600000D02*
X143555000Y-108600000D01*
G75*
G02*
X143705000Y-108750000I0J-150000D01*
G01*
X143705000Y-110400000D01*
G75*
G02*
X143555000Y-110550000I-150000J0D01*
G01*
X143255000Y-110550000D01*
G75*
G02*
X143105000Y-110400000I0J150000D01*
G01*
X143105000Y-108750000D01*
G75*
G02*
X143255000Y-108600000I150000J0D01*
G01*
G37*
G36*
G01*
X141985000Y-108600000D02*
X142285000Y-108600000D01*
G75*
G02*
X142435000Y-108750000I0J-150000D01*
G01*
X142435000Y-110400000D01*
G75*
G02*
X142285000Y-110550000I-150000J0D01*
G01*
X141985000Y-110550000D01*
G75*
G02*
X141835000Y-110400000I0J150000D01*
G01*
X141835000Y-108750000D01*
G75*
G02*
X141985000Y-108600000I150000J0D01*
G01*
G37*
G36*
G01*
X140715000Y-108600000D02*
X141015000Y-108600000D01*
G75*
G02*
X141165000Y-108750000I0J-150000D01*
G01*
X141165000Y-110400000D01*
G75*
G02*
X141015000Y-110550000I-150000J0D01*
G01*
X140715000Y-110550000D01*
G75*
G02*
X140565000Y-110400000I0J150000D01*
G01*
X140565000Y-108750000D01*
G75*
G02*
X140715000Y-108600000I150000J0D01*
G01*
G37*
G36*
G01*
X139445000Y-108600000D02*
X139745000Y-108600000D01*
G75*
G02*
X139895000Y-108750000I0J-150000D01*
G01*
X139895000Y-110400000D01*
G75*
G02*
X139745000Y-110550000I-150000J0D01*
G01*
X139445000Y-110550000D01*
G75*
G02*
X139295000Y-110400000I0J150000D01*
G01*
X139295000Y-108750000D01*
G75*
G02*
X139445000Y-108600000I150000J0D01*
G01*
G37*
G36*
G01*
X139445000Y-103650000D02*
X139745000Y-103650000D01*
G75*
G02*
X139895000Y-103800000I0J-150000D01*
G01*
X139895000Y-105450000D01*
G75*
G02*
X139745000Y-105600000I-150000J0D01*
G01*
X139445000Y-105600000D01*
G75*
G02*
X139295000Y-105450000I0J150000D01*
G01*
X139295000Y-103800000D01*
G75*
G02*
X139445000Y-103650000I150000J0D01*
G01*
G37*
G36*
G01*
X140715000Y-103650000D02*
X141015000Y-103650000D01*
G75*
G02*
X141165000Y-103800000I0J-150000D01*
G01*
X141165000Y-105450000D01*
G75*
G02*
X141015000Y-105600000I-150000J0D01*
G01*
X140715000Y-105600000D01*
G75*
G02*
X140565000Y-105450000I0J150000D01*
G01*
X140565000Y-103800000D01*
G75*
G02*
X140715000Y-103650000I150000J0D01*
G01*
G37*
G36*
G01*
X141985000Y-103650000D02*
X142285000Y-103650000D01*
G75*
G02*
X142435000Y-103800000I0J-150000D01*
G01*
X142435000Y-105450000D01*
G75*
G02*
X142285000Y-105600000I-150000J0D01*
G01*
X141985000Y-105600000D01*
G75*
G02*
X141835000Y-105450000I0J150000D01*
G01*
X141835000Y-103800000D01*
G75*
G02*
X141985000Y-103650000I150000J0D01*
G01*
G37*
G36*
G01*
X143255000Y-103650000D02*
X143555000Y-103650000D01*
G75*
G02*
X143705000Y-103800000I0J-150000D01*
G01*
X143705000Y-105450000D01*
G75*
G02*
X143555000Y-105600000I-150000J0D01*
G01*
X143255000Y-105600000D01*
G75*
G02*
X143105000Y-105450000I0J150000D01*
G01*
X143105000Y-103800000D01*
G75*
G02*
X143255000Y-103650000I150000J0D01*
G01*
G37*
%TD*%
%TO.C,C6*%
G36*
G01*
X140525000Y-114050000D02*
X141475000Y-114050000D01*
G75*
G02*
X141725000Y-114300000I0J-250000D01*
G01*
X141725000Y-114975000D01*
G75*
G02*
X141475000Y-115225000I-250000J0D01*
G01*
X140525000Y-115225000D01*
G75*
G02*
X140275000Y-114975000I0J250000D01*
G01*
X140275000Y-114300000D01*
G75*
G02*
X140525000Y-114050000I250000J0D01*
G01*
G37*
G36*
G01*
X140525000Y-111975000D02*
X141475000Y-111975000D01*
G75*
G02*
X141725000Y-112225000I0J-250000D01*
G01*
X141725000Y-112900000D01*
G75*
G02*
X141475000Y-113150000I-250000J0D01*
G01*
X140525000Y-113150000D01*
G75*
G02*
X140275000Y-112900000I0J250000D01*
G01*
X140275000Y-112225000D01*
G75*
G02*
X140525000Y-111975000I250000J0D01*
G01*
G37*
%TD*%
D11*
%TO.C,C3*%
X145400000Y-128300000D03*
D12*
X148900000Y-128300000D03*
%TD*%
%TO.C,C2*%
G36*
G01*
X142800000Y-101349998D02*
X142800000Y-102650002D01*
G75*
G02*
X142550002Y-102900000I-249998J0D01*
G01*
X141724998Y-102900000D01*
G75*
G02*
X141475000Y-102650002I0J249998D01*
G01*
X141475000Y-101349998D01*
G75*
G02*
X141724998Y-101100000I249998J0D01*
G01*
X142550002Y-101100000D01*
G75*
G02*
X142800000Y-101349998I0J-249998D01*
G01*
G37*
G36*
G01*
X145925000Y-101349998D02*
X145925000Y-102650002D01*
G75*
G02*
X145675002Y-102900000I-249998J0D01*
G01*
X144849998Y-102900000D01*
G75*
G02*
X144600000Y-102650002I0J249998D01*
G01*
X144600000Y-101349998D01*
G75*
G02*
X144849998Y-101100000I249998J0D01*
G01*
X145675002Y-101100000D01*
G75*
G02*
X145925000Y-101349998I0J-249998D01*
G01*
G37*
%TD*%
D13*
%TO.C,C5*%
X147400000Y-114100000D03*
D14*
X147400000Y-112600000D03*
%TD*%
D15*
%TO.C,U2*%
X177700000Y-80900000D03*
X177700000Y-83440000D03*
X177700000Y-85980000D03*
X177700000Y-88520000D03*
X177700000Y-91060000D03*
X177700000Y-93600000D03*
X177700000Y-96140000D03*
X177700000Y-98680000D03*
X177700000Y-101220000D03*
X177700000Y-103760000D03*
X177700000Y-106300000D03*
X177700000Y-108840000D03*
X177700000Y-111380000D03*
X177700000Y-113920000D03*
X177700000Y-116460000D03*
X152300000Y-80900000D03*
X152300000Y-116460000D03*
X152300000Y-113920000D03*
X152300000Y-111380000D03*
X152300000Y-108840000D03*
X152300000Y-106300000D03*
X152300000Y-103760000D03*
X152300000Y-101220000D03*
X152300000Y-98680000D03*
X152300000Y-96140000D03*
X152300000Y-93600000D03*
X152300000Y-91060000D03*
X152300000Y-88520000D03*
X152300000Y-85980000D03*
X152300000Y-83440000D03*
%TD*%
%TO.C,C1*%
G36*
G01*
X146250000Y-98325000D02*
X146250000Y-99275000D01*
G75*
G02*
X146000000Y-99525000I-250000J0D01*
G01*
X145325000Y-99525000D01*
G75*
G02*
X145075000Y-99275000I0J250000D01*
G01*
X145075000Y-98325000D01*
G75*
G02*
X145325000Y-98075000I250000J0D01*
G01*
X146000000Y-98075000D01*
G75*
G02*
X146250000Y-98325000I0J-250000D01*
G01*
G37*
G36*
G01*
X148325000Y-98325000D02*
X148325000Y-99275000D01*
G75*
G02*
X148075000Y-99525000I-250000J0D01*
G01*
X147400000Y-99525000D01*
G75*
G02*
X147150000Y-99275000I0J250000D01*
G01*
X147150000Y-98325000D01*
G75*
G02*
X147400000Y-98075000I250000J0D01*
G01*
X148075000Y-98075000D01*
G75*
G02*
X148325000Y-98325000I0J-250000D01*
G01*
G37*
%TD*%
%TO.C,R11*%
G36*
G01*
X187100000Y-124850001D02*
X187100000Y-123949999D01*
G75*
G02*
X187349999Y-123700000I249999J0D01*
G01*
X188050001Y-123700000D01*
G75*
G02*
X188300000Y-123949999I0J-249999D01*
G01*
X188300000Y-124850001D01*
G75*
G02*
X188050001Y-125100000I-249999J0D01*
G01*
X187349999Y-125100000D01*
G75*
G02*
X187100000Y-124850001I0J249999D01*
G01*
G37*
G36*
G01*
X185100000Y-124850001D02*
X185100000Y-123949999D01*
G75*
G02*
X185349999Y-123700000I249999J0D01*
G01*
X186050001Y-123700000D01*
G75*
G02*
X186300000Y-123949999I0J-249999D01*
G01*
X186300000Y-124850001D01*
G75*
G02*
X186050001Y-125100000I-249999J0D01*
G01*
X185349999Y-125100000D01*
G75*
G02*
X185100000Y-124850001I0J249999D01*
G01*
G37*
%TD*%
%TO.C,R10*%
G36*
G01*
X137049999Y-107000000D02*
X137950001Y-107000000D01*
G75*
G02*
X138200000Y-107249999I0J-249999D01*
G01*
X138200000Y-107950001D01*
G75*
G02*
X137950001Y-108200000I-249999J0D01*
G01*
X137049999Y-108200000D01*
G75*
G02*
X136800000Y-107950001I0J249999D01*
G01*
X136800000Y-107249999D01*
G75*
G02*
X137049999Y-107000000I249999J0D01*
G01*
G37*
G36*
G01*
X137049999Y-105000000D02*
X137950001Y-105000000D01*
G75*
G02*
X138200000Y-105249999I0J-249999D01*
G01*
X138200000Y-105950001D01*
G75*
G02*
X137950001Y-106200000I-249999J0D01*
G01*
X137049999Y-106200000D01*
G75*
G02*
X136800000Y-105950001I0J249999D01*
G01*
X136800000Y-105249999D01*
G75*
G02*
X137049999Y-105000000I249999J0D01*
G01*
G37*
%TD*%
%TO.C,R8*%
G36*
G01*
X142800000Y-99250001D02*
X142800000Y-98349999D01*
G75*
G02*
X143049999Y-98100000I249999J0D01*
G01*
X143750001Y-98100000D01*
G75*
G02*
X144000000Y-98349999I0J-249999D01*
G01*
X144000000Y-99250001D01*
G75*
G02*
X143750001Y-99500000I-249999J0D01*
G01*
X143049999Y-99500000D01*
G75*
G02*
X142800000Y-99250001I0J249999D01*
G01*
G37*
G36*
G01*
X140800000Y-99250001D02*
X140800000Y-98349999D01*
G75*
G02*
X141049999Y-98100000I249999J0D01*
G01*
X141750001Y-98100000D01*
G75*
G02*
X142000000Y-98349999I0J-249999D01*
G01*
X142000000Y-99250001D01*
G75*
G02*
X141750001Y-99500000I-249999J0D01*
G01*
X141049999Y-99500000D01*
G75*
G02*
X140800000Y-99250001I0J249999D01*
G01*
G37*
%TD*%
%TO.C,R7*%
G36*
G01*
X160400000Y-88049999D02*
X160400000Y-88950001D01*
G75*
G02*
X160150001Y-89200000I-249999J0D01*
G01*
X159449999Y-89200000D01*
G75*
G02*
X159200000Y-88950001I0J249999D01*
G01*
X159200000Y-88049999D01*
G75*
G02*
X159449999Y-87800000I249999J0D01*
G01*
X160150001Y-87800000D01*
G75*
G02*
X160400000Y-88049999I0J-249999D01*
G01*
G37*
G36*
G01*
X162400000Y-88049999D02*
X162400000Y-88950001D01*
G75*
G02*
X162150001Y-89200000I-249999J0D01*
G01*
X161449999Y-89200000D01*
G75*
G02*
X161200000Y-88950001I0J249999D01*
G01*
X161200000Y-88049999D01*
G75*
G02*
X161449999Y-87800000I249999J0D01*
G01*
X162150001Y-87800000D01*
G75*
G02*
X162400000Y-88049999I0J-249999D01*
G01*
G37*
%TD*%
%TO.C,R6*%
G36*
G01*
X182000000Y-123949999D02*
X182000000Y-124850001D01*
G75*
G02*
X181750001Y-125100000I-249999J0D01*
G01*
X181049999Y-125100000D01*
G75*
G02*
X180800000Y-124850001I0J249999D01*
G01*
X180800000Y-123949999D01*
G75*
G02*
X181049999Y-123700000I249999J0D01*
G01*
X181750001Y-123700000D01*
G75*
G02*
X182000000Y-123949999I0J-249999D01*
G01*
G37*
G36*
G01*
X184000000Y-123949999D02*
X184000000Y-124850001D01*
G75*
G02*
X183750001Y-125100000I-249999J0D01*
G01*
X183049999Y-125100000D01*
G75*
G02*
X182800000Y-124850001I0J249999D01*
G01*
X182800000Y-123949999D01*
G75*
G02*
X183049999Y-123700000I249999J0D01*
G01*
X183750001Y-123700000D01*
G75*
G02*
X184000000Y-123949999I0J-249999D01*
G01*
G37*
%TD*%
%TO.C,R2*%
G36*
G01*
X156650001Y-63600000D02*
X155749999Y-63600000D01*
G75*
G02*
X155500000Y-63350001I0J249999D01*
G01*
X155500000Y-62649999D01*
G75*
G02*
X155749999Y-62400000I249999J0D01*
G01*
X156650001Y-62400000D01*
G75*
G02*
X156900000Y-62649999I0J-249999D01*
G01*
X156900000Y-63350001D01*
G75*
G02*
X156650001Y-63600000I-249999J0D01*
G01*
G37*
G36*
G01*
X156650001Y-65600000D02*
X155749999Y-65600000D01*
G75*
G02*
X155500000Y-65350001I0J249999D01*
G01*
X155500000Y-64649999D01*
G75*
G02*
X155749999Y-64400000I249999J0D01*
G01*
X156650001Y-64400000D01*
G75*
G02*
X156900000Y-64649999I0J-249999D01*
G01*
X156900000Y-65350001D01*
G75*
G02*
X156650001Y-65600000I-249999J0D01*
G01*
G37*
%TD*%
%TO.C,R1*%
G36*
G01*
X160400000Y-85549999D02*
X160400000Y-86450001D01*
G75*
G02*
X160150001Y-86700000I-249999J0D01*
G01*
X159449999Y-86700000D01*
G75*
G02*
X159200000Y-86450001I0J249999D01*
G01*
X159200000Y-85549999D01*
G75*
G02*
X159449999Y-85300000I249999J0D01*
G01*
X160150001Y-85300000D01*
G75*
G02*
X160400000Y-85549999I0J-249999D01*
G01*
G37*
G36*
G01*
X162400000Y-85549999D02*
X162400000Y-86450001D01*
G75*
G02*
X162150001Y-86700000I-249999J0D01*
G01*
X161449999Y-86700000D01*
G75*
G02*
X161200000Y-86450001I0J249999D01*
G01*
X161200000Y-85549999D01*
G75*
G02*
X161449999Y-85300000I249999J0D01*
G01*
X162150001Y-85300000D01*
G75*
G02*
X162400000Y-85549999I0J-249999D01*
G01*
G37*
%TD*%
D16*
%TO.C,SW1*%
X144300000Y-89603800D03*
X144300000Y-84600000D03*
%TD*%
D17*
%TO.C,J4*%
X148500000Y-62600000D03*
G36*
G01*
X149250000Y-65950000D02*
X147750000Y-65950000D01*
G75*
G02*
X147500000Y-65700000I0J250000D01*
G01*
X147500000Y-64500000D01*
G75*
G02*
X147750000Y-64250000I250000J0D01*
G01*
X149250000Y-64250000D01*
G75*
G02*
X149500000Y-64500000I0J-250000D01*
G01*
X149500000Y-65700000D01*
G75*
G02*
X149250000Y-65950000I-250000J0D01*
G01*
G37*
%TD*%
D18*
%TO.C,J3*%
X140200000Y-119700000D03*
G36*
G01*
X143550000Y-118950000D02*
X143550000Y-120450000D01*
G75*
G02*
X143300000Y-120700000I-250000J0D01*
G01*
X142100000Y-120700000D01*
G75*
G02*
X141850000Y-120450000I0J250000D01*
G01*
X141850000Y-118950000D01*
G75*
G02*
X142100000Y-118700000I250000J0D01*
G01*
X143300000Y-118700000D01*
G75*
G02*
X143550000Y-118950000I0J-250000D01*
G01*
G37*
%TD*%
D19*
%TO.C,J2*%
X144900000Y-141400000D03*
X147400000Y-141400000D03*
X149900000Y-141400000D03*
G36*
G01*
X153250000Y-140675000D02*
X153250000Y-142125000D01*
G75*
G02*
X153000000Y-142375000I-250000J0D01*
G01*
X151800000Y-142375000D01*
G75*
G02*
X151550000Y-142125000I0J250000D01*
G01*
X151550000Y-140675000D01*
G75*
G02*
X151800000Y-140425000I250000J0D01*
G01*
X153000000Y-140425000D01*
G75*
G02*
X153250000Y-140675000I0J-250000D01*
G01*
G37*
%TD*%
D20*
%TO.C,H8*%
X193000000Y-132000000D03*
%TD*%
%TO.C,H7*%
X193000000Y-94000000D03*
%TD*%
%TO.C,H6*%
X137000000Y-132000000D03*
%TD*%
%TO.C,H5*%
X137000000Y-94000000D03*
%TD*%
D21*
%TO.C,J1*%
X181520000Y-72000000D03*
X178980000Y-72000000D03*
X176440000Y-72000000D03*
X173900000Y-72000000D03*
X171360000Y-72000000D03*
X168820000Y-72000000D03*
X166280000Y-72000000D03*
X163740000Y-72000000D03*
X161200000Y-72000000D03*
X158660000Y-72000000D03*
X156120000Y-72000000D03*
X153580000Y-72000000D03*
X151040000Y-72000000D03*
D22*
X148500000Y-72000000D03*
%TD*%
D20*
%TO.C,H4*%
X187000000Y-76900000D03*
%TD*%
%TO.C,H3*%
X187000000Y-153000000D03*
%TD*%
%TO.C,H2*%
X143000000Y-76900000D03*
%TD*%
%TO.C,H1*%
X143000000Y-153000000D03*
%TD*%
M02*
