%TF.GenerationSoftware,KiCad,Pcbnew,(5.1.10)-1*%
%TF.CreationDate,2023-09-30T19:16:06-07:00*%
%TF.ProjectId,PacmanClock_ESP32_SPI_v1_6,5061636d-616e-4436-9c6f-636b5f455350,1.6*%
%TF.SameCoordinates,Original*%
%TF.FileFunction,Copper,L1,Top*%
%TF.FilePolarity,Positive*%
%FSLAX46Y46*%
G04 Gerber Fmt 4.6, Leading zero omitted, Abs format (unit mm)*
G04 Created by KiCad (PCBNEW (5.1.10)-1) date 2023-09-30 19:16:06*
%MOMM*%
%LPD*%
G01*
G04 APERTURE LIST*
%TA.AperFunction,ComponentPad*%
%ADD10R,2.000000X2.000000*%
%TD*%
%TA.AperFunction,ComponentPad*%
%ADD11C,1.600000*%
%TD*%
%TA.AperFunction,ComponentPad*%
%ADD12R,1.600000X1.600000*%
%TD*%
%TA.AperFunction,ComponentPad*%
%ADD13C,1.200000*%
%TD*%
%TA.AperFunction,ComponentPad*%
%ADD14R,1.200000X1.200000*%
%TD*%
%TA.AperFunction,ComponentPad*%
%ADD15C,1.524000*%
%TD*%
%TA.AperFunction,ComponentPad*%
%ADD16C,1.498600*%
%TD*%
%TA.AperFunction,ComponentPad*%
%ADD17O,2.000000X1.700000*%
%TD*%
%TA.AperFunction,ComponentPad*%
%ADD18O,1.700000X2.000000*%
%TD*%
%TA.AperFunction,ComponentPad*%
%ADD19O,1.700000X1.950000*%
%TD*%
%TA.AperFunction,ComponentPad*%
%ADD20O,1.700000X1.700000*%
%TD*%
%TA.AperFunction,ComponentPad*%
%ADD21R,1.700000X1.700000*%
%TD*%
%TA.AperFunction,ViaPad*%
%ADD22C,0.800000*%
%TD*%
%TA.AperFunction,Conductor*%
%ADD23C,0.250000*%
%TD*%
%TA.AperFunction,Conductor*%
%ADD24C,0.500000*%
%TD*%
%TA.AperFunction,Conductor*%
%ADD25C,0.750000*%
%TD*%
%TA.AperFunction,Conductor*%
%ADD26C,0.254000*%
%TD*%
%TA.AperFunction,Conductor*%
%ADD27C,0.100000*%
%TD*%
G04 APERTURE END LIST*
D10*
%TO.P,BT1,1*%
%TO.N,Net-(BT1-Pad1)*%
X192000000Y-138700000D03*
%TO.P,BT1,2*%
%TO.N,GND*%
X172000000Y-138700000D03*
%TD*%
%TO.P,U1,8*%
%TO.N,Net-(J3-Pad1)*%
%TA.AperFunction,SMDPad,CuDef*%
G36*
G01*
X143255000Y-108600000D02*
X143555000Y-108600000D01*
G75*
G02*
X143705000Y-108750000I0J-150000D01*
G01*
X143705000Y-110400000D01*
G75*
G02*
X143555000Y-110550000I-150000J0D01*
G01*
X143255000Y-110550000D01*
G75*
G02*
X143105000Y-110400000I0J150000D01*
G01*
X143105000Y-108750000D01*
G75*
G02*
X143255000Y-108600000I150000J0D01*
G01*
G37*
%TD.AperFunction*%
%TO.P,U1,7*%
%TO.N,GND*%
%TA.AperFunction,SMDPad,CuDef*%
G36*
G01*
X141985000Y-108600000D02*
X142285000Y-108600000D01*
G75*
G02*
X142435000Y-108750000I0J-150000D01*
G01*
X142435000Y-110400000D01*
G75*
G02*
X142285000Y-110550000I-150000J0D01*
G01*
X141985000Y-110550000D01*
G75*
G02*
X141835000Y-110400000I0J150000D01*
G01*
X141835000Y-108750000D01*
G75*
G02*
X141985000Y-108600000I150000J0D01*
G01*
G37*
%TD.AperFunction*%
%TO.P,U1,6*%
%TO.N,+5V*%
%TA.AperFunction,SMDPad,CuDef*%
G36*
G01*
X140715000Y-108600000D02*
X141015000Y-108600000D01*
G75*
G02*
X141165000Y-108750000I0J-150000D01*
G01*
X141165000Y-110400000D01*
G75*
G02*
X141015000Y-110550000I-150000J0D01*
G01*
X140715000Y-110550000D01*
G75*
G02*
X140565000Y-110400000I0J150000D01*
G01*
X140565000Y-108750000D01*
G75*
G02*
X140715000Y-108600000I150000J0D01*
G01*
G37*
%TD.AperFunction*%
%TO.P,U1,5*%
%TO.N,Net-(J3-Pad2)*%
%TA.AperFunction,SMDPad,CuDef*%
G36*
G01*
X139445000Y-108600000D02*
X139745000Y-108600000D01*
G75*
G02*
X139895000Y-108750000I0J-150000D01*
G01*
X139895000Y-110400000D01*
G75*
G02*
X139745000Y-110550000I-150000J0D01*
G01*
X139445000Y-110550000D01*
G75*
G02*
X139295000Y-110400000I0J150000D01*
G01*
X139295000Y-108750000D01*
G75*
G02*
X139445000Y-108600000I150000J0D01*
G01*
G37*
%TD.AperFunction*%
%TO.P,U1,4*%
%TO.N,Net-(R10-Pad1)*%
%TA.AperFunction,SMDPad,CuDef*%
G36*
G01*
X139445000Y-103650000D02*
X139745000Y-103650000D01*
G75*
G02*
X139895000Y-103800000I0J-150000D01*
G01*
X139895000Y-105450000D01*
G75*
G02*
X139745000Y-105600000I-150000J0D01*
G01*
X139445000Y-105600000D01*
G75*
G02*
X139295000Y-105450000I0J150000D01*
G01*
X139295000Y-103800000D01*
G75*
G02*
X139445000Y-103650000I150000J0D01*
G01*
G37*
%TD.AperFunction*%
%TO.P,U1,3*%
%TO.N,Net-(C2-Pad2)*%
%TA.AperFunction,SMDPad,CuDef*%
G36*
G01*
X140715000Y-103650000D02*
X141015000Y-103650000D01*
G75*
G02*
X141165000Y-103800000I0J-150000D01*
G01*
X141165000Y-105450000D01*
G75*
G02*
X141015000Y-105600000I-150000J0D01*
G01*
X140715000Y-105600000D01*
G75*
G02*
X140565000Y-105450000I0J150000D01*
G01*
X140565000Y-103800000D01*
G75*
G02*
X140715000Y-103650000I150000J0D01*
G01*
G37*
%TD.AperFunction*%
%TO.P,U1,2*%
%TA.AperFunction,SMDPad,CuDef*%
G36*
G01*
X141985000Y-103650000D02*
X142285000Y-103650000D01*
G75*
G02*
X142435000Y-103800000I0J-150000D01*
G01*
X142435000Y-105450000D01*
G75*
G02*
X142285000Y-105600000I-150000J0D01*
G01*
X141985000Y-105600000D01*
G75*
G02*
X141835000Y-105450000I0J150000D01*
G01*
X141835000Y-103800000D01*
G75*
G02*
X141985000Y-103650000I150000J0D01*
G01*
G37*
%TD.AperFunction*%
%TO.P,U1,1*%
%TO.N,AudioMute*%
%TA.AperFunction,SMDPad,CuDef*%
G36*
G01*
X143255000Y-103650000D02*
X143555000Y-103650000D01*
G75*
G02*
X143705000Y-103800000I0J-150000D01*
G01*
X143705000Y-105450000D01*
G75*
G02*
X143555000Y-105600000I-150000J0D01*
G01*
X143255000Y-105600000D01*
G75*
G02*
X143105000Y-105450000I0J150000D01*
G01*
X143105000Y-103800000D01*
G75*
G02*
X143255000Y-103650000I150000J0D01*
G01*
G37*
%TD.AperFunction*%
%TD*%
%TO.P,C6,2*%
%TO.N,GND*%
%TA.AperFunction,SMDPad,CuDef*%
G36*
G01*
X140525000Y-114050000D02*
X141475000Y-114050000D01*
G75*
G02*
X141725000Y-114300000I0J-250000D01*
G01*
X141725000Y-114975000D01*
G75*
G02*
X141475000Y-115225000I-250000J0D01*
G01*
X140525000Y-115225000D01*
G75*
G02*
X140275000Y-114975000I0J250000D01*
G01*
X140275000Y-114300000D01*
G75*
G02*
X140525000Y-114050000I250000J0D01*
G01*
G37*
%TD.AperFunction*%
%TO.P,C6,1*%
%TO.N,+5V*%
%TA.AperFunction,SMDPad,CuDef*%
G36*
G01*
X140525000Y-111975000D02*
X141475000Y-111975000D01*
G75*
G02*
X141725000Y-112225000I0J-250000D01*
G01*
X141725000Y-112900000D01*
G75*
G02*
X141475000Y-113150000I-250000J0D01*
G01*
X140525000Y-113150000D01*
G75*
G02*
X140275000Y-112900000I0J250000D01*
G01*
X140275000Y-112225000D01*
G75*
G02*
X140525000Y-111975000I250000J0D01*
G01*
G37*
%TD.AperFunction*%
%TD*%
D11*
%TO.P,C3,2*%
%TO.N,GND*%
X145400000Y-128300000D03*
D12*
%TO.P,C3,1*%
%TO.N,+5V*%
X148900000Y-128300000D03*
%TD*%
%TO.P,C2,2*%
%TO.N,Net-(C2-Pad2)*%
%TA.AperFunction,SMDPad,CuDef*%
G36*
G01*
X142800000Y-101349998D02*
X142800000Y-102650002D01*
G75*
G02*
X142550002Y-102900000I-249998J0D01*
G01*
X141724998Y-102900000D01*
G75*
G02*
X141475000Y-102650002I0J249998D01*
G01*
X141475000Y-101349998D01*
G75*
G02*
X141724998Y-101100000I249998J0D01*
G01*
X142550002Y-101100000D01*
G75*
G02*
X142800000Y-101349998I0J-249998D01*
G01*
G37*
%TD.AperFunction*%
%TO.P,C2,1*%
%TO.N,GND*%
%TA.AperFunction,SMDPad,CuDef*%
G36*
G01*
X145925000Y-101349998D02*
X145925000Y-102650002D01*
G75*
G02*
X145675002Y-102900000I-249998J0D01*
G01*
X144849998Y-102900000D01*
G75*
G02*
X144600000Y-102650002I0J249998D01*
G01*
X144600000Y-101349998D01*
G75*
G02*
X144849998Y-101100000I249998J0D01*
G01*
X145675002Y-101100000D01*
G75*
G02*
X145925000Y-101349998I0J-249998D01*
G01*
G37*
%TD.AperFunction*%
%TD*%
D13*
%TO.P,C5,2*%
%TO.N,GND*%
X147400000Y-114100000D03*
D14*
%TO.P,C5,1*%
%TO.N,+5V*%
X147400000Y-112600000D03*
%TD*%
D15*
%TO.P,U2,30*%
%TO.N,/MOSI*%
X177700000Y-80900000D03*
%TO.P,U2,29*%
%TO.N,SCL*%
X177700000Y-83440000D03*
%TO.P,U2,28*%
%TO.N,Net-(U2-Pad28)*%
X177700000Y-85980000D03*
%TO.P,U2,27*%
%TO.N,Net-(U2-Pad27)*%
X177700000Y-88520000D03*
%TO.P,U2,26*%
%TO.N,SDA*%
X177700000Y-91060000D03*
%TO.P,U2,25*%
%TO.N,/MISO*%
X177700000Y-93600000D03*
%TO.P,U2,24*%
%TO.N,/SCK*%
X177700000Y-96140000D03*
%TO.P,U2,23*%
%TO.N,/TOUCH_CS*%
X177700000Y-98680000D03*
%TO.P,U2,22*%
%TO.N,Net-(U2-Pad22)*%
X177700000Y-101220000D03*
%TO.P,U2,21*%
%TO.N,Net-(U2-Pad21)*%
X177700000Y-103760000D03*
%TO.P,U2,20*%
%TO.N,/TFT_DC*%
X177700000Y-106300000D03*
%TO.P,U2,19*%
%TO.N,/TFT_RESET*%
X177700000Y-108840000D03*
%TO.P,U2,18*%
%TO.N,/TFT_CS*%
X177700000Y-111380000D03*
%TO.P,U2,17*%
%TO.N,GND*%
X177700000Y-113920000D03*
%TO.P,U2,16*%
%TO.N,+3V3*%
X177700000Y-116460000D03*
%TO.P,U2,1*%
%TO.N,Net-(U2-Pad1)*%
X152300000Y-80900000D03*
%TO.P,U2,15*%
%TO.N,+5V*%
X152300000Y-116460000D03*
%TO.P,U2,14*%
%TO.N,GND*%
X152300000Y-113920000D03*
%TO.P,U2,13*%
%TO.N,Net-(U2-Pad13)*%
X152300000Y-111380000D03*
%TO.P,U2,12*%
%TO.N,Net-(U2-Pad12)*%
X152300000Y-108840000D03*
%TO.P,U2,11*%
%TO.N,Net-(U2-Pad11)*%
X152300000Y-106300000D03*
%TO.P,U2,10*%
%TO.N,Net-(U2-Pad10)*%
X152300000Y-103760000D03*
%TO.P,U2,9*%
%TO.N,TFT_LED*%
X152300000Y-101220000D03*
%TO.P,U2,8*%
%TO.N,AudioOut*%
X152300000Y-98680000D03*
%TO.P,U2,7*%
%TO.N,TouchInt*%
X152300000Y-96140000D03*
%TO.P,U2,6*%
%TO.N,AudioMute*%
X152300000Y-93600000D03*
%TO.P,U2,5*%
%TO.N,RTC_INT*%
X152300000Y-91060000D03*
%TO.P,U2,4*%
%TO.N,Net-(R7-Pad2)*%
X152300000Y-88520000D03*
%TO.P,U2,3*%
%TO.N,Net-(J4-Pad1)*%
X152300000Y-85980000D03*
%TO.P,U2,2*%
%TO.N,Net-(U2-Pad2)*%
X152300000Y-83440000D03*
%TD*%
%TO.P,C1,2*%
%TO.N,Net-(C1-Pad2)*%
%TA.AperFunction,SMDPad,CuDef*%
G36*
G01*
X146250000Y-98325000D02*
X146250000Y-99275000D01*
G75*
G02*
X146000000Y-99525000I-250000J0D01*
G01*
X145325000Y-99525000D01*
G75*
G02*
X145075000Y-99275000I0J250000D01*
G01*
X145075000Y-98325000D01*
G75*
G02*
X145325000Y-98075000I250000J0D01*
G01*
X146000000Y-98075000D01*
G75*
G02*
X146250000Y-98325000I0J-250000D01*
G01*
G37*
%TD.AperFunction*%
%TO.P,C1,1*%
%TO.N,AudioOut*%
%TA.AperFunction,SMDPad,CuDef*%
G36*
G01*
X148325000Y-98325000D02*
X148325000Y-99275000D01*
G75*
G02*
X148075000Y-99525000I-250000J0D01*
G01*
X147400000Y-99525000D01*
G75*
G02*
X147150000Y-99275000I0J250000D01*
G01*
X147150000Y-98325000D01*
G75*
G02*
X147400000Y-98075000I250000J0D01*
G01*
X148075000Y-98075000D01*
G75*
G02*
X148325000Y-98325000I0J-250000D01*
G01*
G37*
%TD.AperFunction*%
%TD*%
%TO.P,R11,2*%
%TO.N,SCL*%
%TA.AperFunction,SMDPad,CuDef*%
G36*
G01*
X187100000Y-124850001D02*
X187100000Y-123949999D01*
G75*
G02*
X187349999Y-123700000I249999J0D01*
G01*
X188050001Y-123700000D01*
G75*
G02*
X188300000Y-123949999I0J-249999D01*
G01*
X188300000Y-124850001D01*
G75*
G02*
X188050001Y-125100000I-249999J0D01*
G01*
X187349999Y-125100000D01*
G75*
G02*
X187100000Y-124850001I0J249999D01*
G01*
G37*
%TD.AperFunction*%
%TO.P,R11,1*%
%TO.N,+3V3*%
%TA.AperFunction,SMDPad,CuDef*%
G36*
G01*
X185100000Y-124850001D02*
X185100000Y-123949999D01*
G75*
G02*
X185349999Y-123700000I249999J0D01*
G01*
X186050001Y-123700000D01*
G75*
G02*
X186300000Y-123949999I0J-249999D01*
G01*
X186300000Y-124850001D01*
G75*
G02*
X186050001Y-125100000I-249999J0D01*
G01*
X185349999Y-125100000D01*
G75*
G02*
X185100000Y-124850001I0J249999D01*
G01*
G37*
%TD.AperFunction*%
%TD*%
%TO.P,R10,2*%
%TO.N,Net-(J3-Pad2)*%
%TA.AperFunction,SMDPad,CuDef*%
G36*
G01*
X137049999Y-107000000D02*
X137950001Y-107000000D01*
G75*
G02*
X138200000Y-107249999I0J-249999D01*
G01*
X138200000Y-107950001D01*
G75*
G02*
X137950001Y-108200000I-249999J0D01*
G01*
X137049999Y-108200000D01*
G75*
G02*
X136800000Y-107950001I0J249999D01*
G01*
X136800000Y-107249999D01*
G75*
G02*
X137049999Y-107000000I249999J0D01*
G01*
G37*
%TD.AperFunction*%
%TO.P,R10,1*%
%TO.N,Net-(R10-Pad1)*%
%TA.AperFunction,SMDPad,CuDef*%
G36*
G01*
X137049999Y-105000000D02*
X137950001Y-105000000D01*
G75*
G02*
X138200000Y-105249999I0J-249999D01*
G01*
X138200000Y-105950001D01*
G75*
G02*
X137950001Y-106200000I-249999J0D01*
G01*
X137049999Y-106200000D01*
G75*
G02*
X136800000Y-105950001I0J249999D01*
G01*
X136800000Y-105249999D01*
G75*
G02*
X137049999Y-105000000I249999J0D01*
G01*
G37*
%TD.AperFunction*%
%TD*%
%TO.P,R8,2*%
%TO.N,Net-(C1-Pad2)*%
%TA.AperFunction,SMDPad,CuDef*%
G36*
G01*
X142800000Y-99250001D02*
X142800000Y-98349999D01*
G75*
G02*
X143049999Y-98100000I249999J0D01*
G01*
X143750001Y-98100000D01*
G75*
G02*
X144000000Y-98349999I0J-249999D01*
G01*
X144000000Y-99250001D01*
G75*
G02*
X143750001Y-99500000I-249999J0D01*
G01*
X143049999Y-99500000D01*
G75*
G02*
X142800000Y-99250001I0J249999D01*
G01*
G37*
%TD.AperFunction*%
%TO.P,R8,1*%
%TO.N,Net-(R10-Pad1)*%
%TA.AperFunction,SMDPad,CuDef*%
G36*
G01*
X140800000Y-99250001D02*
X140800000Y-98349999D01*
G75*
G02*
X141049999Y-98100000I249999J0D01*
G01*
X141750001Y-98100000D01*
G75*
G02*
X142000000Y-98349999I0J-249999D01*
G01*
X142000000Y-99250001D01*
G75*
G02*
X141750001Y-99500000I-249999J0D01*
G01*
X141049999Y-99500000D01*
G75*
G02*
X140800000Y-99250001I0J249999D01*
G01*
G37*
%TD.AperFunction*%
%TD*%
%TO.P,R7,2*%
%TO.N,Net-(R7-Pad2)*%
%TA.AperFunction,SMDPad,CuDef*%
G36*
G01*
X160400000Y-88049999D02*
X160400000Y-88950001D01*
G75*
G02*
X160150001Y-89200000I-249999J0D01*
G01*
X159449999Y-89200000D01*
G75*
G02*
X159200000Y-88950001I0J249999D01*
G01*
X159200000Y-88049999D01*
G75*
G02*
X159449999Y-87800000I249999J0D01*
G01*
X160150001Y-87800000D01*
G75*
G02*
X160400000Y-88049999I0J-249999D01*
G01*
G37*
%TD.AperFunction*%
%TO.P,R7,1*%
%TO.N,+3V3*%
%TA.AperFunction,SMDPad,CuDef*%
G36*
G01*
X162400000Y-88049999D02*
X162400000Y-88950001D01*
G75*
G02*
X162150001Y-89200000I-249999J0D01*
G01*
X161449999Y-89200000D01*
G75*
G02*
X161200000Y-88950001I0J249999D01*
G01*
X161200000Y-88049999D01*
G75*
G02*
X161449999Y-87800000I249999J0D01*
G01*
X162150001Y-87800000D01*
G75*
G02*
X162400000Y-88049999I0J-249999D01*
G01*
G37*
%TD.AperFunction*%
%TD*%
%TO.P,R6,2*%
%TO.N,SDA*%
%TA.AperFunction,SMDPad,CuDef*%
G36*
G01*
X182000000Y-123949999D02*
X182000000Y-124850001D01*
G75*
G02*
X181750001Y-125100000I-249999J0D01*
G01*
X181049999Y-125100000D01*
G75*
G02*
X180800000Y-124850001I0J249999D01*
G01*
X180800000Y-123949999D01*
G75*
G02*
X181049999Y-123700000I249999J0D01*
G01*
X181750001Y-123700000D01*
G75*
G02*
X182000000Y-123949999I0J-249999D01*
G01*
G37*
%TD.AperFunction*%
%TO.P,R6,1*%
%TO.N,+3V3*%
%TA.AperFunction,SMDPad,CuDef*%
G36*
G01*
X184000000Y-123949999D02*
X184000000Y-124850001D01*
G75*
G02*
X183750001Y-125100000I-249999J0D01*
G01*
X183049999Y-125100000D01*
G75*
G02*
X182800000Y-124850001I0J249999D01*
G01*
X182800000Y-123949999D01*
G75*
G02*
X183049999Y-123700000I249999J0D01*
G01*
X183750001Y-123700000D01*
G75*
G02*
X184000000Y-123949999I0J-249999D01*
G01*
G37*
%TD.AperFunction*%
%TD*%
%TO.P,R2,2*%
%TO.N,GND*%
%TA.AperFunction,SMDPad,CuDef*%
G36*
G01*
X156650001Y-63600000D02*
X155749999Y-63600000D01*
G75*
G02*
X155500000Y-63350001I0J249999D01*
G01*
X155500000Y-62649999D01*
G75*
G02*
X155749999Y-62400000I249999J0D01*
G01*
X156650001Y-62400000D01*
G75*
G02*
X156900000Y-62649999I0J-249999D01*
G01*
X156900000Y-63350001D01*
G75*
G02*
X156650001Y-63600000I-249999J0D01*
G01*
G37*
%TD.AperFunction*%
%TO.P,R2,1*%
%TO.N,Net-(J4-Pad1)*%
%TA.AperFunction,SMDPad,CuDef*%
G36*
G01*
X156650001Y-65600000D02*
X155749999Y-65600000D01*
G75*
G02*
X155500000Y-65350001I0J249999D01*
G01*
X155500000Y-64649999D01*
G75*
G02*
X155749999Y-64400000I249999J0D01*
G01*
X156650001Y-64400000D01*
G75*
G02*
X156900000Y-64649999I0J-249999D01*
G01*
X156900000Y-65350001D01*
G75*
G02*
X156650001Y-65600000I-249999J0D01*
G01*
G37*
%TD.AperFunction*%
%TD*%
%TO.P,R1,2*%
%TO.N,Net-(J4-Pad1)*%
%TA.AperFunction,SMDPad,CuDef*%
G36*
G01*
X160400000Y-85549999D02*
X160400000Y-86450001D01*
G75*
G02*
X160150001Y-86700000I-249999J0D01*
G01*
X159449999Y-86700000D01*
G75*
G02*
X159200000Y-86450001I0J249999D01*
G01*
X159200000Y-85549999D01*
G75*
G02*
X159449999Y-85300000I249999J0D01*
G01*
X160150001Y-85300000D01*
G75*
G02*
X160400000Y-85549999I0J-249999D01*
G01*
G37*
%TD.AperFunction*%
%TO.P,R1,1*%
%TO.N,+3V3*%
%TA.AperFunction,SMDPad,CuDef*%
G36*
G01*
X162400000Y-85549999D02*
X162400000Y-86450001D01*
G75*
G02*
X162150001Y-86700000I-249999J0D01*
G01*
X161449999Y-86700000D01*
G75*
G02*
X161200000Y-86450001I0J249999D01*
G01*
X161200000Y-85549999D01*
G75*
G02*
X161449999Y-85300000I249999J0D01*
G01*
X162150001Y-85300000D01*
G75*
G02*
X162400000Y-85549999I0J-249999D01*
G01*
G37*
%TD.AperFunction*%
%TD*%
D16*
%TO.P,SW1,2*%
%TO.N,Net-(R7-Pad2)*%
X144300000Y-89603800D03*
%TO.P,SW1,1*%
%TO.N,GND*%
X144300000Y-84600000D03*
%TD*%
D17*
%TO.P,J4,2*%
%TO.N,GND*%
X148500000Y-62600000D03*
%TO.P,J4,1*%
%TO.N,Net-(J4-Pad1)*%
%TA.AperFunction,ComponentPad*%
G36*
G01*
X149250000Y-65950000D02*
X147750000Y-65950000D01*
G75*
G02*
X147500000Y-65700000I0J250000D01*
G01*
X147500000Y-64500000D01*
G75*
G02*
X147750000Y-64250000I250000J0D01*
G01*
X149250000Y-64250000D01*
G75*
G02*
X149500000Y-64500000I0J-250000D01*
G01*
X149500000Y-65700000D01*
G75*
G02*
X149250000Y-65950000I-250000J0D01*
G01*
G37*
%TD.AperFunction*%
%TD*%
D18*
%TO.P,J3,2*%
%TO.N,Net-(J3-Pad2)*%
X140200000Y-119700000D03*
%TO.P,J3,1*%
%TO.N,Net-(J3-Pad1)*%
%TA.AperFunction,ComponentPad*%
G36*
G01*
X143550000Y-118950000D02*
X143550000Y-120450000D01*
G75*
G02*
X143300000Y-120700000I-250000J0D01*
G01*
X142100000Y-120700000D01*
G75*
G02*
X141850000Y-120450000I0J250000D01*
G01*
X141850000Y-118950000D01*
G75*
G02*
X142100000Y-118700000I250000J0D01*
G01*
X143300000Y-118700000D01*
G75*
G02*
X143550000Y-118950000I0J-250000D01*
G01*
G37*
%TD.AperFunction*%
%TD*%
D19*
%TO.P,J2,4*%
%TO.N,GND*%
X144900000Y-141400000D03*
%TO.P,J2,3*%
%TO.N,Net-(J2-Pad3)*%
X147400000Y-141400000D03*
%TO.P,J2,2*%
%TO.N,Net-(J2-Pad2)*%
X149900000Y-141400000D03*
%TO.P,J2,1*%
%TO.N,+5V*%
%TA.AperFunction,ComponentPad*%
G36*
G01*
X153250000Y-140675000D02*
X153250000Y-142125000D01*
G75*
G02*
X153000000Y-142375000I-250000J0D01*
G01*
X151800000Y-142375000D01*
G75*
G02*
X151550000Y-142125000I0J250000D01*
G01*
X151550000Y-140675000D01*
G75*
G02*
X151800000Y-140425000I250000J0D01*
G01*
X153000000Y-140425000D01*
G75*
G02*
X153250000Y-140675000I0J-250000D01*
G01*
G37*
%TD.AperFunction*%
%TD*%
D20*
%TO.P,J1,14*%
%TO.N,TouchInt*%
X181520000Y-72000000D03*
%TO.P,J1,13*%
%TO.N,/MISO*%
X178980000Y-72000000D03*
%TO.P,J1,12*%
%TO.N,/MOSI*%
X176440000Y-72000000D03*
%TO.P,J1,11*%
%TO.N,/TOUCH_CS*%
X173900000Y-72000000D03*
%TO.P,J1,10*%
%TO.N,/SCK*%
X171360000Y-72000000D03*
%TO.P,J1,9*%
%TO.N,Net-(J1-Pad9)*%
X168820000Y-72000000D03*
%TO.P,J1,8*%
%TO.N,TFT_LED*%
X166280000Y-72000000D03*
%TO.P,J1,7*%
%TO.N,/SCK*%
X163740000Y-72000000D03*
%TO.P,J1,6*%
%TO.N,/MOSI*%
X161200000Y-72000000D03*
%TO.P,J1,5*%
%TO.N,/TFT_DC*%
X158660000Y-72000000D03*
%TO.P,J1,4*%
%TO.N,/TFT_RESET*%
X156120000Y-72000000D03*
%TO.P,J1,3*%
%TO.N,/TFT_CS*%
X153580000Y-72000000D03*
%TO.P,J1,2*%
%TO.N,GND*%
X151040000Y-72000000D03*
D21*
%TO.P,J1,1*%
%TO.N,+5V*%
X148500000Y-72000000D03*
%TD*%
D22*
%TO.N,GND*%
X147000000Y-75700000D03*
X147000000Y-77000000D03*
X147000000Y-78200000D03*
X151000000Y-75700000D03*
X151000000Y-77000000D03*
X151000000Y-78200000D03*
X146900000Y-102000000D03*
X142100000Y-107600000D03*
X141000000Y-116200000D03*
%TO.N,+5V*%
X142600000Y-112600000D03*
X168900000Y-150400000D03*
%TO.N,/TOUCH_CS*%
X173900000Y-93600000D03*
%TO.N,TFT_LED*%
X166400000Y-96200000D03*
%TO.N,+3V3*%
X178925000Y-130024998D03*
X184000000Y-127300000D03*
%TO.N,AudioMute*%
X144600000Y-97200000D03*
X144600000Y-104400000D03*
%TO.N,TouchInt*%
X168000000Y-92700000D03*
X169600000Y-78900000D03*
%TO.N,SDA*%
X180500000Y-142300000D03*
%TO.N,SCL*%
X181600000Y-140800000D03*
%TO.N,RTC_INT*%
X180195000Y-134895000D03*
X159800000Y-102400000D03*
%TD*%
D23*
%TO.N,AudioOut*%
X152180000Y-98800000D02*
X152300000Y-98680000D01*
X147737500Y-98800000D02*
X152180000Y-98800000D01*
%TO.N,GND*%
X148900000Y-63000000D02*
X148500000Y-62600000D01*
X156200000Y-63000000D02*
X148900000Y-63000000D01*
X145262500Y-102000000D02*
X146900000Y-102000000D01*
X142135000Y-107665000D02*
X142200000Y-107600000D01*
D24*
X142135000Y-109575000D02*
X142135000Y-107665000D01*
X141000000Y-114637500D02*
X141000000Y-116200000D01*
D25*
%TO.N,+5V*%
X152200000Y-140200000D02*
X152300000Y-140100000D01*
X140865000Y-112427500D02*
X141000000Y-112562500D01*
D24*
X140865000Y-109575000D02*
X140865000Y-112427500D01*
D25*
X142542490Y-112562500D02*
X142579990Y-112600000D01*
X141000000Y-112562500D02*
X142542490Y-112562500D01*
X148900000Y-128300000D02*
X152300000Y-128300000D01*
X152300000Y-116460000D02*
X152300000Y-128300000D01*
X152400000Y-139700000D02*
X152300000Y-139600000D01*
X152400000Y-141400000D02*
X152400000Y-139700000D01*
X152300000Y-139600000D02*
X152300000Y-140100000D01*
X152300000Y-128300000D02*
X152300000Y-139600000D01*
X159900000Y-141400000D02*
X168900000Y-150400000D01*
X152400000Y-141400000D02*
X159900000Y-141400000D01*
D23*
%TO.N,/MOSI*%
X161200000Y-72000000D02*
X161200000Y-75400000D01*
X161200000Y-75400000D02*
X163200000Y-77400000D01*
X163200000Y-77400000D02*
X173300000Y-77400000D01*
X176440000Y-74260000D02*
X176440000Y-72000000D01*
X173300000Y-77400000D02*
X176440000Y-74260000D01*
%TO.N,/TOUCH_CS*%
X173900000Y-94880000D02*
X177700000Y-98680000D01*
X173900000Y-93600000D02*
X173900000Y-94880000D01*
%TO.N,/SCK*%
X163740000Y-72000000D02*
X163740000Y-73340000D01*
X163740000Y-73340000D02*
X165400000Y-75000000D01*
X165400000Y-75000000D02*
X170500000Y-75000000D01*
X171360000Y-74140000D02*
X171360000Y-72000000D01*
X170500000Y-75000000D02*
X171360000Y-74140000D01*
%TO.N,TFT_LED*%
X152420000Y-101100000D02*
X152300000Y-101220000D01*
X156500000Y-101100000D02*
X152420000Y-101100000D01*
X157100000Y-100500000D02*
X156500000Y-101100000D01*
X162100000Y-100500000D02*
X157100000Y-100500000D01*
X166400000Y-96200000D02*
X162100000Y-100500000D01*
%TO.N,Net-(J4-Pad1)*%
X152320000Y-86000000D02*
X152300000Y-85980000D01*
X148600000Y-65000000D02*
X148500000Y-65100000D01*
X156200000Y-65000000D02*
X148600000Y-65000000D01*
X152300000Y-85980000D02*
X151080000Y-85980000D01*
X151080000Y-85980000D02*
X146900000Y-81800000D01*
X146900000Y-81800000D02*
X141300000Y-81800000D01*
X141300000Y-81800000D02*
X138700000Y-79200000D01*
X138700000Y-79200000D02*
X138700000Y-71000000D01*
X144600000Y-65100000D02*
X148500000Y-65100000D01*
X138700000Y-71000000D02*
X144600000Y-65100000D01*
X159800000Y-86000000D02*
X156500000Y-86000000D01*
X156500000Y-86000000D02*
X152320000Y-86000000D01*
X156700000Y-86000000D02*
X156500000Y-86000000D01*
D25*
%TO.N,+3V3*%
X169920000Y-116460000D02*
X177700000Y-116460000D01*
X169800000Y-116340000D02*
X169920000Y-116460000D01*
X169800000Y-91200000D02*
X169800000Y-116340000D01*
X167100000Y-88500000D02*
X169800000Y-91200000D01*
X177700000Y-116460000D02*
X178925000Y-117685000D01*
X178925000Y-117685000D02*
X178925000Y-130024998D01*
X185700000Y-124400000D02*
X183400000Y-124400000D01*
X185700000Y-124400000D02*
X185700000Y-125600000D01*
X185700000Y-125600000D02*
X184000000Y-127300000D01*
X161800000Y-86000000D02*
X161800000Y-88500000D01*
X161800000Y-88500000D02*
X167100000Y-88500000D01*
D23*
%TO.N,AudioMute*%
X152240000Y-93540000D02*
X152300000Y-93600000D01*
X148200000Y-93600000D02*
X144600000Y-97200000D01*
X152300000Y-93600000D02*
X148200000Y-93600000D01*
X143630000Y-104400000D02*
X143405000Y-104625000D01*
X144600000Y-104400000D02*
X143630000Y-104400000D01*
%TO.N,Net-(R7-Pad2)*%
X152283800Y-88503800D02*
X152300000Y-88520000D01*
X145383800Y-88520000D02*
X144300000Y-89603800D01*
X152300000Y-88520000D02*
X145383800Y-88520000D01*
X152320000Y-88500000D02*
X152300000Y-88520000D01*
X159800000Y-88500000D02*
X156200000Y-88500000D01*
X156200000Y-88500000D02*
X152320000Y-88500000D01*
X156700000Y-88500000D02*
X156200000Y-88500000D01*
%TO.N,TouchInt*%
X167900000Y-92800000D02*
X168000000Y-92700000D01*
X169600000Y-78900000D02*
X176600000Y-78900000D01*
X181520000Y-73980000D02*
X181520000Y-72000000D01*
X176600000Y-78900000D02*
X181520000Y-73980000D01*
X168000000Y-92700000D02*
X162200000Y-92700000D01*
X158760000Y-96140000D02*
X152300000Y-96140000D01*
X162200000Y-92700000D02*
X158760000Y-96140000D01*
%TO.N,SDA*%
X181400000Y-124400000D02*
X181400000Y-137900000D01*
X180500000Y-138800000D02*
X180500000Y-142300000D01*
X181400000Y-137900000D02*
X180500000Y-138800000D01*
X177700000Y-91060000D02*
X179960000Y-91060000D01*
X181400000Y-92500000D02*
X181400000Y-124400000D01*
X179960000Y-91060000D02*
X181400000Y-92500000D01*
%TO.N,SCL*%
X187700000Y-134700000D02*
X181600000Y-140800000D01*
X187700000Y-124400000D02*
X187700000Y-134700000D01*
X177700000Y-83440000D02*
X183240000Y-83440000D01*
X187700000Y-87900000D02*
X187700000Y-124400000D01*
X183240000Y-83440000D02*
X187700000Y-87900000D01*
%TO.N,RTC_INT*%
X174995000Y-134895000D02*
X180195000Y-134895000D01*
X165900000Y-125800000D02*
X174995000Y-134895000D01*
X165900000Y-108500000D02*
X165900000Y-125800000D01*
X159800000Y-102400000D02*
X165900000Y-108500000D01*
%TO.N,Net-(C1-Pad2)*%
X143400000Y-98800000D02*
X145662500Y-98800000D01*
%TO.N,Net-(C2-Pad2)*%
X142662500Y-102000000D02*
X142525000Y-102137500D01*
X141875000Y-102787500D02*
X142662500Y-102000000D01*
X141875000Y-102262500D02*
X142137500Y-102000000D01*
X142137500Y-104622500D02*
X142135000Y-104625000D01*
X142137500Y-102000000D02*
X142137500Y-104622500D01*
X142137500Y-102000000D02*
X141300000Y-102000000D01*
X140865000Y-102435000D02*
X140865000Y-104625000D01*
X141300000Y-102000000D02*
X140865000Y-102435000D01*
%TO.N,Net-(J3-Pad2)*%
X137500000Y-107600000D02*
X137500000Y-108100000D01*
X137500000Y-107600000D02*
X137500000Y-108900000D01*
X138175000Y-109575000D02*
X139595000Y-109575000D01*
X137500000Y-108900000D02*
X138175000Y-109575000D01*
D24*
X139595000Y-119095000D02*
X140200000Y-119700000D01*
X139595000Y-109575000D02*
X139595000Y-119095000D01*
%TO.N,Net-(J3-Pad1)*%
X143600000Y-117000000D02*
X142700000Y-117900000D01*
X143600000Y-111300000D02*
X143600000Y-117000000D01*
X143405000Y-111105000D02*
X143600000Y-111300000D01*
X142700000Y-117900000D02*
X142700000Y-119700000D01*
X143405000Y-109575000D02*
X143405000Y-111105000D01*
D23*
%TO.N,Net-(R10-Pad1)*%
X141225000Y-98975000D02*
X141400000Y-98800000D01*
X137500000Y-105600000D02*
X137500000Y-105400000D01*
X141400000Y-98800000D02*
X141100000Y-98800000D01*
X139595000Y-100305000D02*
X139595000Y-104625000D01*
X141100000Y-98800000D02*
X139595000Y-100305000D01*
X137500000Y-105600000D02*
X137500000Y-104800000D01*
X137675000Y-104625000D02*
X139595000Y-104625000D01*
X137500000Y-104800000D02*
X137675000Y-104625000D01*
%TD*%
D26*
%TO.N,GND*%
X151873000Y-79073000D02*
X145924326Y-79073000D01*
X145829731Y-74627000D01*
X151873000Y-74627000D01*
X151873000Y-79073000D01*
%TA.AperFunction,Conductor*%
D27*
G36*
X151873000Y-79073000D02*
G01*
X145924326Y-79073000D01*
X145829731Y-74627000D01*
X151873000Y-74627000D01*
X151873000Y-79073000D01*
G37*
%TD.AperFunction*%
%TD*%
M02*
