%TF.GenerationSoftware,KiCad,Pcbnew,(5.1.10)-1*%
%TF.CreationDate,2023-09-30T19:16:06-07:00*%
%TF.ProjectId,PacmanClock_ESP32_SPI_v1_6,5061636d-616e-4436-9c6f-636b5f455350,1.6*%
%TF.SameCoordinates,Original*%
%TF.FileFunction,Other,Fab,Top*%
%FSLAX46Y46*%
G04 Gerber Fmt 4.6, Leading zero omitted, Abs format (unit mm)*
G04 Created by KiCad (PCBNEW (5.1.10)-1) date 2023-09-30 19:16:06*
%MOMM*%
%LPD*%
G01*
G04 APERTURE LIST*
%ADD10C,0.100000*%
%ADD11C,0.150000*%
%ADD12C,0.080000*%
%ADD13C,0.120000*%
G04 APERTURE END LIST*
D10*
%TO.C,U1*%
X142975000Y-105150000D02*
X143950000Y-106125000D01*
X139050000Y-105150000D02*
X142975000Y-105150000D01*
X139050000Y-109050000D02*
X139050000Y-105150000D01*
X143950000Y-109050000D02*
X139050000Y-109050000D01*
X143950000Y-106125000D02*
X143950000Y-109050000D01*
%TO.C,C6*%
X140375000Y-112600000D02*
X141625000Y-112600000D01*
X141625000Y-112600000D02*
X141625000Y-114600000D01*
X141625000Y-114600000D02*
X140375000Y-114600000D01*
X140375000Y-114600000D02*
X140375000Y-112600000D01*
%TO.C,C3*%
X151150000Y-128300000D02*
G75*
G03*
X151150000Y-128300000I-4000000J0D01*
G01*
X150576759Y-130047500D02*
X149776759Y-130047500D01*
X150176759Y-130447500D02*
X150176759Y-129647500D01*
%TO.C,C2*%
X145300000Y-101200000D02*
X145300000Y-102800000D01*
X145300000Y-102800000D02*
X142100000Y-102800000D01*
X142100000Y-102800000D02*
X142100000Y-101200000D01*
X142100000Y-101200000D02*
X145300000Y-101200000D01*
%TO.C,C5*%
X149400000Y-113350000D02*
G75*
G03*
X149400000Y-113350000I-2000000J0D01*
G01*
X148267500Y-111647446D02*
X148267500Y-112047446D01*
X148467500Y-111847446D02*
X148067500Y-111847446D01*
%TO.C,C1*%
X145700000Y-98175000D02*
X147700000Y-98175000D01*
X145700000Y-99425000D02*
X145700000Y-98175000D01*
X147700000Y-99425000D02*
X145700000Y-99425000D01*
X147700000Y-98175000D02*
X147700000Y-99425000D01*
%TO.C,R11*%
X187700000Y-125025000D02*
X185700000Y-125025000D01*
X187700000Y-123775000D02*
X187700000Y-125025000D01*
X185700000Y-123775000D02*
X187700000Y-123775000D01*
X185700000Y-125025000D02*
X185700000Y-123775000D01*
%TO.C,R10*%
X136875000Y-107600000D02*
X136875000Y-105600000D01*
X138125000Y-107600000D02*
X136875000Y-107600000D01*
X138125000Y-105600000D02*
X138125000Y-107600000D01*
X136875000Y-105600000D02*
X138125000Y-105600000D01*
%TO.C,R8*%
X143400000Y-99425000D02*
X141400000Y-99425000D01*
X143400000Y-98175000D02*
X143400000Y-99425000D01*
X141400000Y-98175000D02*
X143400000Y-98175000D01*
X141400000Y-99425000D02*
X141400000Y-98175000D01*
%TO.C,R7*%
X159800000Y-87875000D02*
X161800000Y-87875000D01*
X159800000Y-89125000D02*
X159800000Y-87875000D01*
X161800000Y-89125000D02*
X159800000Y-89125000D01*
X161800000Y-87875000D02*
X161800000Y-89125000D01*
%TO.C,R6*%
X181400000Y-123775000D02*
X183400000Y-123775000D01*
X181400000Y-125025000D02*
X181400000Y-123775000D01*
X183400000Y-125025000D02*
X181400000Y-125025000D01*
X183400000Y-123775000D02*
X183400000Y-125025000D01*
%TO.C,R2*%
X156825000Y-63000000D02*
X156825000Y-65000000D01*
X155575000Y-63000000D02*
X156825000Y-63000000D01*
X155575000Y-65000000D02*
X155575000Y-63000000D01*
X156825000Y-65000000D02*
X155575000Y-65000000D01*
%TO.C,R1*%
X159800000Y-85375000D02*
X161800000Y-85375000D01*
X159800000Y-86625000D02*
X159800000Y-85375000D01*
X161800000Y-86625000D02*
X159800000Y-86625000D01*
X161800000Y-85375000D02*
X161800000Y-86625000D01*
%TO.C,SW1*%
X147398800Y-90200700D02*
X147398800Y-84003100D01*
X141201200Y-90200700D02*
X147398800Y-90200700D01*
X141201200Y-84003100D02*
X141201200Y-90200700D01*
X147398800Y-84003100D02*
X141201200Y-84003100D01*
%TO.C,J4*%
X147150000Y-65100000D02*
X146150000Y-64475000D01*
X146150000Y-65725000D02*
X147150000Y-65100000D01*
X146150000Y-60150000D02*
X146150000Y-67550000D01*
X151900000Y-60150000D02*
X146150000Y-60150000D01*
X151900000Y-67550000D02*
X151900000Y-60150000D01*
X146150000Y-67550000D02*
X151900000Y-67550000D01*
%TO.C,J3*%
X142700000Y-121050000D02*
X142075000Y-122050000D01*
X143325000Y-122050000D02*
X142700000Y-121050000D01*
X137750000Y-122050000D02*
X145150000Y-122050000D01*
X137750000Y-116300000D02*
X137750000Y-122050000D01*
X145150000Y-116300000D02*
X137750000Y-116300000D01*
X145150000Y-122050000D02*
X145150000Y-116300000D01*
%TO.C,J2*%
X152400000Y-142750000D02*
X151775000Y-143750000D01*
X153025000Y-143750000D02*
X152400000Y-142750000D01*
X142450000Y-143750000D02*
X154850000Y-143750000D01*
X142450000Y-138000000D02*
X142450000Y-143750000D01*
X154850000Y-138000000D02*
X142450000Y-138000000D01*
X154850000Y-143750000D02*
X154850000Y-138000000D01*
%TO.C,J1*%
X147230000Y-73270000D02*
X147230000Y-71365000D01*
X147230000Y-71365000D02*
X147865000Y-70730000D01*
X147865000Y-70730000D02*
X182790000Y-70730000D01*
X182790000Y-70730000D02*
X182790000Y-73270000D01*
X182790000Y-73270000D02*
X147230000Y-73270000D01*
%TD*%
%TO.C,BT1*%
D11*
X176866666Y-143152380D02*
X176390476Y-143152380D01*
X176390476Y-142152380D01*
X177200000Y-143152380D02*
X177200000Y-142152380D01*
X178247619Y-143152380D02*
X177914285Y-142676190D01*
X177676190Y-143152380D02*
X177676190Y-142152380D01*
X178057142Y-142152380D01*
X178152380Y-142200000D01*
X178200000Y-142247619D01*
X178247619Y-142342857D01*
X178247619Y-142485714D01*
X178200000Y-142580952D01*
X178152380Y-142628571D01*
X178057142Y-142676190D01*
X177676190Y-142676190D01*
X178628571Y-142247619D02*
X178676190Y-142200000D01*
X178771428Y-142152380D01*
X179009523Y-142152380D01*
X179104761Y-142200000D01*
X179152380Y-142247619D01*
X179200000Y-142342857D01*
X179200000Y-142438095D01*
X179152380Y-142580952D01*
X178580952Y-143152380D01*
X179200000Y-143152380D01*
X179819047Y-142152380D02*
X179914285Y-142152380D01*
X180009523Y-142200000D01*
X180057142Y-142247619D01*
X180104761Y-142342857D01*
X180152380Y-142533333D01*
X180152380Y-142771428D01*
X180104761Y-142961904D01*
X180057142Y-143057142D01*
X180009523Y-143104761D01*
X179914285Y-143152380D01*
X179819047Y-143152380D01*
X179723809Y-143104761D01*
X179676190Y-143057142D01*
X179628571Y-142961904D01*
X179580952Y-142771428D01*
X179580952Y-142533333D01*
X179628571Y-142342857D01*
X179676190Y-142247619D01*
X179723809Y-142200000D01*
X179819047Y-142152380D01*
X180485714Y-142152380D02*
X181104761Y-142152380D01*
X180771428Y-142533333D01*
X180914285Y-142533333D01*
X181009523Y-142580952D01*
X181057142Y-142628571D01*
X181104761Y-142723809D01*
X181104761Y-142961904D01*
X181057142Y-143057142D01*
X181009523Y-143104761D01*
X180914285Y-143152380D01*
X180628571Y-143152380D01*
X180533333Y-143104761D01*
X180485714Y-143057142D01*
X181485714Y-142247619D02*
X181533333Y-142200000D01*
X181628571Y-142152380D01*
X181866666Y-142152380D01*
X181961904Y-142200000D01*
X182009523Y-142247619D01*
X182057142Y-142342857D01*
X182057142Y-142438095D01*
X182009523Y-142580952D01*
X181438095Y-143152380D01*
X182057142Y-143152380D01*
%TO.C,U1*%
X138552380Y-112266666D02*
X138552380Y-112742857D01*
X137552380Y-112742857D01*
X138552380Y-111933333D02*
X137552380Y-111933333D01*
X138266666Y-111600000D01*
X137552380Y-111266666D01*
X138552380Y-111266666D01*
X137885714Y-110361904D02*
X138552380Y-110361904D01*
X137504761Y-110600000D02*
X138219047Y-110838095D01*
X138219047Y-110219047D01*
X137980952Y-109695238D02*
X137933333Y-109790476D01*
X137885714Y-109838095D01*
X137790476Y-109885714D01*
X137742857Y-109885714D01*
X137647619Y-109838095D01*
X137600000Y-109790476D01*
X137552380Y-109695238D01*
X137552380Y-109504761D01*
X137600000Y-109409523D01*
X137647619Y-109361904D01*
X137742857Y-109314285D01*
X137790476Y-109314285D01*
X137885714Y-109361904D01*
X137933333Y-109409523D01*
X137980952Y-109504761D01*
X137980952Y-109695238D01*
X138028571Y-109790476D01*
X138076190Y-109838095D01*
X138171428Y-109885714D01*
X138361904Y-109885714D01*
X138457142Y-109838095D01*
X138504761Y-109790476D01*
X138552380Y-109695238D01*
X138552380Y-109504761D01*
X138504761Y-109409523D01*
X138457142Y-109361904D01*
X138361904Y-109314285D01*
X138171428Y-109314285D01*
X138076190Y-109361904D01*
X138028571Y-109409523D01*
X137980952Y-109504761D01*
X138552380Y-108838095D02*
X138552380Y-108647619D01*
X138504761Y-108552380D01*
X138457142Y-108504761D01*
X138314285Y-108409523D01*
X138123809Y-108361904D01*
X137742857Y-108361904D01*
X137647619Y-108409523D01*
X137600000Y-108457142D01*
X137552380Y-108552380D01*
X137552380Y-108742857D01*
X137600000Y-108838095D01*
X137647619Y-108885714D01*
X137742857Y-108933333D01*
X137980952Y-108933333D01*
X138076190Y-108885714D01*
X138123809Y-108838095D01*
X138171428Y-108742857D01*
X138171428Y-108552380D01*
X138123809Y-108457142D01*
X138076190Y-108409523D01*
X137980952Y-108361904D01*
X137552380Y-107742857D02*
X137552380Y-107647619D01*
X137600000Y-107552380D01*
X137647619Y-107504761D01*
X137742857Y-107457142D01*
X137933333Y-107409523D01*
X138171428Y-107409523D01*
X138361904Y-107457142D01*
X138457142Y-107504761D01*
X138504761Y-107552380D01*
X138552380Y-107647619D01*
X138552380Y-107742857D01*
X138504761Y-107838095D01*
X138457142Y-107885714D01*
X138361904Y-107933333D01*
X138171428Y-107980952D01*
X137933333Y-107980952D01*
X137742857Y-107933333D01*
X137647619Y-107885714D01*
X137600000Y-107838095D01*
X137552380Y-107742857D01*
X138552380Y-106980952D02*
X137552380Y-106980952D01*
X138266666Y-106647619D01*
X137552380Y-106314285D01*
X138552380Y-106314285D01*
X138647619Y-106076190D02*
X138647619Y-105314285D01*
X138552380Y-105076190D02*
X137552380Y-105076190D01*
X138552380Y-104504761D01*
X137552380Y-104504761D01*
X137552380Y-103838095D02*
X137552380Y-103647619D01*
X137600000Y-103552380D01*
X137695238Y-103457142D01*
X137885714Y-103409523D01*
X138219047Y-103409523D01*
X138409523Y-103457142D01*
X138504761Y-103552380D01*
X138552380Y-103647619D01*
X138552380Y-103838095D01*
X138504761Y-103933333D01*
X138409523Y-104028571D01*
X138219047Y-104076190D01*
X137885714Y-104076190D01*
X137695238Y-104028571D01*
X137600000Y-103933333D01*
X137552380Y-103838095D01*
X138552380Y-102980952D02*
X137552380Y-102980952D01*
X137552380Y-102600000D01*
X137600000Y-102504761D01*
X137647619Y-102457142D01*
X137742857Y-102409523D01*
X137885714Y-102409523D01*
X137980952Y-102457142D01*
X138028571Y-102504761D01*
X138076190Y-102600000D01*
X138076190Y-102980952D01*
X138028571Y-101647619D02*
X138076190Y-101504761D01*
X138123809Y-101457142D01*
X138219047Y-101409523D01*
X138361904Y-101409523D01*
X138457142Y-101457142D01*
X138504761Y-101504761D01*
X138552380Y-101600000D01*
X138552380Y-101980952D01*
X137552380Y-101980952D01*
X137552380Y-101647619D01*
X137600000Y-101552380D01*
X137647619Y-101504761D01*
X137742857Y-101457142D01*
X137838095Y-101457142D01*
X137933333Y-101504761D01*
X137980952Y-101552380D01*
X138028571Y-101647619D01*
X138028571Y-101980952D01*
X140963333Y-107846666D02*
X141756666Y-107846666D01*
X141850000Y-107800000D01*
X141896666Y-107753333D01*
X141943333Y-107660000D01*
X141943333Y-107473333D01*
X141896666Y-107380000D01*
X141850000Y-107333333D01*
X141756666Y-107286666D01*
X140963333Y-107286666D01*
X141943333Y-106306666D02*
X141943333Y-106866666D01*
X141943333Y-106586666D02*
X140963333Y-106586666D01*
X141103333Y-106680000D01*
X141196666Y-106773333D01*
X141243333Y-106866666D01*
%TO.C,C6*%
X139772380Y-114195238D02*
X139772380Y-114766666D01*
X139772380Y-114480952D02*
X138772380Y-114480952D01*
X138915238Y-114576190D01*
X139010476Y-114671428D01*
X139058095Y-114766666D01*
X139105714Y-113338095D02*
X139772380Y-113338095D01*
X139105714Y-113766666D02*
X139629523Y-113766666D01*
X139724761Y-113719047D01*
X139772380Y-113623809D01*
X139772380Y-113480952D01*
X139724761Y-113385714D01*
X139677142Y-113338095D01*
X139248571Y-112528571D02*
X139248571Y-112861904D01*
X139772380Y-112861904D02*
X138772380Y-112861904D01*
X138772380Y-112385714D01*
D12*
X141178571Y-113683333D02*
X141202380Y-113707142D01*
X141226190Y-113778571D01*
X141226190Y-113826190D01*
X141202380Y-113897619D01*
X141154761Y-113945238D01*
X141107142Y-113969047D01*
X141011904Y-113992857D01*
X140940476Y-113992857D01*
X140845238Y-113969047D01*
X140797619Y-113945238D01*
X140750000Y-113897619D01*
X140726190Y-113826190D01*
X140726190Y-113778571D01*
X140750000Y-113707142D01*
X140773809Y-113683333D01*
X140726190Y-113254761D02*
X140726190Y-113350000D01*
X140750000Y-113397619D01*
X140773809Y-113421428D01*
X140845238Y-113469047D01*
X140940476Y-113492857D01*
X141130952Y-113492857D01*
X141178571Y-113469047D01*
X141202380Y-113445238D01*
X141226190Y-113397619D01*
X141226190Y-113302380D01*
X141202380Y-113254761D01*
X141178571Y-113230952D01*
X141130952Y-113207142D01*
X141011904Y-113207142D01*
X140964285Y-113230952D01*
X140940476Y-113254761D01*
X140916666Y-113302380D01*
X140916666Y-113397619D01*
X140940476Y-113445238D01*
X140964285Y-113469047D01*
X141011904Y-113492857D01*
%TO.C,C3*%
D11*
X145507142Y-122835714D02*
X145507142Y-123502380D01*
X145269047Y-122454761D02*
X145030952Y-123169047D01*
X145650000Y-123169047D01*
X145935714Y-122502380D02*
X146602380Y-122502380D01*
X146173809Y-123502380D01*
X147173809Y-122502380D02*
X147269047Y-122502380D01*
X147364285Y-122550000D01*
X147411904Y-122597619D01*
X147459523Y-122692857D01*
X147507142Y-122883333D01*
X147507142Y-123121428D01*
X147459523Y-123311904D01*
X147411904Y-123407142D01*
X147364285Y-123454761D01*
X147269047Y-123502380D01*
X147173809Y-123502380D01*
X147078571Y-123454761D01*
X147030952Y-123407142D01*
X146983333Y-123311904D01*
X146935714Y-123121428D01*
X146935714Y-122883333D01*
X146983333Y-122692857D01*
X147030952Y-122597619D01*
X147078571Y-122550000D01*
X147173809Y-122502380D01*
X148364285Y-122835714D02*
X148364285Y-123502380D01*
X147935714Y-122835714D02*
X147935714Y-123359523D01*
X147983333Y-123454761D01*
X148078571Y-123502380D01*
X148221428Y-123502380D01*
X148316666Y-123454761D01*
X148364285Y-123407142D01*
X149173809Y-122978571D02*
X148840476Y-122978571D01*
X148840476Y-123502380D02*
X148840476Y-122502380D01*
X149316666Y-122502380D01*
X146983333Y-128657142D02*
X146935714Y-128704761D01*
X146792857Y-128752380D01*
X146697619Y-128752380D01*
X146554761Y-128704761D01*
X146459523Y-128609523D01*
X146411904Y-128514285D01*
X146364285Y-128323809D01*
X146364285Y-128180952D01*
X146411904Y-127990476D01*
X146459523Y-127895238D01*
X146554761Y-127800000D01*
X146697619Y-127752380D01*
X146792857Y-127752380D01*
X146935714Y-127800000D01*
X146983333Y-127847619D01*
X147316666Y-127752380D02*
X147935714Y-127752380D01*
X147602380Y-128133333D01*
X147745238Y-128133333D01*
X147840476Y-128180952D01*
X147888095Y-128228571D01*
X147935714Y-128323809D01*
X147935714Y-128561904D01*
X147888095Y-128657142D01*
X147840476Y-128704761D01*
X147745238Y-128752380D01*
X147459523Y-128752380D01*
X147364285Y-128704761D01*
X147316666Y-128657142D01*
%TO.C,C2*%
X143104761Y-100602380D02*
X142533333Y-100602380D01*
X142819047Y-100602380D02*
X142819047Y-99602380D01*
X142723809Y-99745238D01*
X142628571Y-99840476D01*
X142533333Y-99888095D01*
X143961904Y-99935714D02*
X143961904Y-100602380D01*
X143533333Y-99935714D02*
X143533333Y-100459523D01*
X143580952Y-100554761D01*
X143676190Y-100602380D01*
X143819047Y-100602380D01*
X143914285Y-100554761D01*
X143961904Y-100507142D01*
X144771428Y-100078571D02*
X144438095Y-100078571D01*
X144438095Y-100602380D02*
X144438095Y-99602380D01*
X144914285Y-99602380D01*
D13*
X143566666Y-102285714D02*
X143528571Y-102323809D01*
X143414285Y-102361904D01*
X143338095Y-102361904D01*
X143223809Y-102323809D01*
X143147619Y-102247619D01*
X143109523Y-102171428D01*
X143071428Y-102019047D01*
X143071428Y-101904761D01*
X143109523Y-101752380D01*
X143147619Y-101676190D01*
X143223809Y-101600000D01*
X143338095Y-101561904D01*
X143414285Y-101561904D01*
X143528571Y-101600000D01*
X143566666Y-101638095D01*
X143871428Y-101638095D02*
X143909523Y-101600000D01*
X143985714Y-101561904D01*
X144176190Y-101561904D01*
X144252380Y-101600000D01*
X144290476Y-101638095D01*
X144328571Y-101714285D01*
X144328571Y-101790476D01*
X144290476Y-101904761D01*
X143833333Y-102361904D01*
X144328571Y-102361904D01*
%TO.C,C5*%
D11*
X144602380Y-114421428D02*
X144602380Y-114992857D01*
X144602380Y-114707142D02*
X143602380Y-114707142D01*
X143745238Y-114802380D01*
X143840476Y-114897619D01*
X143888095Y-114992857D01*
X143602380Y-113802380D02*
X143602380Y-113707142D01*
X143650000Y-113611904D01*
X143697619Y-113564285D01*
X143792857Y-113516666D01*
X143983333Y-113469047D01*
X144221428Y-113469047D01*
X144411904Y-113516666D01*
X144507142Y-113564285D01*
X144554761Y-113611904D01*
X144602380Y-113707142D01*
X144602380Y-113802380D01*
X144554761Y-113897619D01*
X144507142Y-113945238D01*
X144411904Y-113992857D01*
X144221428Y-114040476D01*
X143983333Y-114040476D01*
X143792857Y-113992857D01*
X143697619Y-113945238D01*
X143650000Y-113897619D01*
X143602380Y-113802380D01*
X143935714Y-112611904D02*
X144602380Y-112611904D01*
X143935714Y-113040476D02*
X144459523Y-113040476D01*
X144554761Y-112992857D01*
X144602380Y-112897619D01*
X144602380Y-112754761D01*
X144554761Y-112659523D01*
X144507142Y-112611904D01*
X144078571Y-111802380D02*
X144078571Y-112135714D01*
X144602380Y-112135714D02*
X143602380Y-112135714D01*
X143602380Y-111659523D01*
D13*
X147685714Y-113483333D02*
X147723809Y-113521428D01*
X147761904Y-113635714D01*
X147761904Y-113711904D01*
X147723809Y-113826190D01*
X147647619Y-113902380D01*
X147571428Y-113940476D01*
X147419047Y-113978571D01*
X147304761Y-113978571D01*
X147152380Y-113940476D01*
X147076190Y-113902380D01*
X147000000Y-113826190D01*
X146961904Y-113711904D01*
X146961904Y-113635714D01*
X147000000Y-113521428D01*
X147038095Y-113483333D01*
X146961904Y-112759523D02*
X146961904Y-113140476D01*
X147342857Y-113178571D01*
X147304761Y-113140476D01*
X147266666Y-113064285D01*
X147266666Y-112873809D01*
X147304761Y-112797619D01*
X147342857Y-112759523D01*
X147419047Y-112721428D01*
X147609523Y-112721428D01*
X147685714Y-112759523D01*
X147723809Y-112797619D01*
X147761904Y-112873809D01*
X147761904Y-113064285D01*
X147723809Y-113140476D01*
X147685714Y-113178571D01*
%TO.C,C1*%
D11*
X144533333Y-96572380D02*
X145152380Y-96572380D01*
X144819047Y-96953333D01*
X144961904Y-96953333D01*
X145057142Y-97000952D01*
X145104761Y-97048571D01*
X145152380Y-97143809D01*
X145152380Y-97381904D01*
X145104761Y-97477142D01*
X145057142Y-97524761D01*
X144961904Y-97572380D01*
X144676190Y-97572380D01*
X144580952Y-97524761D01*
X144533333Y-97477142D01*
X145628571Y-97572380D02*
X145819047Y-97572380D01*
X145914285Y-97524761D01*
X145961904Y-97477142D01*
X146057142Y-97334285D01*
X146104761Y-97143809D01*
X146104761Y-96762857D01*
X146057142Y-96667619D01*
X146009523Y-96620000D01*
X145914285Y-96572380D01*
X145723809Y-96572380D01*
X145628571Y-96620000D01*
X145580952Y-96667619D01*
X145533333Y-96762857D01*
X145533333Y-97000952D01*
X145580952Y-97096190D01*
X145628571Y-97143809D01*
X145723809Y-97191428D01*
X145914285Y-97191428D01*
X146009523Y-97143809D01*
X146057142Y-97096190D01*
X146104761Y-97000952D01*
X146723809Y-96572380D02*
X146819047Y-96572380D01*
X146914285Y-96620000D01*
X146961904Y-96667619D01*
X147009523Y-96762857D01*
X147057142Y-96953333D01*
X147057142Y-97191428D01*
X147009523Y-97381904D01*
X146961904Y-97477142D01*
X146914285Y-97524761D01*
X146819047Y-97572380D01*
X146723809Y-97572380D01*
X146628571Y-97524761D01*
X146580952Y-97477142D01*
X146533333Y-97381904D01*
X146485714Y-97191428D01*
X146485714Y-96953333D01*
X146533333Y-96762857D01*
X146580952Y-96667619D01*
X146628571Y-96620000D01*
X146723809Y-96572380D01*
X147485714Y-96905714D02*
X147485714Y-97572380D01*
X147485714Y-97000952D02*
X147533333Y-96953333D01*
X147628571Y-96905714D01*
X147771428Y-96905714D01*
X147866666Y-96953333D01*
X147914285Y-97048571D01*
X147914285Y-97572380D01*
X148723809Y-97048571D02*
X148390476Y-97048571D01*
X148390476Y-97572380D02*
X148390476Y-96572380D01*
X148866666Y-96572380D01*
D12*
X146616666Y-98978571D02*
X146592857Y-99002380D01*
X146521428Y-99026190D01*
X146473809Y-99026190D01*
X146402380Y-99002380D01*
X146354761Y-98954761D01*
X146330952Y-98907142D01*
X146307142Y-98811904D01*
X146307142Y-98740476D01*
X146330952Y-98645238D01*
X146354761Y-98597619D01*
X146402380Y-98550000D01*
X146473809Y-98526190D01*
X146521428Y-98526190D01*
X146592857Y-98550000D01*
X146616666Y-98573809D01*
X147092857Y-99026190D02*
X146807142Y-99026190D01*
X146950000Y-99026190D02*
X146950000Y-98526190D01*
X146902380Y-98597619D01*
X146854761Y-98645238D01*
X146807142Y-98669047D01*
%TO.C,R11*%
D11*
X185771428Y-125835714D02*
X185771428Y-126502380D01*
X185533333Y-125454761D02*
X185295238Y-126169047D01*
X185914285Y-126169047D01*
X186295238Y-126407142D02*
X186342857Y-126454761D01*
X186295238Y-126502380D01*
X186247619Y-126454761D01*
X186295238Y-126407142D01*
X186295238Y-126502380D01*
X186676190Y-125502380D02*
X187342857Y-125502380D01*
X186914285Y-126502380D01*
X187723809Y-126502380D02*
X187723809Y-125502380D01*
X187819047Y-126121428D02*
X188104761Y-126502380D01*
X188104761Y-125835714D02*
X187723809Y-126216666D01*
D12*
X186378571Y-124626190D02*
X186211904Y-124388095D01*
X186092857Y-124626190D02*
X186092857Y-124126190D01*
X186283333Y-124126190D01*
X186330952Y-124150000D01*
X186354761Y-124173809D01*
X186378571Y-124221428D01*
X186378571Y-124292857D01*
X186354761Y-124340476D01*
X186330952Y-124364285D01*
X186283333Y-124388095D01*
X186092857Y-124388095D01*
X186854761Y-124626190D02*
X186569047Y-124626190D01*
X186711904Y-124626190D02*
X186711904Y-124126190D01*
X186664285Y-124197619D01*
X186616666Y-124245238D01*
X186569047Y-124269047D01*
X187330952Y-124626190D02*
X187045238Y-124626190D01*
X187188095Y-124626190D02*
X187188095Y-124126190D01*
X187140476Y-124197619D01*
X187092857Y-124245238D01*
X187045238Y-124269047D01*
%TO.C,R10*%
D11*
X135397619Y-107766666D02*
X135350000Y-107719047D01*
X135302380Y-107623809D01*
X135302380Y-107385714D01*
X135350000Y-107290476D01*
X135397619Y-107242857D01*
X135492857Y-107195238D01*
X135588095Y-107195238D01*
X135730952Y-107242857D01*
X136302380Y-107814285D01*
X136302380Y-107195238D01*
X135302380Y-106576190D02*
X135302380Y-106480952D01*
X135350000Y-106385714D01*
X135397619Y-106338095D01*
X135492857Y-106290476D01*
X135683333Y-106242857D01*
X135921428Y-106242857D01*
X136111904Y-106290476D01*
X136207142Y-106338095D01*
X136254761Y-106385714D01*
X136302380Y-106480952D01*
X136302380Y-106576190D01*
X136254761Y-106671428D01*
X136207142Y-106719047D01*
X136111904Y-106766666D01*
X135921428Y-106814285D01*
X135683333Y-106814285D01*
X135492857Y-106766666D01*
X135397619Y-106719047D01*
X135350000Y-106671428D01*
X135302380Y-106576190D01*
X136302380Y-105814285D02*
X135302380Y-105814285D01*
X135921428Y-105719047D02*
X136302380Y-105433333D01*
X135635714Y-105433333D02*
X136016666Y-105814285D01*
D12*
X137726190Y-106921428D02*
X137488095Y-107088095D01*
X137726190Y-107207142D02*
X137226190Y-107207142D01*
X137226190Y-107016666D01*
X137250000Y-106969047D01*
X137273809Y-106945238D01*
X137321428Y-106921428D01*
X137392857Y-106921428D01*
X137440476Y-106945238D01*
X137464285Y-106969047D01*
X137488095Y-107016666D01*
X137488095Y-107207142D01*
X137726190Y-106445238D02*
X137726190Y-106730952D01*
X137726190Y-106588095D02*
X137226190Y-106588095D01*
X137297619Y-106635714D01*
X137345238Y-106683333D01*
X137369047Y-106730952D01*
X137226190Y-106135714D02*
X137226190Y-106088095D01*
X137250000Y-106040476D01*
X137273809Y-106016666D01*
X137321428Y-105992857D01*
X137416666Y-105969047D01*
X137535714Y-105969047D01*
X137630952Y-105992857D01*
X137678571Y-106016666D01*
X137702380Y-106040476D01*
X137726190Y-106088095D01*
X137726190Y-106135714D01*
X137702380Y-106183333D01*
X137678571Y-106207142D01*
X137630952Y-106230952D01*
X137535714Y-106254761D01*
X137416666Y-106254761D01*
X137321428Y-106230952D01*
X137273809Y-106207142D01*
X137250000Y-106183333D01*
X137226190Y-106135714D01*
%TO.C,R8*%
D11*
X141233333Y-99997619D02*
X141280952Y-99950000D01*
X141376190Y-99902380D01*
X141614285Y-99902380D01*
X141709523Y-99950000D01*
X141757142Y-99997619D01*
X141804761Y-100092857D01*
X141804761Y-100188095D01*
X141757142Y-100330952D01*
X141185714Y-100902380D01*
X141804761Y-100902380D01*
X142423809Y-99902380D02*
X142519047Y-99902380D01*
X142614285Y-99950000D01*
X142661904Y-99997619D01*
X142709523Y-100092857D01*
X142757142Y-100283333D01*
X142757142Y-100521428D01*
X142709523Y-100711904D01*
X142661904Y-100807142D01*
X142614285Y-100854761D01*
X142519047Y-100902380D01*
X142423809Y-100902380D01*
X142328571Y-100854761D01*
X142280952Y-100807142D01*
X142233333Y-100711904D01*
X142185714Y-100521428D01*
X142185714Y-100283333D01*
X142233333Y-100092857D01*
X142280952Y-99997619D01*
X142328571Y-99950000D01*
X142423809Y-99902380D01*
X143185714Y-100902380D02*
X143185714Y-99902380D01*
X143280952Y-100521428D02*
X143566666Y-100902380D01*
X143566666Y-100235714D02*
X143185714Y-100616666D01*
D12*
X142316666Y-99026190D02*
X142150000Y-98788095D01*
X142030952Y-99026190D02*
X142030952Y-98526190D01*
X142221428Y-98526190D01*
X142269047Y-98550000D01*
X142292857Y-98573809D01*
X142316666Y-98621428D01*
X142316666Y-98692857D01*
X142292857Y-98740476D01*
X142269047Y-98764285D01*
X142221428Y-98788095D01*
X142030952Y-98788095D01*
X142602380Y-98740476D02*
X142554761Y-98716666D01*
X142530952Y-98692857D01*
X142507142Y-98645238D01*
X142507142Y-98621428D01*
X142530952Y-98573809D01*
X142554761Y-98550000D01*
X142602380Y-98526190D01*
X142697619Y-98526190D01*
X142745238Y-98550000D01*
X142769047Y-98573809D01*
X142792857Y-98621428D01*
X142792857Y-98645238D01*
X142769047Y-98692857D01*
X142745238Y-98716666D01*
X142697619Y-98740476D01*
X142602380Y-98740476D01*
X142554761Y-98764285D01*
X142530952Y-98788095D01*
X142507142Y-98835714D01*
X142507142Y-98930952D01*
X142530952Y-98978571D01*
X142554761Y-99002380D01*
X142602380Y-99026190D01*
X142697619Y-99026190D01*
X142745238Y-99002380D01*
X142769047Y-98978571D01*
X142792857Y-98930952D01*
X142792857Y-98835714D01*
X142769047Y-98788095D01*
X142745238Y-98764285D01*
X142697619Y-98740476D01*
%TO.C,R7*%
D11*
X160204761Y-87302380D02*
X159633333Y-87302380D01*
X159919047Y-87302380D02*
X159919047Y-86302380D01*
X159823809Y-86445238D01*
X159728571Y-86540476D01*
X159633333Y-86588095D01*
X160823809Y-86302380D02*
X160919047Y-86302380D01*
X161014285Y-86350000D01*
X161061904Y-86397619D01*
X161109523Y-86492857D01*
X161157142Y-86683333D01*
X161157142Y-86921428D01*
X161109523Y-87111904D01*
X161061904Y-87207142D01*
X161014285Y-87254761D01*
X160919047Y-87302380D01*
X160823809Y-87302380D01*
X160728571Y-87254761D01*
X160680952Y-87207142D01*
X160633333Y-87111904D01*
X160585714Y-86921428D01*
X160585714Y-86683333D01*
X160633333Y-86492857D01*
X160680952Y-86397619D01*
X160728571Y-86350000D01*
X160823809Y-86302380D01*
X161585714Y-87302380D02*
X161585714Y-86302380D01*
X161680952Y-86921428D02*
X161966666Y-87302380D01*
X161966666Y-86635714D02*
X161585714Y-87016666D01*
D12*
X160716666Y-88726190D02*
X160550000Y-88488095D01*
X160430952Y-88726190D02*
X160430952Y-88226190D01*
X160621428Y-88226190D01*
X160669047Y-88250000D01*
X160692857Y-88273809D01*
X160716666Y-88321428D01*
X160716666Y-88392857D01*
X160692857Y-88440476D01*
X160669047Y-88464285D01*
X160621428Y-88488095D01*
X160430952Y-88488095D01*
X160883333Y-88226190D02*
X161216666Y-88226190D01*
X161002380Y-88726190D01*
%TO.C,R6*%
D11*
X181471428Y-122535714D02*
X181471428Y-123202380D01*
X181233333Y-122154761D02*
X180995238Y-122869047D01*
X181614285Y-122869047D01*
X181995238Y-123107142D02*
X182042857Y-123154761D01*
X181995238Y-123202380D01*
X181947619Y-123154761D01*
X181995238Y-123107142D01*
X181995238Y-123202380D01*
X182376190Y-122202380D02*
X183042857Y-122202380D01*
X182614285Y-123202380D01*
X183423809Y-123202380D02*
X183423809Y-122202380D01*
X183519047Y-122821428D02*
X183804761Y-123202380D01*
X183804761Y-122535714D02*
X183423809Y-122916666D01*
D12*
X182316666Y-124626190D02*
X182150000Y-124388095D01*
X182030952Y-124626190D02*
X182030952Y-124126190D01*
X182221428Y-124126190D01*
X182269047Y-124150000D01*
X182292857Y-124173809D01*
X182316666Y-124221428D01*
X182316666Y-124292857D01*
X182292857Y-124340476D01*
X182269047Y-124364285D01*
X182221428Y-124388095D01*
X182030952Y-124388095D01*
X182745238Y-124126190D02*
X182650000Y-124126190D01*
X182602380Y-124150000D01*
X182578571Y-124173809D01*
X182530952Y-124245238D01*
X182507142Y-124340476D01*
X182507142Y-124530952D01*
X182530952Y-124578571D01*
X182554761Y-124602380D01*
X182602380Y-124626190D01*
X182697619Y-124626190D01*
X182745238Y-124602380D01*
X182769047Y-124578571D01*
X182792857Y-124530952D01*
X182792857Y-124411904D01*
X182769047Y-124364285D01*
X182745238Y-124340476D01*
X182697619Y-124316666D01*
X182602380Y-124316666D01*
X182554761Y-124340476D01*
X182530952Y-124364285D01*
X182507142Y-124411904D01*
%TO.C,R2*%
D11*
X157302380Y-64047619D02*
X157302380Y-63952380D01*
X157350000Y-63857142D01*
X157397619Y-63809523D01*
X157492857Y-63761904D01*
X157683333Y-63714285D01*
X157921428Y-63714285D01*
X158111904Y-63761904D01*
X158207142Y-63809523D01*
X158254761Y-63857142D01*
X158302380Y-63952380D01*
X158302380Y-64047619D01*
X158254761Y-64142857D01*
X158207142Y-64190476D01*
X158111904Y-64238095D01*
X157921428Y-64285714D01*
X157683333Y-64285714D01*
X157492857Y-64238095D01*
X157397619Y-64190476D01*
X157350000Y-64142857D01*
X157302380Y-64047619D01*
D12*
X156426190Y-64083333D02*
X156188095Y-64250000D01*
X156426190Y-64369047D02*
X155926190Y-64369047D01*
X155926190Y-64178571D01*
X155950000Y-64130952D01*
X155973809Y-64107142D01*
X156021428Y-64083333D01*
X156092857Y-64083333D01*
X156140476Y-64107142D01*
X156164285Y-64130952D01*
X156188095Y-64178571D01*
X156188095Y-64369047D01*
X155973809Y-63892857D02*
X155950000Y-63869047D01*
X155926190Y-63821428D01*
X155926190Y-63702380D01*
X155950000Y-63654761D01*
X155973809Y-63630952D01*
X156021428Y-63607142D01*
X156069047Y-63607142D01*
X156140476Y-63630952D01*
X156426190Y-63916666D01*
X156426190Y-63607142D01*
%TO.C,R1*%
D11*
X159633333Y-83897619D02*
X159680952Y-83850000D01*
X159776190Y-83802380D01*
X160014285Y-83802380D01*
X160109523Y-83850000D01*
X160157142Y-83897619D01*
X160204761Y-83992857D01*
X160204761Y-84088095D01*
X160157142Y-84230952D01*
X159585714Y-84802380D01*
X160204761Y-84802380D01*
X160823809Y-83802380D02*
X160919047Y-83802380D01*
X161014285Y-83850000D01*
X161061904Y-83897619D01*
X161109523Y-83992857D01*
X161157142Y-84183333D01*
X161157142Y-84421428D01*
X161109523Y-84611904D01*
X161061904Y-84707142D01*
X161014285Y-84754761D01*
X160919047Y-84802380D01*
X160823809Y-84802380D01*
X160728571Y-84754761D01*
X160680952Y-84707142D01*
X160633333Y-84611904D01*
X160585714Y-84421428D01*
X160585714Y-84183333D01*
X160633333Y-83992857D01*
X160680952Y-83897619D01*
X160728571Y-83850000D01*
X160823809Y-83802380D01*
X161585714Y-84802380D02*
X161585714Y-83802380D01*
X161680952Y-84421428D02*
X161966666Y-84802380D01*
X161966666Y-84135714D02*
X161585714Y-84516666D01*
D12*
X160716666Y-86226190D02*
X160550000Y-85988095D01*
X160430952Y-86226190D02*
X160430952Y-85726190D01*
X160621428Y-85726190D01*
X160669047Y-85750000D01*
X160692857Y-85773809D01*
X160716666Y-85821428D01*
X160716666Y-85892857D01*
X160692857Y-85940476D01*
X160669047Y-85964285D01*
X160621428Y-85988095D01*
X160430952Y-85988095D01*
X161192857Y-86226190D02*
X160907142Y-86226190D01*
X161050000Y-86226190D02*
X161050000Y-85726190D01*
X161002380Y-85797619D01*
X160954761Y-85845238D01*
X160907142Y-85869047D01*
%TO.C,J4*%
D11*
X150652380Y-64183333D02*
X151366666Y-64183333D01*
X151509523Y-64230952D01*
X151604761Y-64326190D01*
X151652380Y-64469047D01*
X151652380Y-64564285D01*
X150985714Y-63278571D02*
X151652380Y-63278571D01*
X150604761Y-63516666D02*
X151319047Y-63754761D01*
X151319047Y-63135714D01*
%TO.C,J3*%
X141116666Y-116452380D02*
X141116666Y-117166666D01*
X141069047Y-117309523D01*
X140973809Y-117404761D01*
X140830952Y-117452380D01*
X140735714Y-117452380D01*
X141497619Y-116452380D02*
X142116666Y-116452380D01*
X141783333Y-116833333D01*
X141926190Y-116833333D01*
X142021428Y-116880952D01*
X142069047Y-116928571D01*
X142116666Y-117023809D01*
X142116666Y-117261904D01*
X142069047Y-117357142D01*
X142021428Y-117404761D01*
X141926190Y-117452380D01*
X141640476Y-117452380D01*
X141545238Y-117404761D01*
X141497619Y-117357142D01*
%TO.C,J2*%
X148316666Y-138152380D02*
X148316666Y-138866666D01*
X148269047Y-139009523D01*
X148173809Y-139104761D01*
X148030952Y-139152380D01*
X147935714Y-139152380D01*
X148745238Y-138247619D02*
X148792857Y-138200000D01*
X148888095Y-138152380D01*
X149126190Y-138152380D01*
X149221428Y-138200000D01*
X149269047Y-138247619D01*
X149316666Y-138342857D01*
X149316666Y-138438095D01*
X149269047Y-138580952D01*
X148697619Y-139152380D01*
X149316666Y-139152380D01*
%TO.C,H8*%
X188214285Y-135802380D02*
X188214285Y-134802380D01*
X188547619Y-135516666D01*
X188880952Y-134802380D01*
X188880952Y-135802380D01*
X189500000Y-135802380D02*
X189404761Y-135754761D01*
X189357142Y-135707142D01*
X189309523Y-135611904D01*
X189309523Y-135326190D01*
X189357142Y-135230952D01*
X189404761Y-135183333D01*
X189500000Y-135135714D01*
X189642857Y-135135714D01*
X189738095Y-135183333D01*
X189785714Y-135230952D01*
X189833333Y-135326190D01*
X189833333Y-135611904D01*
X189785714Y-135707142D01*
X189738095Y-135754761D01*
X189642857Y-135802380D01*
X189500000Y-135802380D01*
X190690476Y-135135714D02*
X190690476Y-135802380D01*
X190261904Y-135135714D02*
X190261904Y-135659523D01*
X190309523Y-135754761D01*
X190404761Y-135802380D01*
X190547619Y-135802380D01*
X190642857Y-135754761D01*
X190690476Y-135707142D01*
X191166666Y-135135714D02*
X191166666Y-135802380D01*
X191166666Y-135230952D02*
X191214285Y-135183333D01*
X191309523Y-135135714D01*
X191452380Y-135135714D01*
X191547619Y-135183333D01*
X191595238Y-135278571D01*
X191595238Y-135802380D01*
X191928571Y-135135714D02*
X192309523Y-135135714D01*
X192071428Y-134802380D02*
X192071428Y-135659523D01*
X192119047Y-135754761D01*
X192214285Y-135802380D01*
X192309523Y-135802380D01*
X192642857Y-135802380D02*
X192642857Y-135135714D01*
X192642857Y-134802380D02*
X192595238Y-134850000D01*
X192642857Y-134897619D01*
X192690476Y-134850000D01*
X192642857Y-134802380D01*
X192642857Y-134897619D01*
X193119047Y-135135714D02*
X193119047Y-135802380D01*
X193119047Y-135230952D02*
X193166666Y-135183333D01*
X193261904Y-135135714D01*
X193404761Y-135135714D01*
X193500000Y-135183333D01*
X193547619Y-135278571D01*
X193547619Y-135802380D01*
X194452380Y-135135714D02*
X194452380Y-135945238D01*
X194404761Y-136040476D01*
X194357142Y-136088095D01*
X194261904Y-136135714D01*
X194119047Y-136135714D01*
X194023809Y-136088095D01*
X194452380Y-135754761D02*
X194357142Y-135802380D01*
X194166666Y-135802380D01*
X194071428Y-135754761D01*
X194023809Y-135707142D01*
X193976190Y-135611904D01*
X193976190Y-135326190D01*
X194023809Y-135230952D01*
X194071428Y-135183333D01*
X194166666Y-135135714D01*
X194357142Y-135135714D01*
X194452380Y-135183333D01*
X194928571Y-135802380D02*
X194928571Y-134802380D01*
X194928571Y-135278571D02*
X195500000Y-135278571D01*
X195500000Y-135802380D02*
X195500000Y-134802380D01*
X196119047Y-135802380D02*
X196023809Y-135754761D01*
X195976190Y-135707142D01*
X195928571Y-135611904D01*
X195928571Y-135326190D01*
X195976190Y-135230952D01*
X196023809Y-135183333D01*
X196119047Y-135135714D01*
X196261904Y-135135714D01*
X196357142Y-135183333D01*
X196404761Y-135230952D01*
X196452380Y-135326190D01*
X196452380Y-135611904D01*
X196404761Y-135707142D01*
X196357142Y-135754761D01*
X196261904Y-135802380D01*
X196119047Y-135802380D01*
X197023809Y-135802380D02*
X196928571Y-135754761D01*
X196880952Y-135659523D01*
X196880952Y-134802380D01*
X197785714Y-135754761D02*
X197690476Y-135802380D01*
X197500000Y-135802380D01*
X197404761Y-135754761D01*
X197357142Y-135659523D01*
X197357142Y-135278571D01*
X197404761Y-135183333D01*
X197500000Y-135135714D01*
X197690476Y-135135714D01*
X197785714Y-135183333D01*
X197833333Y-135278571D01*
X197833333Y-135373809D01*
X197357142Y-135469047D01*
X192538095Y-132452380D02*
X192538095Y-131452380D01*
X192538095Y-131928571D02*
X193109523Y-131928571D01*
X193109523Y-132452380D02*
X193109523Y-131452380D01*
X193728571Y-131880952D02*
X193633333Y-131833333D01*
X193585714Y-131785714D01*
X193538095Y-131690476D01*
X193538095Y-131642857D01*
X193585714Y-131547619D01*
X193633333Y-131500000D01*
X193728571Y-131452380D01*
X193919047Y-131452380D01*
X194014285Y-131500000D01*
X194061904Y-131547619D01*
X194109523Y-131642857D01*
X194109523Y-131690476D01*
X194061904Y-131785714D01*
X194014285Y-131833333D01*
X193919047Y-131880952D01*
X193728571Y-131880952D01*
X193633333Y-131928571D01*
X193585714Y-131976190D01*
X193538095Y-132071428D01*
X193538095Y-132261904D01*
X193585714Y-132357142D01*
X193633333Y-132404761D01*
X193728571Y-132452380D01*
X193919047Y-132452380D01*
X194014285Y-132404761D01*
X194061904Y-132357142D01*
X194109523Y-132261904D01*
X194109523Y-132071428D01*
X194061904Y-131976190D01*
X194014285Y-131928571D01*
X193919047Y-131880952D01*
%TO.C,H7*%
X188214285Y-97802380D02*
X188214285Y-96802380D01*
X188547619Y-97516666D01*
X188880952Y-96802380D01*
X188880952Y-97802380D01*
X189500000Y-97802380D02*
X189404761Y-97754761D01*
X189357142Y-97707142D01*
X189309523Y-97611904D01*
X189309523Y-97326190D01*
X189357142Y-97230952D01*
X189404761Y-97183333D01*
X189500000Y-97135714D01*
X189642857Y-97135714D01*
X189738095Y-97183333D01*
X189785714Y-97230952D01*
X189833333Y-97326190D01*
X189833333Y-97611904D01*
X189785714Y-97707142D01*
X189738095Y-97754761D01*
X189642857Y-97802380D01*
X189500000Y-97802380D01*
X190690476Y-97135714D02*
X190690476Y-97802380D01*
X190261904Y-97135714D02*
X190261904Y-97659523D01*
X190309523Y-97754761D01*
X190404761Y-97802380D01*
X190547619Y-97802380D01*
X190642857Y-97754761D01*
X190690476Y-97707142D01*
X191166666Y-97135714D02*
X191166666Y-97802380D01*
X191166666Y-97230952D02*
X191214285Y-97183333D01*
X191309523Y-97135714D01*
X191452380Y-97135714D01*
X191547619Y-97183333D01*
X191595238Y-97278571D01*
X191595238Y-97802380D01*
X191928571Y-97135714D02*
X192309523Y-97135714D01*
X192071428Y-96802380D02*
X192071428Y-97659523D01*
X192119047Y-97754761D01*
X192214285Y-97802380D01*
X192309523Y-97802380D01*
X192642857Y-97802380D02*
X192642857Y-97135714D01*
X192642857Y-96802380D02*
X192595238Y-96850000D01*
X192642857Y-96897619D01*
X192690476Y-96850000D01*
X192642857Y-96802380D01*
X192642857Y-96897619D01*
X193119047Y-97135714D02*
X193119047Y-97802380D01*
X193119047Y-97230952D02*
X193166666Y-97183333D01*
X193261904Y-97135714D01*
X193404761Y-97135714D01*
X193500000Y-97183333D01*
X193547619Y-97278571D01*
X193547619Y-97802380D01*
X194452380Y-97135714D02*
X194452380Y-97945238D01*
X194404761Y-98040476D01*
X194357142Y-98088095D01*
X194261904Y-98135714D01*
X194119047Y-98135714D01*
X194023809Y-98088095D01*
X194452380Y-97754761D02*
X194357142Y-97802380D01*
X194166666Y-97802380D01*
X194071428Y-97754761D01*
X194023809Y-97707142D01*
X193976190Y-97611904D01*
X193976190Y-97326190D01*
X194023809Y-97230952D01*
X194071428Y-97183333D01*
X194166666Y-97135714D01*
X194357142Y-97135714D01*
X194452380Y-97183333D01*
X194928571Y-97802380D02*
X194928571Y-96802380D01*
X194928571Y-97278571D02*
X195500000Y-97278571D01*
X195500000Y-97802380D02*
X195500000Y-96802380D01*
X196119047Y-97802380D02*
X196023809Y-97754761D01*
X195976190Y-97707142D01*
X195928571Y-97611904D01*
X195928571Y-97326190D01*
X195976190Y-97230952D01*
X196023809Y-97183333D01*
X196119047Y-97135714D01*
X196261904Y-97135714D01*
X196357142Y-97183333D01*
X196404761Y-97230952D01*
X196452380Y-97326190D01*
X196452380Y-97611904D01*
X196404761Y-97707142D01*
X196357142Y-97754761D01*
X196261904Y-97802380D01*
X196119047Y-97802380D01*
X197023809Y-97802380D02*
X196928571Y-97754761D01*
X196880952Y-97659523D01*
X196880952Y-96802380D01*
X197785714Y-97754761D02*
X197690476Y-97802380D01*
X197500000Y-97802380D01*
X197404761Y-97754761D01*
X197357142Y-97659523D01*
X197357142Y-97278571D01*
X197404761Y-97183333D01*
X197500000Y-97135714D01*
X197690476Y-97135714D01*
X197785714Y-97183333D01*
X197833333Y-97278571D01*
X197833333Y-97373809D01*
X197357142Y-97469047D01*
X192538095Y-94452380D02*
X192538095Y-93452380D01*
X192538095Y-93928571D02*
X193109523Y-93928571D01*
X193109523Y-94452380D02*
X193109523Y-93452380D01*
X193490476Y-93452380D02*
X194157142Y-93452380D01*
X193728571Y-94452380D01*
%TO.C,H6*%
X132214285Y-135802380D02*
X132214285Y-134802380D01*
X132547619Y-135516666D01*
X132880952Y-134802380D01*
X132880952Y-135802380D01*
X133500000Y-135802380D02*
X133404761Y-135754761D01*
X133357142Y-135707142D01*
X133309523Y-135611904D01*
X133309523Y-135326190D01*
X133357142Y-135230952D01*
X133404761Y-135183333D01*
X133500000Y-135135714D01*
X133642857Y-135135714D01*
X133738095Y-135183333D01*
X133785714Y-135230952D01*
X133833333Y-135326190D01*
X133833333Y-135611904D01*
X133785714Y-135707142D01*
X133738095Y-135754761D01*
X133642857Y-135802380D01*
X133500000Y-135802380D01*
X134690476Y-135135714D02*
X134690476Y-135802380D01*
X134261904Y-135135714D02*
X134261904Y-135659523D01*
X134309523Y-135754761D01*
X134404761Y-135802380D01*
X134547619Y-135802380D01*
X134642857Y-135754761D01*
X134690476Y-135707142D01*
X135166666Y-135135714D02*
X135166666Y-135802380D01*
X135166666Y-135230952D02*
X135214285Y-135183333D01*
X135309523Y-135135714D01*
X135452380Y-135135714D01*
X135547619Y-135183333D01*
X135595238Y-135278571D01*
X135595238Y-135802380D01*
X135928571Y-135135714D02*
X136309523Y-135135714D01*
X136071428Y-134802380D02*
X136071428Y-135659523D01*
X136119047Y-135754761D01*
X136214285Y-135802380D01*
X136309523Y-135802380D01*
X136642857Y-135802380D02*
X136642857Y-135135714D01*
X136642857Y-134802380D02*
X136595238Y-134850000D01*
X136642857Y-134897619D01*
X136690476Y-134850000D01*
X136642857Y-134802380D01*
X136642857Y-134897619D01*
X137119047Y-135135714D02*
X137119047Y-135802380D01*
X137119047Y-135230952D02*
X137166666Y-135183333D01*
X137261904Y-135135714D01*
X137404761Y-135135714D01*
X137500000Y-135183333D01*
X137547619Y-135278571D01*
X137547619Y-135802380D01*
X138452380Y-135135714D02*
X138452380Y-135945238D01*
X138404761Y-136040476D01*
X138357142Y-136088095D01*
X138261904Y-136135714D01*
X138119047Y-136135714D01*
X138023809Y-136088095D01*
X138452380Y-135754761D02*
X138357142Y-135802380D01*
X138166666Y-135802380D01*
X138071428Y-135754761D01*
X138023809Y-135707142D01*
X137976190Y-135611904D01*
X137976190Y-135326190D01*
X138023809Y-135230952D01*
X138071428Y-135183333D01*
X138166666Y-135135714D01*
X138357142Y-135135714D01*
X138452380Y-135183333D01*
X138928571Y-135802380D02*
X138928571Y-134802380D01*
X138928571Y-135278571D02*
X139500000Y-135278571D01*
X139500000Y-135802380D02*
X139500000Y-134802380D01*
X140119047Y-135802380D02*
X140023809Y-135754761D01*
X139976190Y-135707142D01*
X139928571Y-135611904D01*
X139928571Y-135326190D01*
X139976190Y-135230952D01*
X140023809Y-135183333D01*
X140119047Y-135135714D01*
X140261904Y-135135714D01*
X140357142Y-135183333D01*
X140404761Y-135230952D01*
X140452380Y-135326190D01*
X140452380Y-135611904D01*
X140404761Y-135707142D01*
X140357142Y-135754761D01*
X140261904Y-135802380D01*
X140119047Y-135802380D01*
X141023809Y-135802380D02*
X140928571Y-135754761D01*
X140880952Y-135659523D01*
X140880952Y-134802380D01*
X141785714Y-135754761D02*
X141690476Y-135802380D01*
X141500000Y-135802380D01*
X141404761Y-135754761D01*
X141357142Y-135659523D01*
X141357142Y-135278571D01*
X141404761Y-135183333D01*
X141500000Y-135135714D01*
X141690476Y-135135714D01*
X141785714Y-135183333D01*
X141833333Y-135278571D01*
X141833333Y-135373809D01*
X141357142Y-135469047D01*
X136538095Y-132452380D02*
X136538095Y-131452380D01*
X136538095Y-131928571D02*
X137109523Y-131928571D01*
X137109523Y-132452380D02*
X137109523Y-131452380D01*
X138014285Y-131452380D02*
X137823809Y-131452380D01*
X137728571Y-131500000D01*
X137680952Y-131547619D01*
X137585714Y-131690476D01*
X137538095Y-131880952D01*
X137538095Y-132261904D01*
X137585714Y-132357142D01*
X137633333Y-132404761D01*
X137728571Y-132452380D01*
X137919047Y-132452380D01*
X138014285Y-132404761D01*
X138061904Y-132357142D01*
X138109523Y-132261904D01*
X138109523Y-132023809D01*
X138061904Y-131928571D01*
X138014285Y-131880952D01*
X137919047Y-131833333D01*
X137728571Y-131833333D01*
X137633333Y-131880952D01*
X137585714Y-131928571D01*
X137538095Y-132023809D01*
%TO.C,H5*%
X132214285Y-97802380D02*
X132214285Y-96802380D01*
X132547619Y-97516666D01*
X132880952Y-96802380D01*
X132880952Y-97802380D01*
X133500000Y-97802380D02*
X133404761Y-97754761D01*
X133357142Y-97707142D01*
X133309523Y-97611904D01*
X133309523Y-97326190D01*
X133357142Y-97230952D01*
X133404761Y-97183333D01*
X133500000Y-97135714D01*
X133642857Y-97135714D01*
X133738095Y-97183333D01*
X133785714Y-97230952D01*
X133833333Y-97326190D01*
X133833333Y-97611904D01*
X133785714Y-97707142D01*
X133738095Y-97754761D01*
X133642857Y-97802380D01*
X133500000Y-97802380D01*
X134690476Y-97135714D02*
X134690476Y-97802380D01*
X134261904Y-97135714D02*
X134261904Y-97659523D01*
X134309523Y-97754761D01*
X134404761Y-97802380D01*
X134547619Y-97802380D01*
X134642857Y-97754761D01*
X134690476Y-97707142D01*
X135166666Y-97135714D02*
X135166666Y-97802380D01*
X135166666Y-97230952D02*
X135214285Y-97183333D01*
X135309523Y-97135714D01*
X135452380Y-97135714D01*
X135547619Y-97183333D01*
X135595238Y-97278571D01*
X135595238Y-97802380D01*
X135928571Y-97135714D02*
X136309523Y-97135714D01*
X136071428Y-96802380D02*
X136071428Y-97659523D01*
X136119047Y-97754761D01*
X136214285Y-97802380D01*
X136309523Y-97802380D01*
X136642857Y-97802380D02*
X136642857Y-97135714D01*
X136642857Y-96802380D02*
X136595238Y-96850000D01*
X136642857Y-96897619D01*
X136690476Y-96850000D01*
X136642857Y-96802380D01*
X136642857Y-96897619D01*
X137119047Y-97135714D02*
X137119047Y-97802380D01*
X137119047Y-97230952D02*
X137166666Y-97183333D01*
X137261904Y-97135714D01*
X137404761Y-97135714D01*
X137500000Y-97183333D01*
X137547619Y-97278571D01*
X137547619Y-97802380D01*
X138452380Y-97135714D02*
X138452380Y-97945238D01*
X138404761Y-98040476D01*
X138357142Y-98088095D01*
X138261904Y-98135714D01*
X138119047Y-98135714D01*
X138023809Y-98088095D01*
X138452380Y-97754761D02*
X138357142Y-97802380D01*
X138166666Y-97802380D01*
X138071428Y-97754761D01*
X138023809Y-97707142D01*
X137976190Y-97611904D01*
X137976190Y-97326190D01*
X138023809Y-97230952D01*
X138071428Y-97183333D01*
X138166666Y-97135714D01*
X138357142Y-97135714D01*
X138452380Y-97183333D01*
X138928571Y-97802380D02*
X138928571Y-96802380D01*
X138928571Y-97278571D02*
X139500000Y-97278571D01*
X139500000Y-97802380D02*
X139500000Y-96802380D01*
X140119047Y-97802380D02*
X140023809Y-97754761D01*
X139976190Y-97707142D01*
X139928571Y-97611904D01*
X139928571Y-97326190D01*
X139976190Y-97230952D01*
X140023809Y-97183333D01*
X140119047Y-97135714D01*
X140261904Y-97135714D01*
X140357142Y-97183333D01*
X140404761Y-97230952D01*
X140452380Y-97326190D01*
X140452380Y-97611904D01*
X140404761Y-97707142D01*
X140357142Y-97754761D01*
X140261904Y-97802380D01*
X140119047Y-97802380D01*
X141023809Y-97802380D02*
X140928571Y-97754761D01*
X140880952Y-97659523D01*
X140880952Y-96802380D01*
X141785714Y-97754761D02*
X141690476Y-97802380D01*
X141500000Y-97802380D01*
X141404761Y-97754761D01*
X141357142Y-97659523D01*
X141357142Y-97278571D01*
X141404761Y-97183333D01*
X141500000Y-97135714D01*
X141690476Y-97135714D01*
X141785714Y-97183333D01*
X141833333Y-97278571D01*
X141833333Y-97373809D01*
X141357142Y-97469047D01*
X136538095Y-94452380D02*
X136538095Y-93452380D01*
X136538095Y-93928571D02*
X137109523Y-93928571D01*
X137109523Y-94452380D02*
X137109523Y-93452380D01*
X138061904Y-93452380D02*
X137585714Y-93452380D01*
X137538095Y-93928571D01*
X137585714Y-93880952D01*
X137680952Y-93833333D01*
X137919047Y-93833333D01*
X138014285Y-93880952D01*
X138061904Y-93928571D01*
X138109523Y-94023809D01*
X138109523Y-94261904D01*
X138061904Y-94357142D01*
X138014285Y-94404761D01*
X137919047Y-94452380D01*
X137680952Y-94452380D01*
X137585714Y-94404761D01*
X137538095Y-94357142D01*
%TO.C,J1*%
X164676666Y-71452380D02*
X164676666Y-72166666D01*
X164629047Y-72309523D01*
X164533809Y-72404761D01*
X164390952Y-72452380D01*
X164295714Y-72452380D01*
X165676666Y-72452380D02*
X165105238Y-72452380D01*
X165390952Y-72452380D02*
X165390952Y-71452380D01*
X165295714Y-71595238D01*
X165200476Y-71690476D01*
X165105238Y-71738095D01*
%TO.C,H4*%
X186238095Y-74002380D02*
X186238095Y-73002380D01*
X186238095Y-73478571D02*
X186809523Y-73478571D01*
X186809523Y-74002380D02*
X186809523Y-73002380D01*
X187714285Y-73335714D02*
X187714285Y-74002380D01*
X187476190Y-72954761D02*
X187238095Y-73669047D01*
X187857142Y-73669047D01*
X182214285Y-80702380D02*
X182214285Y-79702380D01*
X182547619Y-80416666D01*
X182880952Y-79702380D01*
X182880952Y-80702380D01*
X183500000Y-80702380D02*
X183404761Y-80654761D01*
X183357142Y-80607142D01*
X183309523Y-80511904D01*
X183309523Y-80226190D01*
X183357142Y-80130952D01*
X183404761Y-80083333D01*
X183500000Y-80035714D01*
X183642857Y-80035714D01*
X183738095Y-80083333D01*
X183785714Y-80130952D01*
X183833333Y-80226190D01*
X183833333Y-80511904D01*
X183785714Y-80607142D01*
X183738095Y-80654761D01*
X183642857Y-80702380D01*
X183500000Y-80702380D01*
X184690476Y-80035714D02*
X184690476Y-80702380D01*
X184261904Y-80035714D02*
X184261904Y-80559523D01*
X184309523Y-80654761D01*
X184404761Y-80702380D01*
X184547619Y-80702380D01*
X184642857Y-80654761D01*
X184690476Y-80607142D01*
X185166666Y-80035714D02*
X185166666Y-80702380D01*
X185166666Y-80130952D02*
X185214285Y-80083333D01*
X185309523Y-80035714D01*
X185452380Y-80035714D01*
X185547619Y-80083333D01*
X185595238Y-80178571D01*
X185595238Y-80702380D01*
X185928571Y-80035714D02*
X186309523Y-80035714D01*
X186071428Y-79702380D02*
X186071428Y-80559523D01*
X186119047Y-80654761D01*
X186214285Y-80702380D01*
X186309523Y-80702380D01*
X186642857Y-80702380D02*
X186642857Y-80035714D01*
X186642857Y-79702380D02*
X186595238Y-79750000D01*
X186642857Y-79797619D01*
X186690476Y-79750000D01*
X186642857Y-79702380D01*
X186642857Y-79797619D01*
X187119047Y-80035714D02*
X187119047Y-80702380D01*
X187119047Y-80130952D02*
X187166666Y-80083333D01*
X187261904Y-80035714D01*
X187404761Y-80035714D01*
X187500000Y-80083333D01*
X187547619Y-80178571D01*
X187547619Y-80702380D01*
X188452380Y-80035714D02*
X188452380Y-80845238D01*
X188404761Y-80940476D01*
X188357142Y-80988095D01*
X188261904Y-81035714D01*
X188119047Y-81035714D01*
X188023809Y-80988095D01*
X188452380Y-80654761D02*
X188357142Y-80702380D01*
X188166666Y-80702380D01*
X188071428Y-80654761D01*
X188023809Y-80607142D01*
X187976190Y-80511904D01*
X187976190Y-80226190D01*
X188023809Y-80130952D01*
X188071428Y-80083333D01*
X188166666Y-80035714D01*
X188357142Y-80035714D01*
X188452380Y-80083333D01*
X188928571Y-80702380D02*
X188928571Y-79702380D01*
X188928571Y-80178571D02*
X189500000Y-80178571D01*
X189500000Y-80702380D02*
X189500000Y-79702380D01*
X190119047Y-80702380D02*
X190023809Y-80654761D01*
X189976190Y-80607142D01*
X189928571Y-80511904D01*
X189928571Y-80226190D01*
X189976190Y-80130952D01*
X190023809Y-80083333D01*
X190119047Y-80035714D01*
X190261904Y-80035714D01*
X190357142Y-80083333D01*
X190404761Y-80130952D01*
X190452380Y-80226190D01*
X190452380Y-80511904D01*
X190404761Y-80607142D01*
X190357142Y-80654761D01*
X190261904Y-80702380D01*
X190119047Y-80702380D01*
X191023809Y-80702380D02*
X190928571Y-80654761D01*
X190880952Y-80559523D01*
X190880952Y-79702380D01*
X191785714Y-80654761D02*
X191690476Y-80702380D01*
X191500000Y-80702380D01*
X191404761Y-80654761D01*
X191357142Y-80559523D01*
X191357142Y-80178571D01*
X191404761Y-80083333D01*
X191500000Y-80035714D01*
X191690476Y-80035714D01*
X191785714Y-80083333D01*
X191833333Y-80178571D01*
X191833333Y-80273809D01*
X191357142Y-80369047D01*
X186538095Y-77352380D02*
X186538095Y-76352380D01*
X186538095Y-76828571D02*
X187109523Y-76828571D01*
X187109523Y-77352380D02*
X187109523Y-76352380D01*
X188014285Y-76685714D02*
X188014285Y-77352380D01*
X187776190Y-76304761D02*
X187538095Y-77019047D01*
X188157142Y-77019047D01*
%TO.C,H3*%
X183038095Y-152152380D02*
X183038095Y-151152380D01*
X183038095Y-151628571D02*
X183609523Y-151628571D01*
X183609523Y-152152380D02*
X183609523Y-151152380D01*
X183990476Y-151152380D02*
X184609523Y-151152380D01*
X184276190Y-151533333D01*
X184419047Y-151533333D01*
X184514285Y-151580952D01*
X184561904Y-151628571D01*
X184609523Y-151723809D01*
X184609523Y-151961904D01*
X184561904Y-152057142D01*
X184514285Y-152104761D01*
X184419047Y-152152380D01*
X184133333Y-152152380D01*
X184038095Y-152104761D01*
X183990476Y-152057142D01*
X182214285Y-156802380D02*
X182214285Y-155802380D01*
X182547619Y-156516666D01*
X182880952Y-155802380D01*
X182880952Y-156802380D01*
X183500000Y-156802380D02*
X183404761Y-156754761D01*
X183357142Y-156707142D01*
X183309523Y-156611904D01*
X183309523Y-156326190D01*
X183357142Y-156230952D01*
X183404761Y-156183333D01*
X183500000Y-156135714D01*
X183642857Y-156135714D01*
X183738095Y-156183333D01*
X183785714Y-156230952D01*
X183833333Y-156326190D01*
X183833333Y-156611904D01*
X183785714Y-156707142D01*
X183738095Y-156754761D01*
X183642857Y-156802380D01*
X183500000Y-156802380D01*
X184690476Y-156135714D02*
X184690476Y-156802380D01*
X184261904Y-156135714D02*
X184261904Y-156659523D01*
X184309523Y-156754761D01*
X184404761Y-156802380D01*
X184547619Y-156802380D01*
X184642857Y-156754761D01*
X184690476Y-156707142D01*
X185166666Y-156135714D02*
X185166666Y-156802380D01*
X185166666Y-156230952D02*
X185214285Y-156183333D01*
X185309523Y-156135714D01*
X185452380Y-156135714D01*
X185547619Y-156183333D01*
X185595238Y-156278571D01*
X185595238Y-156802380D01*
X185928571Y-156135714D02*
X186309523Y-156135714D01*
X186071428Y-155802380D02*
X186071428Y-156659523D01*
X186119047Y-156754761D01*
X186214285Y-156802380D01*
X186309523Y-156802380D01*
X186642857Y-156802380D02*
X186642857Y-156135714D01*
X186642857Y-155802380D02*
X186595238Y-155850000D01*
X186642857Y-155897619D01*
X186690476Y-155850000D01*
X186642857Y-155802380D01*
X186642857Y-155897619D01*
X187119047Y-156135714D02*
X187119047Y-156802380D01*
X187119047Y-156230952D02*
X187166666Y-156183333D01*
X187261904Y-156135714D01*
X187404761Y-156135714D01*
X187500000Y-156183333D01*
X187547619Y-156278571D01*
X187547619Y-156802380D01*
X188452380Y-156135714D02*
X188452380Y-156945238D01*
X188404761Y-157040476D01*
X188357142Y-157088095D01*
X188261904Y-157135714D01*
X188119047Y-157135714D01*
X188023809Y-157088095D01*
X188452380Y-156754761D02*
X188357142Y-156802380D01*
X188166666Y-156802380D01*
X188071428Y-156754761D01*
X188023809Y-156707142D01*
X187976190Y-156611904D01*
X187976190Y-156326190D01*
X188023809Y-156230952D01*
X188071428Y-156183333D01*
X188166666Y-156135714D01*
X188357142Y-156135714D01*
X188452380Y-156183333D01*
X188928571Y-156802380D02*
X188928571Y-155802380D01*
X188928571Y-156278571D02*
X189500000Y-156278571D01*
X189500000Y-156802380D02*
X189500000Y-155802380D01*
X190119047Y-156802380D02*
X190023809Y-156754761D01*
X189976190Y-156707142D01*
X189928571Y-156611904D01*
X189928571Y-156326190D01*
X189976190Y-156230952D01*
X190023809Y-156183333D01*
X190119047Y-156135714D01*
X190261904Y-156135714D01*
X190357142Y-156183333D01*
X190404761Y-156230952D01*
X190452380Y-156326190D01*
X190452380Y-156611904D01*
X190404761Y-156707142D01*
X190357142Y-156754761D01*
X190261904Y-156802380D01*
X190119047Y-156802380D01*
X191023809Y-156802380D02*
X190928571Y-156754761D01*
X190880952Y-156659523D01*
X190880952Y-155802380D01*
X191785714Y-156754761D02*
X191690476Y-156802380D01*
X191500000Y-156802380D01*
X191404761Y-156754761D01*
X191357142Y-156659523D01*
X191357142Y-156278571D01*
X191404761Y-156183333D01*
X191500000Y-156135714D01*
X191690476Y-156135714D01*
X191785714Y-156183333D01*
X191833333Y-156278571D01*
X191833333Y-156373809D01*
X191357142Y-156469047D01*
X186538095Y-153452380D02*
X186538095Y-152452380D01*
X186538095Y-152928571D02*
X187109523Y-152928571D01*
X187109523Y-153452380D02*
X187109523Y-152452380D01*
X187490476Y-152452380D02*
X188109523Y-152452380D01*
X187776190Y-152833333D01*
X187919047Y-152833333D01*
X188014285Y-152880952D01*
X188061904Y-152928571D01*
X188109523Y-153023809D01*
X188109523Y-153261904D01*
X188061904Y-153357142D01*
X188014285Y-153404761D01*
X187919047Y-153452380D01*
X187633333Y-153452380D01*
X187538095Y-153404761D01*
X187490476Y-153357142D01*
%TO.C,H2*%
X142238095Y-74002380D02*
X142238095Y-73002380D01*
X142238095Y-73478571D02*
X142809523Y-73478571D01*
X142809523Y-74002380D02*
X142809523Y-73002380D01*
X143238095Y-73097619D02*
X143285714Y-73050000D01*
X143380952Y-73002380D01*
X143619047Y-73002380D01*
X143714285Y-73050000D01*
X143761904Y-73097619D01*
X143809523Y-73192857D01*
X143809523Y-73288095D01*
X143761904Y-73430952D01*
X143190476Y-74002380D01*
X143809523Y-74002380D01*
X138214285Y-80702380D02*
X138214285Y-79702380D01*
X138547619Y-80416666D01*
X138880952Y-79702380D01*
X138880952Y-80702380D01*
X139500000Y-80702380D02*
X139404761Y-80654761D01*
X139357142Y-80607142D01*
X139309523Y-80511904D01*
X139309523Y-80226190D01*
X139357142Y-80130952D01*
X139404761Y-80083333D01*
X139500000Y-80035714D01*
X139642857Y-80035714D01*
X139738095Y-80083333D01*
X139785714Y-80130952D01*
X139833333Y-80226190D01*
X139833333Y-80511904D01*
X139785714Y-80607142D01*
X139738095Y-80654761D01*
X139642857Y-80702380D01*
X139500000Y-80702380D01*
X140690476Y-80035714D02*
X140690476Y-80702380D01*
X140261904Y-80035714D02*
X140261904Y-80559523D01*
X140309523Y-80654761D01*
X140404761Y-80702380D01*
X140547619Y-80702380D01*
X140642857Y-80654761D01*
X140690476Y-80607142D01*
X141166666Y-80035714D02*
X141166666Y-80702380D01*
X141166666Y-80130952D02*
X141214285Y-80083333D01*
X141309523Y-80035714D01*
X141452380Y-80035714D01*
X141547619Y-80083333D01*
X141595238Y-80178571D01*
X141595238Y-80702380D01*
X141928571Y-80035714D02*
X142309523Y-80035714D01*
X142071428Y-79702380D02*
X142071428Y-80559523D01*
X142119047Y-80654761D01*
X142214285Y-80702380D01*
X142309523Y-80702380D01*
X142642857Y-80702380D02*
X142642857Y-80035714D01*
X142642857Y-79702380D02*
X142595238Y-79750000D01*
X142642857Y-79797619D01*
X142690476Y-79750000D01*
X142642857Y-79702380D01*
X142642857Y-79797619D01*
X143119047Y-80035714D02*
X143119047Y-80702380D01*
X143119047Y-80130952D02*
X143166666Y-80083333D01*
X143261904Y-80035714D01*
X143404761Y-80035714D01*
X143500000Y-80083333D01*
X143547619Y-80178571D01*
X143547619Y-80702380D01*
X144452380Y-80035714D02*
X144452380Y-80845238D01*
X144404761Y-80940476D01*
X144357142Y-80988095D01*
X144261904Y-81035714D01*
X144119047Y-81035714D01*
X144023809Y-80988095D01*
X144452380Y-80654761D02*
X144357142Y-80702380D01*
X144166666Y-80702380D01*
X144071428Y-80654761D01*
X144023809Y-80607142D01*
X143976190Y-80511904D01*
X143976190Y-80226190D01*
X144023809Y-80130952D01*
X144071428Y-80083333D01*
X144166666Y-80035714D01*
X144357142Y-80035714D01*
X144452380Y-80083333D01*
X144928571Y-80702380D02*
X144928571Y-79702380D01*
X144928571Y-80178571D02*
X145500000Y-80178571D01*
X145500000Y-80702380D02*
X145500000Y-79702380D01*
X146119047Y-80702380D02*
X146023809Y-80654761D01*
X145976190Y-80607142D01*
X145928571Y-80511904D01*
X145928571Y-80226190D01*
X145976190Y-80130952D01*
X146023809Y-80083333D01*
X146119047Y-80035714D01*
X146261904Y-80035714D01*
X146357142Y-80083333D01*
X146404761Y-80130952D01*
X146452380Y-80226190D01*
X146452380Y-80511904D01*
X146404761Y-80607142D01*
X146357142Y-80654761D01*
X146261904Y-80702380D01*
X146119047Y-80702380D01*
X147023809Y-80702380D02*
X146928571Y-80654761D01*
X146880952Y-80559523D01*
X146880952Y-79702380D01*
X147785714Y-80654761D02*
X147690476Y-80702380D01*
X147500000Y-80702380D01*
X147404761Y-80654761D01*
X147357142Y-80559523D01*
X147357142Y-80178571D01*
X147404761Y-80083333D01*
X147500000Y-80035714D01*
X147690476Y-80035714D01*
X147785714Y-80083333D01*
X147833333Y-80178571D01*
X147833333Y-80273809D01*
X147357142Y-80369047D01*
X142538095Y-77352380D02*
X142538095Y-76352380D01*
X142538095Y-76828571D02*
X143109523Y-76828571D01*
X143109523Y-77352380D02*
X143109523Y-76352380D01*
X143538095Y-76447619D02*
X143585714Y-76400000D01*
X143680952Y-76352380D01*
X143919047Y-76352380D01*
X144014285Y-76400000D01*
X144061904Y-76447619D01*
X144109523Y-76542857D01*
X144109523Y-76638095D01*
X144061904Y-76780952D01*
X143490476Y-77352380D01*
X144109523Y-77352380D01*
%TO.C,H1*%
X142238095Y-150102380D02*
X142238095Y-149102380D01*
X142238095Y-149578571D02*
X142809523Y-149578571D01*
X142809523Y-150102380D02*
X142809523Y-149102380D01*
X143809523Y-150102380D02*
X143238095Y-150102380D01*
X143523809Y-150102380D02*
X143523809Y-149102380D01*
X143428571Y-149245238D01*
X143333333Y-149340476D01*
X143238095Y-149388095D01*
X138214285Y-156802380D02*
X138214285Y-155802380D01*
X138547619Y-156516666D01*
X138880952Y-155802380D01*
X138880952Y-156802380D01*
X139500000Y-156802380D02*
X139404761Y-156754761D01*
X139357142Y-156707142D01*
X139309523Y-156611904D01*
X139309523Y-156326190D01*
X139357142Y-156230952D01*
X139404761Y-156183333D01*
X139500000Y-156135714D01*
X139642857Y-156135714D01*
X139738095Y-156183333D01*
X139785714Y-156230952D01*
X139833333Y-156326190D01*
X139833333Y-156611904D01*
X139785714Y-156707142D01*
X139738095Y-156754761D01*
X139642857Y-156802380D01*
X139500000Y-156802380D01*
X140690476Y-156135714D02*
X140690476Y-156802380D01*
X140261904Y-156135714D02*
X140261904Y-156659523D01*
X140309523Y-156754761D01*
X140404761Y-156802380D01*
X140547619Y-156802380D01*
X140642857Y-156754761D01*
X140690476Y-156707142D01*
X141166666Y-156135714D02*
X141166666Y-156802380D01*
X141166666Y-156230952D02*
X141214285Y-156183333D01*
X141309523Y-156135714D01*
X141452380Y-156135714D01*
X141547619Y-156183333D01*
X141595238Y-156278571D01*
X141595238Y-156802380D01*
X141928571Y-156135714D02*
X142309523Y-156135714D01*
X142071428Y-155802380D02*
X142071428Y-156659523D01*
X142119047Y-156754761D01*
X142214285Y-156802380D01*
X142309523Y-156802380D01*
X142642857Y-156802380D02*
X142642857Y-156135714D01*
X142642857Y-155802380D02*
X142595238Y-155850000D01*
X142642857Y-155897619D01*
X142690476Y-155850000D01*
X142642857Y-155802380D01*
X142642857Y-155897619D01*
X143119047Y-156135714D02*
X143119047Y-156802380D01*
X143119047Y-156230952D02*
X143166666Y-156183333D01*
X143261904Y-156135714D01*
X143404761Y-156135714D01*
X143500000Y-156183333D01*
X143547619Y-156278571D01*
X143547619Y-156802380D01*
X144452380Y-156135714D02*
X144452380Y-156945238D01*
X144404761Y-157040476D01*
X144357142Y-157088095D01*
X144261904Y-157135714D01*
X144119047Y-157135714D01*
X144023809Y-157088095D01*
X144452380Y-156754761D02*
X144357142Y-156802380D01*
X144166666Y-156802380D01*
X144071428Y-156754761D01*
X144023809Y-156707142D01*
X143976190Y-156611904D01*
X143976190Y-156326190D01*
X144023809Y-156230952D01*
X144071428Y-156183333D01*
X144166666Y-156135714D01*
X144357142Y-156135714D01*
X144452380Y-156183333D01*
X144928571Y-156802380D02*
X144928571Y-155802380D01*
X144928571Y-156278571D02*
X145500000Y-156278571D01*
X145500000Y-156802380D02*
X145500000Y-155802380D01*
X146119047Y-156802380D02*
X146023809Y-156754761D01*
X145976190Y-156707142D01*
X145928571Y-156611904D01*
X145928571Y-156326190D01*
X145976190Y-156230952D01*
X146023809Y-156183333D01*
X146119047Y-156135714D01*
X146261904Y-156135714D01*
X146357142Y-156183333D01*
X146404761Y-156230952D01*
X146452380Y-156326190D01*
X146452380Y-156611904D01*
X146404761Y-156707142D01*
X146357142Y-156754761D01*
X146261904Y-156802380D01*
X146119047Y-156802380D01*
X147023809Y-156802380D02*
X146928571Y-156754761D01*
X146880952Y-156659523D01*
X146880952Y-155802380D01*
X147785714Y-156754761D02*
X147690476Y-156802380D01*
X147500000Y-156802380D01*
X147404761Y-156754761D01*
X147357142Y-156659523D01*
X147357142Y-156278571D01*
X147404761Y-156183333D01*
X147500000Y-156135714D01*
X147690476Y-156135714D01*
X147785714Y-156183333D01*
X147833333Y-156278571D01*
X147833333Y-156373809D01*
X147357142Y-156469047D01*
X142538095Y-153452380D02*
X142538095Y-152452380D01*
X142538095Y-152928571D02*
X143109523Y-152928571D01*
X143109523Y-153452380D02*
X143109523Y-152452380D01*
X144109523Y-153452380D02*
X143538095Y-153452380D01*
X143823809Y-153452380D02*
X143823809Y-152452380D01*
X143728571Y-152595238D01*
X143633333Y-152690476D01*
X143538095Y-152738095D01*
%TD*%
M02*
