M48
; DRILL file {KiCad (5.1.10)-1} date 09/30/23 19:16:11
; FORMAT={-:-/ absolute / inch / decimal}
; #@! TF.CreationDate,2023-09-30T19:16:11-07:00
; #@! TF.GenerationSoftware,Kicad,Pcbnew,(5.1.10)-1
; #@! TF.FileFunction,Plated,1,2,PTH
FMAT,2
INCH
T1C0.0157
T2C0.0236
T3C0.0300
T4C0.0315
T5C0.0374
T6C0.0390
T7C0.0394
T8C0.0512
%
G90
G05
T1
X5.5512Y-4.5748
X5.5945Y-4.2362
X5.6142Y-4.4331
X5.6929Y-3.8268
X5.6929Y-4.1102
X5.7835Y-4.0157
X5.7874Y-2.9803
X5.7874Y-3.0315
X5.7874Y-3.0787
X5.9449Y-2.9803
X5.9449Y-3.0315
X5.9449Y-3.0787
X6.2913Y-4.0315
X6.5512Y-3.7874
X6.6142Y-3.6496
X6.6496Y-5.9213
X6.6772Y-3.1063
X6.8465Y-3.685
X7.0443Y-5.1191
X7.0943Y-5.3108
X7.1063Y-5.6024
X7.1496Y-5.5433
X7.2441Y-5.0118
T2
X5.8031Y-4.4331
X5.8031Y-4.4921
T3
X5.9961Y-3.185
X5.9961Y-3.285
X5.9961Y-3.385
X5.9961Y-3.485
X5.9961Y-3.585
X5.9961Y-3.685
X5.9961Y-3.785
X5.9961Y-3.885
X5.9961Y-3.985
X5.9961Y-4.085
X5.9961Y-4.185
X5.9961Y-4.285
X5.9961Y-4.385
X5.9961Y-4.485
X5.9961Y-4.585
X6.9961Y-3.185
X6.9961Y-3.285
X6.9961Y-3.385
X6.9961Y-3.485
X6.9961Y-3.585
X6.9961Y-3.685
X6.9961Y-3.785
X6.9961Y-3.885
X6.9961Y-3.985
X6.9961Y-4.085
X6.9961Y-4.185
X6.9961Y-4.285
X6.9961Y-4.385
X6.9961Y-4.485
X6.9961Y-4.585
T4
X5.7244Y-5.0512
X5.8622Y-5.0512
T5
X5.7047Y-5.5669
X5.8031Y-5.5669
X5.9016Y-5.5669
X6.0Y-5.5669
T6
X5.6811Y-3.3307
X5.6811Y-3.5277
T7
X5.5197Y-4.7126
X5.6181Y-4.7126
X5.8465Y-2.4646
X5.8465Y-2.563
X5.8465Y-2.8346
X5.9465Y-2.8346
X6.0465Y-2.8346
X6.1465Y-2.8346
X6.2465Y-2.8346
X6.3465Y-2.8346
X6.4465Y-2.8346
X6.5465Y-2.8346
X6.6465Y-2.8346
X6.7465Y-2.8346
X6.8465Y-2.8346
X6.9465Y-2.8346
X7.0465Y-2.8346
X7.1465Y-2.8346
T8
X6.7717Y-5.4606
X7.5591Y-5.4606
T0
M30
